<?xml version="1.0" standalone="no"?>
<!DOCTYPE svg PUBLIC "-//W3C//DTD SVG 1.1//EN" "http://www.w3.org/Graphics/SVG/1.1/DTD/svg11.dtd" >
<svg xmlns="http://www.w3.org/2000/svg" xmlns:xlink="http://www.w3.org/1999/xlink" version="1.1">
<metadata>
Created by FontForge 20170924 at Tue Aug 18 23:14:34 2020
 By www-data
Soulwave - Personal Use (Haksen Studio). 2020. All Rights Reserved
</metadata>
<defs>
<font id="SoulwavePersonalUse" horiz-adv-x="1639" >
  <font-face 
    font-family="Soulwave - Personal Use"
    font-weight="400"
    font-stretch="normal"
    units-per-em="2048"
    panose-1="2 0 5 0 0 0 0 0 0 0"
    ascent="1638"
    descent="-410"
    x-height="416"
    cap-height="909"
    bbox="-1112 -834 2969 1289"
    underline-thickness="50"
    underline-position="-75"
    unicode-range="U+001D-2265"
  />
<missing-glyph horiz-adv-x="500" 
 />
    <glyph glyph-name=".notdef" horiz-adv-x="500" 
 />
    <glyph glyph-name=".null" horiz-adv-x="0" 
 />
    <glyph glyph-name=".null" horiz-adv-x="0" 
 />
    <glyph glyph-name="nonmarkingreturn" horiz-adv-x="508" 
 />
    <glyph glyph-name="space" unicode=" " horiz-adv-x="508" 
 />
    <glyph glyph-name="space" unicode="&#xa0;" horiz-adv-x="508" 
 />
    <glyph glyph-name="exclam" unicode="!" horiz-adv-x="179" 
d="M100 120c-54 0 -36 50 -53 375l-2 67c0 152 20 356 27 378c8 26 26 39 45 39c30 0 62 -31 62 -93v-2c0 -13 -3 -105 -56 -746c-1 -13 -12 -18 -23 -18zM112 -59c-26 0 -56 24 -64 48c-6 11 -8 21 -8 30c0 23 18 37 41 37c21 0 45 -12 61 -40c7 -12 11 -23 11 -34
c0 -20 -12 -36 -29 -39c-4 -1 -8 -2 -12 -2z" />
    <glyph glyph-name="quotedbl" unicode="&#x22;" horiz-adv-x="275" 
d="M96 558c-10 0 -22 12 -22 23c0 71 -34 136 -34 172c0 19 9 30 37 30c10 0 70 -5 70 -101c0 -12 -20 -88 -39 -117c-3 -5 -7 -7 -12 -7zM224 558c-10 0 -22 12 -22 23c0 71 -34 136 -34 172c0 19 9 30 37 30c10 0 70 -5 70 -101c0 -12 -20 -88 -39 -117
c-3 -5 -7 -7 -12 -7z" />
    <glyph glyph-name="numbersign" unicode="#" horiz-adv-x="785" 
d="M379 27c-16 0 -35 17 -35 35c0 10 3 9 52 104l-119 2c-46 -125 -53 -132 -79 -132c-35 0 -66 36 -66 62c0 12 14 55 19 69c-39 0 -111 7 -111 37c0 3 1 7 3 11c14 29 36 25 137 28c31 74 53 111 59 122l-111 -1c-25 0 -50 14 -50 28c0 7 7 14 23 20c8 4 72 4 170 9
c60 107 79 190 117 190c13 0 27 -11 27 -25c0 -59 -12 -51 -54 -159c88 5 111 6 147 7c18 46 70 160 118 160c29 0 53 -18 53 -57c0 -24 -9 -57 -31 -98c74 2 73 3 80 3c35 0 57 -24 57 -44c0 -15 -13 -29 -41 -29l-139 -2c-22 -31 -36 -48 -81 -112c24 1 102 2 102 2
c38 0 58 -32 58 -57c0 -17 -9 -31 -27 -31l-190 -3c-73 -125 -68 -139 -88 -139zM305 248c36 1 65 3 133 5c16 38 30 73 44 112l-74 -1l-68 1c-11 -37 -20 -71 -35 -117z" />
    <glyph glyph-name="dollar" unicode="$" horiz-adv-x="567" 
d="M309 -171c-39 0 -60 37 -60 90v10c-138 35 -209 141 -209 164c0 14 9 27 24 27c13 0 30 -9 49 -35c32 -44 89 -77 138 -88c6 200 12 158 30 416c-106 124 -151 239 -151 332c0 123 79 209 199 232c6 56 11 106 37 106c20 0 29 -30 29 -56l-3 -46c121 -8 175 -82 175 -103
c0 -8 -6 -15 -15 -15c-23 0 -66 55 -141 55c-7 0 -15 -1 -24 -2c-17 -194 -26 -305 -34 -437c149 -180 213 -312 213 -403c0 -104 -83 -153 -219 -158v-23c0 -28 -4 -66 -38 -66zM292 564c9 135 21 264 27 325c-46 -34 -75 -93 -75 -163c0 -50 14 -105 48 -162zM348 -9
c112 13 153 53 153 105c0 72 -79 167 -154 245l-1 -63c0 -52 2 -94 2 -226v-61z" />
    <glyph glyph-name="percent" unicode="%" horiz-adv-x="599" 
d="M455 -57c-74 0 -116 67 -127 108c-101 -73 -126 -90 -150 -90l-14 1c-32 0 -72 27 -72 71v1l-1 -1c0 3 23 67 280 798c-65 -41 -110 -59 -139 -71c12 -14 39 -56 39 -105c0 -75 -63 -109 -105 -109c-84 0 -126 76 -126 149c0 66 34 129 103 129c3 0 36 -1 55 -25
c141 54 189 128 211 128c8 0 58 -15 59 -56l-1 2c1 -6 2 -13 2 -21c0 -135 -164 -608 -235 -789l94 69c4 17 11 33 23 43c-3 6 -4 12 -4 18c0 23 68 91 131 91c76 0 121 -75 121 -151c0 -105 -84 -190 -144 -190zM177 604c20 0 38 18 38 66c0 18 -8 55 -30 55
c-3 0 -7 -1 -11 -3c-33 -20 -45 -43 -45 -64c0 -30 25 -54 48 -54zM468 52c25 0 61 63 61 124c0 32 -14 46 -34 46c-22 0 -53 -18 -79 -47c10 -8 28 -29 28 -57c0 -47 11 -66 24 -66z" />
    <glyph glyph-name="ampersand" unicode="&#x26;" horiz-adv-x="742" 
d="M468 -349c-36 0 -48 79 -76 215c-13 -1 -27 -2 -40 -2c-183 0 -312 131 -312 304c0 125 68 273 233 409c-87 31 -126 112 -126 197c0 107 62 222 169 254v7c0 135 35 183 65 183c22 0 42 -26 42 -64c0 -31 -9 -92 -11 -116c130 -3 140 -110 140 -113
c0 -18 -12 -30 -22 -30c-5 0 -9 3 -12 8c-27 48 -57 67 -88 67c-85 0 -171 -151 -171 -249c0 -48 20 -83 70 -83c29 0 31 16 49 16c8 0 47 -9 47 -33c0 -41 -305 -181 -305 -446c0 -136 88 -192 194 -192c160 0 360 126 360 289c0 95 -58 134 -124 134
c-86 0 -187 -69 -187 -171c0 -40 26 -57 51 -57c15 0 29 6 38 16h-1c6 9 14 12 22 12c20 0 42 -20 42 -42c0 -11 -24 -51 -80 -51c-92 0 -134 60 -134 131c0 102 87 228 234 228c115 0 207 -106 207 -245c0 -145 -112 -285 -257 -339c2 -8 3 -10 3 -15c0 -12 -3 -42 -3 -184
c0 -9 -4 -38 -17 -38z" />
    <glyph glyph-name="quotesingle" unicode="'" horiz-adv-x="147" 
d="M97 558c-11 0 -23 12 -23 23c0 71 -34 136 -34 172c0 19 9 30 37 30c10 0 70 -5 70 -101c0 -12 -20 -88 -39 -117c-3 -5 -7 -7 -11 -7z" />
    <glyph glyph-name="parenleft" unicode="(" horiz-adv-x="364" 
d="M240 -290c-81 0 -200 311 -200 604c0 392 194 719 288 745l7 1c15 0 29 -14 29 -30c0 -77 -78 -126 -155 -369c-42 -129 -57 -250 -57 -359c0 -313 127 -525 127 -552c0 -22 -14 -40 -39 -40z" />
    <glyph glyph-name="parenright" unicode=")" horiz-adv-x="364" 
d="M164 -290c-25 0 -39 18 -39 40c0 27 127 239 127 552c0 109 -15 230 -57 359c-77 243 -155 292 -155 369c0 16 14 30 29 30l7 -1c94 -26 288 -353 288 -745c0 -293 -119 -604 -200 -604z" />
    <glyph glyph-name="asterisk" unicode="*" horiz-adv-x="483" 
d="M184 450c-38 0 -65 37 -65 68c0 7 1 14 4 20c39 58 50 50 96 100c-149 59 -179 90 -179 129c0 14 7 41 39 41c45 0 163 -125 163 -125v2c0 46 -30 60 -30 153c0 31 19 46 41 46c32 0 71 -30 71 -79c0 -30 0 -63 -26 -105c91 19 118 58 139 58c18 0 46 -21 46 -47
c0 -15 -174 -66 -175 -66c1 0 98 -127 98 -139c0 -27 -24 -35 -36 -35c-56 0 -66 71 -94 132c-62 -78 -31 -153 -92 -153z" />
    <glyph glyph-name="plus" unicode="+" horiz-adv-x="579" 
d="M285 59c-43 0 -70 41 -70 73c0 8 6 59 8 143c-111 8 -183 13 -183 42c0 21 2 17 184 26c0 61 -2 103 -2 133c0 42 4 59 22 70c5 4 11 6 17 6c11 0 22 -7 31 -16c21 -19 36 -42 41 -187c117 9 180 17 189 17c18 0 39 -13 48 -29c6 -10 9 -19 9 -28c0 -19 -13 -33 -29 -34
c-56 -4 -111 -5 -167 -5h-49c0 -59 -2 -119 -7 -178c-2 -24 -22 -33 -42 -33z" />
    <glyph glyph-name="comma" unicode="," horiz-adv-x="147" 
d="M97 -141c-11 0 -23 12 -23 23c0 71 -34 136 -34 172c0 19 9 30 37 30c10 0 70 -5 70 -101c0 -12 -20 -88 -39 -117c-3 -5 -7 -7 -11 -7z" />
    <glyph glyph-name="hyphen" unicode="-" horiz-adv-x="455" 
d="M427 284h-320c-29 0 -67 8 -67 36c0 15 163 54 284 54c73 0 131 -14 131 -55c0 -17 -9 -35 -28 -35z" />
    <glyph glyph-name="hyphen" unicode="&#xad;" horiz-adv-x="455" 
d="M427 284h-320c-29 0 -67 8 -67 36c0 15 163 54 284 54c73 0 131 -14 131 -55c0 -17 -9 -35 -28 -35z" />
    <glyph glyph-name="period" unicode="." horiz-adv-x="198" 
d="M132 -27c-9 0 -19 1 -29 4c-43 12 -63 43 -63 73c0 33 24 64 67 64c62 0 91 -39 91 -76c0 -34 -23 -65 -66 -65z" />
    <glyph glyph-name="slash" unicode="/" horiz-adv-x="603" 
d="M109 -171c-31 0 -69 26 -69 68c0 36 430 1011 531 1081c3 2 7 3 10 3c12 0 22 -12 22 -24c0 -105 -84 -182 -461 -1108c-6 -13 -18 -20 -33 -20z" />
    <glyph glyph-name="zero" unicode="0" horiz-adv-x="661" 
d="M289 -20c-160 0 -249 132 -249 276c0 113 55 234 174 305c-4 21 -6 40 -6 59c0 126 88 197 187 197c125 0 266 -114 266 -375c0 -229 -171 -462 -372 -462zM267 66c138 0 328 175 328 442c0 170 -100 250 -190 250c-73 0 -140 -54 -140 -156l1 -21l11 1
c32 0 57 -18 57 -42c0 -16 -12 -35 -42 -52c30 -64 48 -71 48 -91c0 -16 -12 -21 -21 -21c-13 0 -29 4 -70 87c-72 -54 -118 -142 -118 -230c0 -31 6 -63 19 -94c24 -50 67 -73 117 -73z" />
    <glyph glyph-name="one" unicode="1" horiz-adv-x="357" 
d="M110 10c-68 0 -70 29 -70 30c0 29 53 26 130 29c-8 12 -11 63 -11 133c0 136 12 345 28 481c-41 -52 -32 -36 -50 -48c-2 -1 -5 -2 -7 -2c-8 0 -15 7 -15 15l1 4c11 30 -15 -2 92 138c8 14 19 21 31 21c23 0 48 -25 48 -71l-34 -667c47 2 45 3 56 3c30 0 48 -21 48 -40
c0 -13 -10 -25 -31 -25c-235 0 -167 -1 -216 -1z" />
    <glyph glyph-name="two" unicode="2" horiz-adv-x="501" 
d="M99 11c-26 0 -59 26 -59 59c0 41 378 383 378 611c0 51 -24 72 -58 72c-64 0 -165 -76 -208 -172c-4 -7 -18 -48 -32 -48c-9 0 -18 10 -19 17l-1 12c0 87 135 253 256 253c95 0 145 -86 145 -179c0 -111 -59 -251 -315 -543l260 5c27 0 52 -23 52 -48
c0 -29 -113 -37 -215 -37c-76 0 -146 4 -162 7c-6 -6 -13 -9 -22 -9z" />
    <glyph glyph-name="three" unicode="3" horiz-adv-x="586" 
d="M259 28c-169 0 -219 106 -219 176c0 34 12 59 28 59c13 0 28 -15 28 -30c0 -8 -7 -14 -7 -36c0 -68 54 -99 122 -99c117 0 278 92 286 244c-2 90 -47 151 -127 151c-8 0 -18 -1 -27 -2c-7 -4 -14 -6 -20 -6c-23 0 -43 20 -43 43c0 31 105 146 181 223l-213 -5
c-47 0 -56 3 -66 11c-4 4 -9 9 -9 15v5c0 9 24 25 341 25c25 0 46 -37 46 -56c0 -32 -37 -40 -176 -208c135 -19 202 -119 202 -225c0 -137 -110 -285 -327 -285z" />
    <glyph glyph-name="four" unicode="4" horiz-adv-x="469" 
d="M420 39c-26 0 -58 20 -58 62c0 1 1 82 8 156c-95 3 -161 4 -206 4c-51 0 -74 -1 -78 -1c-21 0 -46 15 -46 47c0 30 282 470 336 470c25 0 44 -26 44 -41v-2c0 -27 -4 -41 -282 -424h45c95 0 142 -2 177 -2h15c15 145 43 154 52 154h2c31 0 40 -30 40 -86
c0 -69 -13 -175 -16 -310c0 -18 -15 -27 -33 -27z" />
    <glyph glyph-name="five" unicode="5" horiz-adv-x="497" 
d="M210 46c-86 0 -170 46 -170 75c0 4 2 17 16 17c19 0 36 -29 98 -29c136 0 242 148 242 252c0 56 -30 98 -104 98c-38 0 -89 -11 -152 -39c-5 -6 -13 -8 -22 -8c-25 0 -59 21 -59 63c0 0 19 280 35 291c6 6 94 14 187 14c105 0 216 -11 216 -48c0 -15 -18 -19 -26 -19
c-17 0 -67 12 -275 12h-25l1 -12c0 -16 -4 -59 -18 -230c40 20 79 29 117 29c121 0 219 -92 219 -190c0 -89 -90 -276 -280 -276z" />
    <glyph glyph-name="six" unicode="6" horiz-adv-x="479" 
d="M232 47c-90 0 -192 82 -192 228c0 234 231 493 315 493c14 0 27 -14 27 -28c0 -44 -193 -159 -251 -414c69 79 143 113 205 113c82 0 143 -59 143 -149c0 -136 -136 -243 -247 -243zM231 113c118 0 204 118 204 201c0 45 -26 80 -86 80c-116 0 -219 -169 -225 -172
c8 -62 44 -109 107 -109z" />
    <glyph glyph-name="seven" unicode="7" horiz-adv-x="446" 
d="M114 84c-29 0 -53 30 -53 61c0 37 180 447 287 592l-261 -7c-10 0 -47 1 -47 21c0 25 366 35 367 35c37 0 39 -25 39 -28c0 -98 -118 -188 -280 -609c-9 -24 -16 -65 -52 -65z" />
    <glyph glyph-name="eight" unicode="8" horiz-adv-x="460" 
d="M231 69c-76 0 -191 58 -191 198c0 171 149 245 189 253c-93 88 -127 159 -127 213c0 90 92 135 157 135c102 0 201 -102 201 -221c0 -107 -72 -195 -92 -202c45 -57 65 -116 65 -170c0 -115 -87 -206 -202 -206zM305 512c6 14 72 76 72 166c0 14 -2 28 -5 42
c-20 71 -65 98 -109 98c-58 0 -115 -47 -115 -106c0 -72 75 -124 157 -200zM226 135c71 0 154 57 154 148c0 53 -28 117 -101 189c-30 -26 -110 -52 -145 -164c-7 -25 -10 -47 -10 -66c0 -74 47 -107 102 -107z" />
    <glyph glyph-name="nine" unicode="9" horiz-adv-x="514" 
d="M451 18c-28 0 -65 51 -65 214c0 79 9 185 31 323c-93 -144 -154 -212 -235 -212c-97 0 -142 76 -142 164c0 121 85 264 239 264h6c23 0 106 -4 160 -74c38 67 36 71 47 71c16 0 22 -18 22 -51c0 -83 -37 -261 -37 -484c0 -105 7 -157 7 -168c0 -26 -15 -47 -33 -47z
M170 424c68 0 192 129 256 238c-20 36 -55 53 -95 53c-90 0 -203 -85 -208 -220c2 -50 20 -71 47 -71z" />
    <glyph glyph-name="colon" unicode=":" horiz-adv-x="198" 
d="M132 -27c-9 0 -19 1 -29 4c-43 12 -63 43 -63 73c0 33 24 64 67 64c62 0 91 -39 91 -76c0 -34 -23 -65 -66 -65zM132 265c-9 0 -19 1 -29 4c-43 12 -63 43 -63 73c0 33 24 64 67 64c62 0 91 -39 91 -76c0 -34 -23 -65 -66 -65z" />
    <glyph glyph-name="semicolon" unicode=";" horiz-adv-x="198" 
d="M132 265c-9 0 -19 1 -29 4c-43 12 -63 43 -63 73c0 33 24 64 67 64c62 0 91 -39 91 -76c0 -34 -23 -65 -66 -65zM127 -141c-11 0 -23 12 -23 23c0 71 -34 136 -34 172c0 19 9 30 37 30c10 0 70 -5 70 -101c0 -12 -20 -88 -39 -117c-3 -5 -7 -7 -11 -7z" />
    <glyph glyph-name="semicolon" unicode="&#x37e;" horiz-adv-x="198" 
d="M132 265c-9 0 -19 1 -29 4c-43 12 -63 43 -63 73c0 33 24 64 67 64c62 0 91 -39 91 -76c0 -34 -23 -65 -66 -65zM127 -141c-11 0 -23 12 -23 23c0 71 -34 136 -34 172c0 19 9 30 37 30c10 0 70 -5 70 -101c0 -12 -20 -88 -39 -117c-3 -5 -7 -7 -11 -7z" />
    <glyph glyph-name="less" unicode="&#x3c;" horiz-adv-x="450" 
d="M370 -10c-6 0 -13 3 -21 8c-30 14 -309 281 -309 352c0 34 294 371 373 371c23 0 37 -18 37 -33c0 -69 -112 -107 -295 -352c1 0 223 -294 228 -308c4 -7 6 -13 6 -18c0 -12 -8 -20 -19 -20z" />
    <glyph glyph-name="equal" unicode="=" horiz-adv-x="455" 
d="M427 400h-320c-29 0 -67 8 -67 36c0 15 163 54 284 54c73 0 131 -14 131 -55c0 -17 -9 -35 -28 -35zM427 235h-320c-29 0 -67 8 -67 36c0 15 163 54 284 54c73 0 131 -14 131 -55c0 -17 -9 -35 -28 -35z" />
    <glyph glyph-name="greater" unicode="&#x3e;" horiz-adv-x="450" 
d="M120 -10c-11 0 -19 8 -19 20c0 5 2 11 6 18c5 14 227 308 228 308c-183 245 -295 283 -295 352c0 15 14 33 37 33c79 0 373 -337 373 -371c0 -71 -279 -338 -309 -352c-8 -5 -15 -8 -21 -8z" />
    <glyph glyph-name="question" unicode="?" horiz-adv-x="457" 
d="M126 21c-44 0 -67 42 -67 71c0 227 284 401 284 619c0 13 -1 27 -3 40c-15 53 -43 72 -76 72c-85 0 -201 -133 -202 -133c-10 0 -22 10 -22 21c0 66 122 176 240 176c93 0 177 -82 177 -208c0 -253 -266 -402 -292 -626c-2 -22 -20 -32 -39 -32zM124 -117
c-44 0 -81 53 -81 86c0 31 26 41 40 41c49 0 81 -59 81 -84c0 -24 -15 -43 -40 -43z" />
    <glyph glyph-name="at" unicode="@" horiz-adv-x="876" 
d="M328 54c-198 0 -288 154 -288 332c0 247 172 541 468 541c255 0 368 -208 368 -388c0 -137 -65 -257 -182 -257c-77 0 -145 78 -159 178c-92 -122 -165 -168 -216 -168c-58 0 -88 59 -88 136c0 137 98 329 311 329c83 0 123 -58 123 -82c0 -6 -4 -23 -14 -23
c-2 0 -5 1 -7 2c-27 16 -54 23 -78 23c-124 0 -208 -176 -208 -245c0 -17 5 -28 16 -28c25 0 79 54 170 212c6 18 25 49 45 49c26 0 56 -28 56 -96c0 -141 22 -191 51 -191c48 0 113 145 113 235c0 147 -133 258 -282 258c-137 0 -287 -92 -362 -335
c-17 -61 -24 -115 -24 -162c0 -187 116 -260 191 -260c128 0 212 103 232 103c17 0 35 -18 35 -35c0 -21 -122 -128 -271 -128z" />
    <glyph glyph-name="A" unicode="A" 
d="M838 -294c-12 0 -23 1 -33 3c-88 18 -153 101 -179 227c-9 47 -15 126 -15 196c0 36 2 71 5 97l2 36l-5 1c-37 0 -253 -32 -355 -51c-28 -6 -25 3 -37 -92c-10 -84 -15 -142 -15 -207l1 -53l2 -58c0 -24 -2 -25 -7 -25c-10 0 -20 12 -25 29c-2 7 -5 39 -8 71l-2 51
c0 70 8 157 23 264v1c0 3 -3 5 -7 5c-3 -1 -32 -4 -61 -7c-56 -7 -82 -9 -95 -9c-9 0 -13 1 -17 3c-7 3 -10 7 -10 11c0 3 4 7 12 9c6 2 47 9 91 15c44 7 84 14 88 16c7 2 10 11 17 51c22 106 58 207 112 313c61 120 145 232 207 275c33 22 70 33 106 33
c46 0 89 -17 120 -51s42 -78 42 -165c0 -65 -4 -105 -24 -246l-16 -113l5 -1l12 1c71 12 119 18 134 18c25 0 46 -11 48 -25v-3c0 -12 -12 -15 -68 -22l-55 -7c-4 -1 -23 -4 -43 -6c-20 -1 -38 -4 -39 -5s-6 -31 -10 -67c-8 -56 -9 -85 -10 -191c0 -107 1 -131 7 -159
c14 -61 32 -97 60 -118c9 -6 22 -10 39 -10c12 0 26 2 40 6c39 9 136 58 198 100c51 34 246 179 358 266c124 96 233 166 261 166c11 0 20 -7 20 -14c0 -5 -37 -33 -116 -87c-34 -24 -97 -70 -140 -103c-122 -95 -292 -222 -344 -256c-57 -39 -138 -81 -187 -98
c-27 -10 -59 -15 -87 -15zM245 251l94 17c41 8 104 18 139 23l106 15l41 7c7 29 36 208 53 325c5 31 7 70 7 123v24c0 68 -5 79 -29 90c-7 4 -12 5 -19 5c-4 0 -9 0 -17 -2c-64 -14 -134 -77 -205 -185c-36 -54 -96 -175 -120 -241c-17 -45 -44 -143 -52 -187l-2 -10
c0 -3 1 -4 4 -4z" />
    <glyph glyph-name="B" unicode="B" horiz-adv-x="1427" 
d="M205 -268c-24 0 -47 2 -65 6c-60 14 -111 52 -131 97c-6 14 -9 28 -9 42c0 33 15 69 45 112l24 34c-6 161 -9 241 -9 383c0 166 6 309 18 414c11 94 21 115 55 115c26 0 46 -10 54 -29c4 -10 6 -54 6 -115c0 -86 -4 -207 -12 -323c-9 -126 -14 -252 -14 -314
c0 -25 1 -40 3 -40c7 0 11 15 45 156c47 200 71 273 125 386c34 74 63 119 95 152c29 29 50 41 76 45l11 1c22 0 53 -9 72 -21c27 -18 43 -58 43 -102c0 -9 -1 -18 -2 -27c-17 -98 -77 -204 -181 -316l-29 -30c57 1 60 2 96 2c24 0 37 -2 58 -7c56 -14 85 -34 103 -69l9 -18
c223 -2 290 -3 462 -3c152 0 250 1 267 4c8 1 16 2 24 2c19 0 36 -4 44 -11c4 -5 6 -8 6 -10c0 -4 -4 -6 -14 -8c-30 -8 -103 -12 -245 -12l-350 2l-117 -1l-62 -3c2 -33 3 -23 3 -55c0 -70 -31 -151 -84 -224c-67 -92 -225 -186 -348 -209c-22 -4 -47 -6 -72 -6zM272 301
c1 0 3 5 7 16c5 11 13 26 18 33s30 38 55 68c96 115 134 179 167 278c9 28 16 70 16 95c0 7 -1 13 -2 16s-2 4 -4 4c-3 0 -9 -2 -19 -8c-80 -46 -170 -222 -223 -436c-10 -41 -15 -61 -15 -66zM241 157l42 18c21 9 55 22 76 28c39 12 151 36 203 44c45 8 48 9 48 17
c0 4 -5 16 -12 26c-10 18 -14 20 -33 25c-9 2 -25 3 -43 3c-39 0 -89 -4 -120 -11c-24 -5 -42 -12 -59 -24c-17 -10 -24 -14 -33 -14l-8 1c-11 1 -20 6 -25 12l-9 11l-16 -70c-7 -31 -12 -56 -12 -63c0 -2 0 -3 1 -3zM142 -201l21 1c20 1 50 7 70 13c98 31 212 104 275 175
c48 55 79 109 97 167c8 25 12 50 12 57v2c-11 0 -185 -36 -213 -44c-63 -17 -129 -49 -171 -81c-16 -12 -17 -14 -23 -50l-20 -91c-10 -46 -14 -56 -25 -69l-20 -23c-3 -4 -7 -6 -13 -6l-9 1c-19 2 -29 11 -38 31c-3 7 -6 10 -8 10s-3 -3 -3 -9l2 -16c4 -24 13 -36 36 -55
c12 -10 16 -13 30 -13z" />
    <glyph glyph-name="C" unicode="C" horiz-adv-x="1402" 
d="M372 -223h-11c-206 0 -361 118 -361 426c0 68 7 144 23 230c57 310 205 478 317 478c58 0 107 -45 129 -139c5 -23 7 -46 7 -68c0 -24 -2 -49 -8 -76c-5 -25 -8 -29 -16 -29c-5 0 -11 3 -13 7s-7 36 -11 73c-11 109 -35 155 -66 155c-81 0 -203 -328 -203 -642l1 -35
c7 -210 59 -296 186 -304c14 -1 28 -1 42 -1c448 0 974 417 1064 417c4 0 7 -1 9 -2c6 -3 9 -13 12 -13c0 -5 -769 -470 -1101 -477z" />
    <glyph glyph-name="D" unicode="D" horiz-adv-x="1508" 
d="M323 -216c-114 0 -162 132 -163 132c-29 -74 -28 -56 -33 -74c-4 -16 -17 -25 -33 -25c-10 0 -21 3 -32 10c-54 31 -62 660 -62 721c1 182 3 214 20 234c7 8 18 11 30 11c20 0 43 -10 51 -27c15 -34 15 -657 24 -744l2 -25c1 2 62 205 126 365c78 192 212 394 314 474
c62 49 120 71 168 71c92 0 151 -81 151 -221c0 -106 -33 -244 -111 -406c-15 -31 -27 -57 -27 -60c1 -1 287 -26 472 -26c54 0 100 2 127 8c58 12 138 43 163 57c20 12 33 16 42 16c10 0 14 -5 14 -12c0 -3 -1 -6 -2 -9c-10 -21 -118 -76 -223 -92c-24 -4 -56 -6 -95 -6
c-113 0 -288 14 -520 30l-17 -29c-58 -109 -174 -262 -232 -307c-61 -48 -112 -66 -154 -66zM277 -140c4 0 9 1 14 3c113 46 274 312 274 323c-13 -1 -95 -26 -127 -40c-163 -71 -212 -157 -212 -216c0 -42 25 -70 51 -70zM194 31l20 24c81 95 282 168 362 168
c14 0 15 2 44 57c99 184 151 360 151 466c0 63 -18 100 -57 100c-42 0 -107 -45 -198 -151c-205 -240 -301 -607 -322 -664z" />
    <glyph glyph-name="E" unicode="E" horiz-adv-x="1300" 
d="M227 -217c-23 0 -43 3 -61 7c-98 25 -166 92 -166 195c0 82 42 186 146 312c26 31 36 45 36 50c0 1 0 2 -1 2c-92 35 -128 113 -128 201c0 160 118 349 236 357l13 1c72 0 112 -53 112 -113c0 -19 -4 -39 -12 -58c-9 -22 -21 -33 -31 -33c-8 0 -15 8 -17 25
c-10 70 -25 97 -43 97c-48 0 -110 -202 -113 -215c-6 -27 -10 -59 -10 -87c0 -51 13 -94 55 -94l15 2c33 8 57 12 74 12s29 -4 39 -10c19 -11 31 -26 31 -37l-2 -7c-2 -5 -17 -17 -33 -27c-123 -73 -251 -280 -251 -413c0 -70 35 -120 125 -120c102 0 220 57 460 221
c159 110 386 220 580 221h3c51 0 83 -13 83 -24c0 -7 -14 -13 -48 -13l-41 2c-187 0 -422 -121 -571 -226c-143 -100 -267 -176 -324 -198c-48 -19 -106 -30 -156 -30z" />
    <glyph glyph-name="F" unicode="F" horiz-adv-x="1063" 
d="M570 -218c-34 0 -61 33 -61 33v22c0 70 3 53 3 93c0 25 -1 72 -5 177c-19 -2 -31 -5 -40 -5c-6 0 -11 1 -15 6c-3 4 -5 8 -5 11c0 9 9 17 29 25c17 8 23 9 23 28c0 13 -3 34 -7 71c-37 280 -116 350 -121 362c-11 -4 -61 -29 -121 -48c-41 -14 -76 -20 -107 -20
c-98 0 -143 62 -143 123s46 122 131 122c53 0 122 -24 205 -87l33 -25l162 84c7 119 -9 207 50 207c18 0 46 -16 50 -29c3 -9 10 -117 10 -117c3 0 17 6 33 13c103 52 231 91 348 91c68 0 133 -13 186 -45c23 -14 35 -25 35 -31c0 -5 -5 -7 -16 -7c-14 0 -38 4 -72 14
c-41 12 -82 17 -121 17c-169 0 -314 -93 -389 -125c0 -391 -3 -505 -3 -532v-8h3c18 0 131 22 215 22c34 0 63 -4 79 -14c11 -7 18 -16 18 -24c0 -5 -2 -9 -5 -13c-5 -5 -19 -7 -42 -7l-50 1c-54 0 -127 -3 -211 -25c-14 -4 -18 -331 -53 -353c-9 -5 -18 -7 -26 -7zM138 585
c14 0 30 2 48 8c42 13 142 55 142 59c0 5 -46 40 -74 57c-42 25 -77 35 -106 35c-59 0 -91 -44 -91 -85c0 -38 27 -74 81 -74zM515 412c1 1 5 27 14 269c-23 -11 -111 -52 -112 -60v-1c0 -8 31 -48 50 -86c16 -32 45 -109 45 -119c0 -2 1 -3 2 -3h1z" />
    <glyph glyph-name="G" unicode="G" horiz-adv-x="1180" 
d="M356 -216c-91 0 -164 50 -164 142c0 17 2 36 8 56c56 204 362 267 362 267c-5 75 -44 152 -56 153c-3 0 -78 -64 -135 -114c-52 -46 -103 -66 -149 -66c-127 0 -222 148 -222 315c0 53 10 108 31 161c58 144 184 214 304 214c107 0 209 -55 253 -163c7 -16 13 -53 13 -85
c0 -33 -6 -62 -21 -65l-6 -1c-12 0 -15 9 -15 32c0 54 -22 119 -53 160c-47 62 -92 87 -133 87c-129 0 -218 -253 -218 -431c0 -96 26 -170 86 -170c16 0 34 5 54 16c44 24 154 101 201 141c16 13 32 19 48 19c57 0 110 -78 137 -149l11 -31c79 10 161 13 236 13
c172 0 313 -19 328 -29c4 -3 6 -5 6 -6s-2 -2 -6 -3c-5 -2 -26 -3 -55 -3c-59 0 -156 3 -251 3c-100 0 -199 -3 -247 -15c0 0 7 -33 7 -75c0 -24 -2 -50 -9 -74c-62 -207 -221 -299 -345 -299zM339 -172c8 0 17 1 26 3c191 45 201 318 201 376v11c-1 0 -90 -27 -159 -66
c-118 -67 -163 -152 -163 -218c0 -61 38 -106 95 -106z" />
    <glyph glyph-name="H" unicode="H" horiz-adv-x="1805" 
d="M157 -367c-81 0 -148 75 -148 175c0 22 3 45 10 69c38 133 220 168 247 189c3 3 19 131 26 211c2 34 5 135 5 229c0 78 -2 151 -7 179c-8 43 -25 61 -47 61c-64 0 -166 -154 -190 -229c-13 -42 -23 -108 -23 -141c0 -12 1 -19 4 -21s5 -4 5 -7c0 -5 -8 -10 -15 -10
c-3 0 -6 1 -8 2c-10 6 -16 30 -16 64c0 79 32 213 129 315c47 50 93 72 134 72c61 0 111 -48 135 -125c19 -62 25 -151 25 -240c0 -155 -18 -310 -18 -325v-1h2c6 0 25 2 46 4c72 8 348 20 373 37c2 1 3 5 3 12c0 20 -6 62 -6 126c0 66 6 155 32 267c60 260 158 370 240 370
c78 0 141 -97 146 -257v-25c0 -156 -46 -286 -133 -379c-65 -69 -109 -82 -143 -102l3 -33c14 -176 56 -272 139 -295c7 -2 15 -3 23 -3c186 0 688 454 720 458l7 1c11 0 23 -6 25 -13c0 -16 -547 -456 -722 -484c-18 -3 -34 -4 -50 -4c-156 0 -233 128 -267 294l-7 34
c0 2 -1 2 -4 2c-12 0 -56 -12 -228 -22c-201 -13 -207 -13 -207 -27c0 -21 -51 -346 -173 -411c-23 -12 -45 -17 -67 -17zM968 189c1 0 14 8 28 17c139 89 202 258 202 411c0 69 -12 135 -37 189c-15 32 -29 46 -43 46c-68 0 -126 -317 -144 -483c-4 -36 -7 -121 -7 -160
c0 -12 0 -20 1 -20zM117 -301c46 0 108 80 142 314l2 12c0 2 -1 4 -4 4c-6 0 -21 -8 -57 -26c-104 -53 -142 -139 -142 -206c0 -56 26 -98 59 -98z" />
    <glyph glyph-name="I" unicode="I" horiz-adv-x="1165" 
d="M306 -204l-23 1c-141 12 -237 125 -264 309c-3 23 -5 57 -5 99c0 190 31 532 57 639h-38c-18 0 -33 14 -33 32s15 33 33 33h238c18 0 33 -15 33 -33s-15 -32 -33 -32h-58c0 -10 -1 -21 -2 -36c-9 -84 -24 -296 -38 -463c-8 -94 -14 -177 -14 -247
c0 -166 33 -259 153 -259c109 0 290 78 583 251c254 150 307 200 323 200c19 -1 32 -10 32 -19c0 -2 -1 -4 -2 -6c-10 -11 -148 -102 -265 -173c-169 -104 -481 -296 -677 -296z" />
    <glyph glyph-name="J" unicode="J" horiz-adv-x="1188" 
d="M177 -216c-104 0 -177 71 -177 155c0 106 114 232 425 266l3 22c24 166 22 462 26 640l-19 -2c-12 0 -37 5 -37 13c0 5 8 11 30 17c23 7 93 17 145 20h10c37 0 51 -15 51 -25c0 -2 -1 -5 -3 -6c-6 -5 -68 -4 -71 -7v-4c0 -18 11 -103 16 -228c1 -23 1 -47 1 -71
c0 -155 -18 -325 -18 -339v-1c11 0 460 34 641 34c41 0 68 -2 73 -6l1 -2c0 -33 -720 -49 -720 -53l-10 -53c-28 -147 -109 -276 -247 -341c-43 -20 -83 -29 -120 -29zM145 -170c28 0 61 10 95 34c70 47 145 132 174 282l7 36c-1 0 -268 -18 -377 -175
c-11 -16 -17 -36 -17 -55c0 -59 47 -122 118 -122z" />
    <glyph glyph-name="K" unicode="K" horiz-adv-x="1628" 
d="M318 -248c-26 0 -55 43 -63 104c-5 39 -16 208 -16 250c0 30 0 31 -11 37c-4 2 -7 4 -11 4c-6 0 -14 -4 -31 -12c-34 -16 -77 -32 -115 -32c-23 0 -44 6 -60 21c-7 7 -11 16 -11 27c0 29 29 65 101 65c22 0 48 -3 79 -11c18 -5 27 -7 34 -7c4 0 7 1 11 4c8 6 9 9 11 61
c5 106 -6 680 75 700c7 2 13 2 18 2c31 0 37 -27 37 -63c0 -22 -2 -47 -3 -72c-5 -117 -8 -321 -8 -434c0 -50 1 -83 2 -83c37 0 425 488 425 489c3 2 7 3 12 3c9 0 19 -3 25 -10l1 -3c0 -37 -200 -270 -218 -290c-132 -146 -199 -207 -247 -255v-125
c238 -169 348 -269 490 -269c105 0 228 55 435 179c247 149 365 264 396 264c16 0 20 -4 20 -9c0 -7 -8 -14 -8 -15c-17 -16 -461 -344 -729 -426c-38 -12 -77 -19 -121 -19c-84 0 -183 27 -311 107c-52 33 -150 107 -166 120c-1 -18 -2 -7 -2 -28l4 -143
c0 -94 -21 -131 -45 -131zM66 132c9 0 21 2 36 7c42 14 66 28 66 28c-16 2 -31 3 -44 3c-54 0 -79 -16 -79 -27c0 -6 7 -11 21 -11z" />
    <glyph glyph-name="L" unicode="L" horiz-adv-x="1653" 
d="M1075 -210c-73 0 -156 14 -253 48c-80 28 -132 40 -259 99c-82 38 -160 68 -175 68c-9 0 -7 -5 -31 -41c-70 -106 -158 -145 -229 -145c-73 0 -128 41 -128 93c0 29 17 61 57 92c69 53 129 45 196 55c76 147 94 173 229 536c87 236 168 313 232 313
c77 0 128 -115 128 -198c0 0 -10 -27 -22 -27c-3 0 -6 1 -9 5c-2 3 -10 30 -19 60c-24 87 -47 124 -70 124c-91 0 -181 -556 -307 -804c-8 -17 -12 -26 -12 -30c0 -2 0 -3 1 -3c31 -13 46 -7 193 -77c153 -73 338 -126 492 -126c76 0 144 13 197 42c198 109 354 411 407 411
h3c11 -3 17 -6 17 -11c0 -4 -5 -10 -14 -20c-182 -193 -308 -464 -624 -464zM82 -123c22 0 63 28 122 108c17 24 24 32 24 36c0 2 -2 3 -6 3l-24 2c-90 0 -138 -78 -138 -121c0 -17 7 -28 22 -28z" />
    <glyph glyph-name="M" unicode="M" horiz-adv-x="2687" 
d="M1881 -231c-15 0 -31 1 -45 3c-224 39 -301 186 -301 375c0 156 53 341 119 518c17 46 25 77 25 95c0 14 -5 20 -13 20c-49 0 -226 -221 -321 -364c-115 -173 -193 -276 -262 -343c-44 -44 -58 -52 -91 -52c-101 0 -128 101 -128 209c0 87 17 177 27 226
c16 82 38 184 38 238c0 24 -4 38 -15 38c-22 0 -72 -61 -169 -229c-90 -153 -198 -423 -243 -544c-63 -167 -63 -174 -88 -174h-7c-51 0 -84 49 -84 121c0 37 14 233 22 306c17 175 54 381 54 528c0 29 -2 55 -5 79c-7 50 -27 72 -53 72c-99 0 -292 -299 -292 -526v-17
c2 -59 15 -128 28 -150c4 -6 6 -11 6 -15s-3 -6 -8 -6c-7 0 -20 6 -29 14c-29 26 -46 98 -46 178c0 26 2 53 6 80c43 293 220 494 354 494c87 0 156 -86 156 -288l-2 -59c-7 -98 -67 -594 -67 -653l1 -6c6 0 100 266 202 468c74 149 212 390 308 390c26 0 48 -17 66 -57
c12 -27 17 -68 17 -120s-5 -116 -17 -188c-18 -112 -36 -217 -36 -283c0 -44 7 -70 28 -70c41 0 131 101 309 373c96 148 285 359 359 401c11 6 23 9 35 9c32 0 64 -21 79 -57c6 -15 8 -33 8 -54c0 -92 -49 -229 -70 -296c-39 -120 -79 -260 -79 -378
c0 -119 40 -216 161 -254c24 -7 50 -11 77 -11c313 0 792 456 825 465c16 5 27 6 34 6c11 0 14 -3 14 -8c0 -8 -9 -19 -9 -19c-3 -3 -545 -485 -878 -485z" />
    <glyph glyph-name="N" unicode="N" horiz-adv-x="1760" 
d="M307 -250c-21 0 -42 14 -52 46c-9 25 -12 81 -12 153c0 213 29 572 29 710v16c0 106 -7 175 -46 175c-19 0 -45 -17 -83 -55c-100 -102 -110 -189 -110 -240l1 -31c0 -12 -2 -18 -8 -18c-5 0 -12 3 -16 6c-7 5 -10 19 -10 39c0 80 57 256 182 323c16 9 33 13 49 13
c62 0 119 -63 144 -165c10 -40 14 -106 14 -195c0 -50 -1 -107 -4 -170c0 -1 -24 -452 -25 -455l-1 -7l1 -3c12 0 148 417 325 695c130 205 221 275 281 275c64 0 91 -81 93 -162v-9c0 -141 -81 -413 -81 -603c0 -122 33 -211 142 -211c15 0 32 1 50 5
c211 40 575 375 617 394c11 5 22 8 32 8c13 0 23 -5 23 -12c0 -5 -6 -11 -19 -18c-51 -26 -396 -342 -610 -403c-24 -6 -50 -10 -77 -10c-130 0 -277 85 -277 331c0 91 6 134 40 302c16 79 28 162 28 222c0 52 -9 87 -33 87c-38 0 -111 -83 -240 -312
c-79 -140 -245 -553 -285 -669c-11 -32 -37 -52 -62 -52z" />
    <glyph glyph-name="O" unicode="O" horiz-adv-x="1112" 
d="M207 -233c-121 0 -207 144 -207 319c0 23 2 47 5 71c22 174 94 316 190 377l23 15l3 33c18 222 128 340 233 340c81 0 159 -71 188 -220c5 -27 8 -61 8 -102c0 -102 -18 -239 -63 -361c-4 -11 -7 -21 -7 -23c4 -3 113 -26 202 -30l43 -1c241 0 298 80 323 80
c2 0 4 0 6 -2c0 0 -25 -42 -91 -64c-93 -31 -176 -42 -251 -42c-89 0 -167 15 -241 31c-11 -7 -86 -250 -226 -364c-49 -40 -95 -57 -138 -57zM217 -177c56 0 135 77 216 223c27 50 69 144 69 154v1c-1 2 -9 6 -17 7c-42 8 -114 43 -151 74c-56 48 -81 108 -93 129
c-18 -42 -69 -104 -94 -306c-6 -43 -8 -81 -8 -114c0 -113 30 -168 78 -168zM513 226c5 12 3 -6 26 69c31 102 44 180 47 280v27c0 192 -60 284 -129 284c-73 0 -155 -104 -183 -303l-2 -18c15 2 14 3 29 3c34 0 79 -17 92 -38c6 -9 9 -18 9 -25c0 -6 -2 -11 -6 -15
s-7 -6 -11 -6c-6 0 -14 5 -29 17c-11 9 -16 12 -20 12c-2 0 -5 -1 -8 -3c-13 -9 -44 -36 -48 -44l-1 -6c0 -15 12 -50 32 -89c15 -30 24 -42 51 -67c63 -60 114 -64 151 -78z" />
    <glyph glyph-name="P" unicode="P" horiz-adv-x="1297" 
d="M109 -340c-6 0 -15 3 -29 8c-41 16 -53 38 -62 107c-2 17 -18 568 -18 889c0 120 2 208 8 225c4 11 19 20 36 20c14 0 36 -13 41 -24c30 -57 33 -628 39 -1028l9 48c137 743 341 1007 477 1007c85 0 144 -103 144 -255c0 -100 -25 -221 -84 -349l-13 -29l84 -3
c193 -7 326 -9 417 -9l130 1c42 0 56 -1 57 -8l1 -3c0 -16 -72 -18 -156 -18h-130c-58 0 -151 1 -419 12l-22 -34c-52 -80 -121 -159 -214 -159h-2c-73 0 -118 35 -118 77c0 35 30 74 100 101c19 8 113 30 125 30c3 0 39 64 54 96c36 79 74 358 75 421c0 58 -17 81 -42 81
c-47 0 -121 -81 -166 -171c-86 -171 -196 -469 -273 -854c-18 -87 -34 -163 -36 -169c-3 -6 -6 -10 -13 -10zM358 109c7 0 16 3 26 10c37 24 103 111 103 113h-1l-26 -4c-92 -19 -125 -64 -125 -93c0 -15 9 -26 23 -26z" />
    <glyph glyph-name="Q" unicode="Q" horiz-adv-x="933" 
d="M1246 -423c-36 0 -273 179 -350 222c-408 221 -388 223 -396 223c-9 0 -88 -271 -249 -271c-12 0 -24 2 -37 5c-132 33 -214 198 -214 407c0 124 29 263 93 399c12 26 14 32 14 76c2 149 73 290 190 290c8 0 16 -1 25 -2c156 -24 234 -251 234 -513
c0 -108 -13 -223 -40 -332c401 -257 591 -308 716 -468c13 -17 19 -27 19 -32c0 -3 -2 -4 -5 -4zM262 -185c10 0 22 4 34 12c89 56 148 222 153 232c-40 34 -138 93 -228 229c-12 20 -24 34 -26 34c-3 -6 -14 -131 -16 -183l-1 -44c0 -107 15 -280 84 -280zM467 124
c12 13 40 149 40 305c0 88 -9 183 -35 266c-44 143 -101 199 -152 199c-63 0 -117 -85 -127 -193l-1 -8c29 9 35 13 63 13c34 0 66 -12 75 -31c2 -3 2 -7 2 -10c0 -9 -7 -16 -17 -16h-8c-8 0 -11 -3 -19 -17c-27 -43 -63 -160 -66 -169c34 -83 63 -148 131 -232
c32 -41 102 -107 113 -107h1z" />
    <glyph glyph-name="R" unicode="R" horiz-adv-x="1379" 
d="M554 -232c-68 0 -137 52 -184 191c-17 52 -59 161 -74 194c-19 43 -44 57 -44 75c0 13 12 27 46 54c170 133 272 298 307 433c9 35 13 60 13 77c0 18 -5 26 -14 26c-24 0 -76 -59 -139 -145c-130 -179 -236 -419 -315 -709c-18 -64 2 -174 -49 -174c-4 0 -9 0 -14 2
c-70 22 -87 307 -87 582c0 262 16 514 17 522c5 25 22 34 41 34c23 0 49 -14 57 -32c33 -72 29 -659 32 -800c12 29 142 459 356 701c51 58 98 83 135 83c53 0 86 -52 86 -131c0 -98 -50 -237 -176 -373c-50 -53 -92 -86 -167 -129c-31 -18 -57 -33 -57 -34s12 -15 26 -32
c109 -128 103 -389 210 -389c36 0 85 30 156 106c307 326 584 369 675 369c19 0 30 -1 32 -3c5 -4 8 -7 8 -9c0 -8 -33 -9 -92 -18c-337 -52 -580 -372 -700 -445c-27 -16 -56 -26 -85 -26z" />
    <glyph glyph-name="S" unicode="S" horiz-adv-x="1078" 
d="M220 -230c-116 0 -220 65 -220 156c0 30 11 63 37 97c89 116 245 143 248 152c0 0 -14 22 -33 47c-113 156 -167 254 -190 349c-8 30 -11 59 -11 86c0 119 66 212 147 247c34 15 64 21 91 21c74 0 118 -47 118 -82c0 -13 -1 -18 -6 -20l-5 -1c-8 0 -14 7 -17 18
c-6 26 -30 40 -60 40c-63 0 -151 -61 -151 -200c0 -100 46 -242 181 -431c31 -42 36 -49 44 -49h5c302 54 230 51 452 54c223 4 242 5 256 5c15 0 26 -1 31 -5c5 -3 9 -6 9 -8c0 -9 -36 -15 -455 -29c-144 -5 -277 -45 -279 -45c-1 0 -1 -1 -1 -2c0 -14 69 -97 69 -191
c0 -45 -17 -93 -65 -137c-57 -51 -127 -72 -195 -72zM183 -165c13 0 28 2 44 7c79 26 128 84 128 161c0 37 -12 79 -37 124l-10 18c-8 -4 -144 -40 -201 -142c-9 -16 -14 -38 -14 -61c0 -52 26 -107 90 -107z" />
    <glyph glyph-name="T" unicode="T" horiz-adv-x="1155" 
d="M169 671c17 0 38 2 61 6c15 3 33 7 54 12s39 9 56 14c16 5 25 8 27 9c-1 3 -11 13 -32 30s-47 35 -78 52s-62 26 -92 26c-7 0 -14 -1 -21 -2c-25 -6 -44 -17 -58 -32c-14 -16 -21 -33 -21 -50s8 -32 25 -45c16 -13 42 -20 79 -20zM623 280v1c0 2 1 26 4 73
c3 67 11 198 22 391h-1l-1 -1c-4 -1 -12 -3 -25 -7c-19 -5 -40 -11 -63 -18c-24 -7 -45 -13 -63 -18c-19 -5 -29 -9 -31 -10c0 -1 1 -4 4 -8s6 -9 10 -15c47 -70 81 -141 102 -212s33 -123 37 -156c2 -13 4 -20 5 -20zM648 793l3 1c0 3 0 9 1 18c1 17 3 38 5 65
c2 26 5 50 9 73s9 37 16 44c3 2 7 3 12 4s11 1 18 1c8 0 16 -1 23 -2s12 -3 15 -6c2 -2 4 -5 5 -8s2 -8 3 -15v-32l-1 -116l42 12c35 11 76 23 124 36c47 13 97 24 150 34c52 9 101 14 148 14c35 0 66 -4 95 -11c43 -12 74 -27 93 -46c18 -19 27 -35 27 -46
c0 -8 -3 -13 -10 -14h-1c-5 0 -12 3 -23 8s-21 10 -30 16c-10 6 -17 11 -21 15c-9 12 -24 21 -43 26c-20 5 -43 7 -69 7c-47 0 -99 -6 -158 -17c-59 -12 -114 -25 -167 -39s-96 -26 -128 -36c-11 -3 -21 -6 -28 -8c-13 -280 -22 -489 -27 -628c-3 -89 -6 -158 -8 -207
c-3 -49 -5 -83 -8 -103c-3 -21 -8 -33 -13 -37c-3 -3 -10 -5 -19 -6c-10 -1 -20 -2 -29 -2s-17 1 -22 2c-11 3 -20 8 -25 15s-9 18 -10 33c-2 15 -4 36 -5 65c0 62 -11 185 -34 368c-15 92 -38 176 -69 252s-59 125 -82 146c-1 1 -3 2 -6 2c-7 0 -19 -3 -37 -8
c-74 -21 -136 -31 -187 -31c-19 0 -36 2 -51 5c-43 11 -75 27 -95 48c-21 21 -31 44 -31 68c0 25 10 47 31 68c20 20 49 33 88 40c11 2 22 3 33 3c44 0 86 -10 125 -29c39 -20 72 -40 99 -61c26 -21 43 -36 50 -43l2 -2l223 66l-1 -1h-1z" />
    <glyph glyph-name="U" unicode="U" horiz-adv-x="1508" 
d="M968 -253c-17 0 -33 2 -48 7c-170 50 -206 303 -206 524c0 161 19 304 19 339c0 5 0 8 -1 8l-2 -2c-28 -53 -181 -529 -322 -705c-72 -89 -135 -128 -188 -128c-143 0 -220 276 -220 623c0 113 8 234 25 356c11 79 23 124 35 135c5 4 16 6 28 6c31 0 73 -11 78 -25
c0 0 -13 -188 -13 -401c0 -282 23 -609 126 -609c60 0 148 110 274 401c39 90 189 446 209 542c17 80 30 110 55 110c7 0 15 -3 24 -7c17 -7 24 -22 24 -43c0 -50 -49 -378 -49 -663c0 -141 12 -272 48 -353c23 -53 58 -73 100 -73c80 0 183 76 266 148
c243 211 277 345 326 345c3 0 7 -3 10 -7l1 -3c0 -48 -353 -525 -599 -525z" />
    <glyph glyph-name="V" unicode="V" horiz-adv-x="1416" 
d="M369 -216h-8c-95 0 -137 149 -172 256c-65 199 -150 554 -179 760c-6 44 -10 70 -10 85c0 19 6 21 19 21h8c24 0 48 -14 59 -33c28 -48 109 -486 196 -774c38 -124 54 -201 73 -201s41 75 90 253c111 404 105 429 125 496c2 4 3 24 4 43c3 126 28 219 58 219
c13 0 38 -12 42 -20v-3c0 -10 -5 -41 -13 -74c-14 -56 -20 -94 -20 -135c0 -25 3 -51 7 -83c38 -269 168 -353 387 -353c62 0 131 7 208 18c24 3 113 16 173 16c35 0 60 -4 60 -16c0 -6 -5 -13 -17 -22l-7 -5c-3 0 -7 6 -42 6c-26 0 -69 -3 -140 -13
c-86 -13 -161 -19 -225 -19c-288 0 -376 123 -450 328c-160 -720 -190 -750 -226 -750z" />
    <glyph glyph-name="W" unicode="W" horiz-adv-x="1723" 
d="M670 -267c-141 0 -215 247 -215 485v4c1 66 10 142 10 182c0 17 -2 27 -7 27c-13 0 -49 -77 -136 -306c-40 -105 -76 -184 -96 -207c-16 -19 -32 -28 -51 -28c-10 0 -21 2 -34 7c-102 37 -132 206 -140 315c-1 11 -1 24 -1 39c0 102 16 292 39 443c22 146 34 175 76 175
c22 0 52 -14 58 -27c1 -2 1 -7 1 -14c0 -81 -48 -465 -48 -695c0 -103 9 -175 38 -175c25 0 66 59 129 209c49 116 131 288 150 314c13 18 27 25 41 25c27 0 51 -27 61 -52c10 -23 19 -681 149 -681c54 0 130 114 235 437l16 50c-4 14 -52 76 -52 205c0 52 8 114 30 189
c25 85 114 307 192 307c10 0 21 -4 31 -14c11 -10 24 -32 24 -89c0 -47 -10 -119 -37 -229c-41 -164 -91 -353 -91 -354c43 -58 86 -109 175 -135c52 -15 100 -21 145 -21c212 0 342 140 388 140c4 0 8 -2 11 -5s4 -4 4 -5c0 -2 -4 -3 -11 -9c-160 -115 -298 -154 -411 -154
c-175 0 -287 93 -321 132c-44 -140 -160 -406 -282 -467c-25 -13 -48 -18 -70 -18zM970 346c3 0 9 20 38 120c80 280 107 401 107 438c0 9 -2 13 -5 13c-20 0 -105 -208 -105 -209c-6 -6 -51 -138 -51 -251l1 -23c2 -34 9 -79 14 -86z" />
    <glyph glyph-name="X" unicode="X" horiz-adv-x="1454" 
d="M20 -267c-13 0 -20 11 -20 32c0 56 46 182 143 356c36 66 66 121 66 123c0 1 -180 362 -190 535l-1 24c0 13 2 16 10 25c10 11 24 17 39 17c27 0 57 -17 70 -46c10 -19 136 -398 155 -419c17 0 269 462 360 509c7 4 16 5 24 5c20 0 41 -8 50 -22v-1
c0 -33 -378 -597 -378 -615c0 -5 42 -83 70 -132c102 -174 227 -236 355 -236c320 0 661 385 718 394h7c13 0 26 -4 26 -11c0 -18 -362 -301 -491 -362c-98 -47 -187 -65 -266 -65c-313 0 -478 292 -491 292c-20 -2 -166 -341 -207 -376c-21 -19 -38 -27 -49 -27z" />
    <glyph glyph-name="Y" unicode="Y" horiz-adv-x="1128" 
d="M443 -264c-94 0 -160 68 -160 157c0 21 4 42 11 64c51 156 192 242 377 280c11 2 14 72 14 160c0 152 -10 356 -10 357c-70 -131 -220 -426 -356 -513c-41 -27 -78 -39 -111 -39c-146 0 -208 239 -208 468c0 37 2 74 5 110c7 84 14 119 26 131c7 7 19 11 31 11
c18 0 38 -7 50 -20l11 -11v-197c0 -254 10 -443 96 -443c38 0 91 36 165 120c61 68 287 425 297 480c3 16 7 34 10 40c10 22 31 35 53 35c6 0 13 -1 20 -4c32 -11 40 -177 40 -340s-8 -323 -8 -323l357 5c11 0 30 -9 30 -17c0 -1 -1 -3 -3 -4c-22 -14 -348 -16 -386 -28
c-11 -4 -8 -274 -185 -415c-59 -45 -116 -64 -166 -64zM444 -181c69 0 159 66 206 239c10 35 24 118 24 130v2h-1c-12 0 -171 -30 -264 -139c-42 -50 -60 -96 -60 -134c0 -59 41 -98 95 -98z" />
    <glyph glyph-name="Z" unicode="Z" horiz-adv-x="1602" 
d="M74 -263c-11 0 -21 2 -31 5c-28 9 -43 33 -43 62c0 79 100 203 305 227c38 53 83 98 301 444c205 329 231 349 256 393v2c0 2 -1 2 -7 2l-20 -1c-124 -12 -384 -1 -598 -33c-41 -6 -63 -9 -76 -9c-7 0 -11 1 -13 3c-3 3 -5 6 -5 8c0 3 4 6 12 9c135 51 646 31 735 57
c7 2 13 3 20 3c21 0 38 -11 38 -29c0 -44 -148 -311 -324 -585c-166 -260 -202 -280 -202 -290c0 -2 20 -8 99 -48c163 -83 303 -141 442 -141c108 0 216 35 333 118c265 188 298 327 326 337c3 1 6 1 10 1c8 0 16 -2 18 -6c0 -11 -112 -191 -304 -334
c-143 -106 -275 -144 -396 -144c-214 0 -398 117 -557 186c-70 -74 -212 -237 -319 -237zM67 -202c5 0 12 3 22 10c80 55 183 179 183 182h-1c-4 0 -16 -2 -28 -4c-96 -24 -183 -146 -183 -179c0 -6 2 -9 7 -9z" />
    <glyph glyph-name="bracketleft" unicode="[" horiz-adv-x="404" 
d="M149 -129l-42 1c-48 1 -67 156 -67 351c0 335 55 788 113 788c0 0 219 -9 234 -23c11 -6 17 -15 17 -24c0 -14 -17 -27 -60 -27c0 0 -83 -1 -141 -4v-11c0 -83 -49 -376 -49 -815c0 -48 1 -98 2 -150c116 -21 139 -1 168 -23c7 -5 16 -17 16 -27c0 -31 -123 -36 -191 -36
z" />
    <glyph glyph-name="backslash" unicode="\" horiz-adv-x="603" 
d="M534 -171c-15 0 -27 7 -33 20c-377 926 -461 1003 -461 1108c0 12 10 24 22 24c3 0 7 -1 10 -3c101 -70 531 -1045 531 -1081c0 -42 -38 -68 -69 -68z" />
    <glyph glyph-name="bracketright" unicode="]" horiz-adv-x="404" 
d="M296 -129c-69 0 -192 5 -192 36c0 10 9 22 16 27c29 22 52 2 168 23c2 52 2 102 2 150c0 439 -49 732 -49 815v11c-58 3 -141 4 -141 4c-43 0 -60 13 -60 27c0 9 6 18 17 24c15 14 234 23 234 23c58 0 113 -453 113 -788c0 -195 -18 -350 -67 -351z" />
    <glyph glyph-name="asciicircum" unicode="^" horiz-adv-x="503" 
d="M475 193c-32 0 -143 113 -166 141c-116 -93 -246 -138 -252 -138c-8 0 -17 8 -17 16c0 3 236 232 262 232c54 0 201 -202 201 -222c0 -19 -18 -29 -28 -29z" />
    <glyph glyph-name="underscore" unicode="_" horiz-adv-x="455" 
d="M427 -6h-320c-29 0 -67 8 -67 36c0 15 163 54 284 54c73 0 131 -14 131 -55c0 -17 -9 -35 -28 -35z" />
    <glyph glyph-name="grave" unicode="`" horiz-adv-x="497" 
d="M475 587c-10 0 -435 136 -435 204c0 29 26 65 72 65c39 0 385 -227 385 -253c0 -9 -6 -16 -22 -16z" />
    <glyph glyph-name="a" unicode="a" horiz-adv-x="1234" 
d="M531 -52c-25 0 -46 2 -61 6c-76 19 -119 85 -127 192l-3 37c-56 -71 -103 -128 -150 -161c-35 -23 -64 -34 -100 -34l-14 1c-48 2 -71 12 -100 43c-17 18 -24 29 -30 50c-5 18 -8 36 -8 55c0 33 8 67 24 99c49 96 132 171 227 202c41 13 84 20 123 20c40 0 76 -7 103 -20
c50 -24 86 -82 86 -132l-1 -13c-2 -14 -3 -17 -15 -20c-15 -4 -14 -4 -23 -50c-8 -45 -11 -81 -11 -111c0 -33 4 -59 14 -80c14 -33 31 -46 68 -50l18 -1c67 0 205 30 292 65c87 34 234 116 317 175c32 24 75 48 90 51l4 1c9 0 19 -6 19 -10c0 -1 0 -2 -2 -3
c-3 -1 -17 -11 -30 -22c-38 -30 -154 -106 -213 -139c-128 -71 -217 -105 -360 -136c-45 -9 -95 -15 -137 -15zM90 39c27 15 40 20 86 60c38 34 57 55 101 108c11 14 35 40 52 58c17 17 34 38 39 46c11 18 30 31 52 35l17 3c-30 32 -50 53 -89 53h-3
c-89 0 -184 -74 -240 -185c-22 -43 -34 -85 -34 -118c0 -20 5 -38 13 -51z" />
    <glyph glyph-name="b" unicode="b" horiz-adv-x="1111" 
d="M16 -286c-120 0 -212 69 -212 150c0 44 28 92 92 134c20 13 26 17 26 21c0 2 -1 4 -3 7c-11 17 -23 263 -23 428c0 39 0 74 2 100c11 187 39 304 104 439c82 172 187 242 278 242c120 0 219 -120 219 -290c0 -34 -4 -69 -12 -105c-22 -102 -69 -195 -157 -311
c-149 -199 -288 -274 -293 -277c2 -38 5 -151 8 -157l1 -1c13 0 71 147 212 237c36 23 70 34 100 34c68 0 113 -56 113 -150c0 -12 -1 -24 -2 -37l-7 -46l-2 -4c0 -1 1 -1 5 -1c11 0 40 3 119 11c355 38 415 114 458 141c5 3 10 5 13 5c6 0 9 -5 9 -10c0 -3 -1 -7 -3 -9
c-33 -39 -116 -82 -231 -112c-64 -16 -316 -55 -361 -55c-15 0 -16 0 -22 -20c-19 -58 -74 -150 -123 -206c-100 -115 -213 -158 -308 -158zM71 71c11 0 71 21 241 42c33 4 23 -5 34 25c18 53 34 110 34 149c0 30 -9 49 -34 49c-10 0 -23 -3 -39 -10
c-118 -54 -236 -250 -236 -255zM39 278l57 43c40 32 142 135 182 186c92 115 154 230 173 321c7 30 10 61 10 91c0 144 -71 270 -161 270c-43 0 -89 -28 -135 -95c-102 -149 -133 -415 -133 -636c0 -65 3 -127 7 -180zM-21 -236c17 0 36 4 55 11c194 76 280 295 290 310
c-44 -7 -256 -34 -282 -68c-12 -14 -31 -22 -54 -22c-25 0 -44 -11 -78 -43c-27 -25 -39 -55 -39 -84c0 -55 44 -104 108 -104z" />
    <glyph glyph-name="c" unicode="c" horiz-adv-x="927" 
d="M225 -2c-20 0 -40 2 -58 6c-125 26 -173 113 -173 207c0 75 30 154 76 211c39 48 98 75 152 75c49 0 95 -22 118 -70c11 -23 17 -50 17 -72c0 -17 -4 -31 -12 -35c-3 -1 -6 -2 -9 -2c-10 0 -17 8 -19 21c-10 52 -32 94 -57 110c-5 3 -10 4 -15 4
c-48 0 -103 -129 -108 -238l-1 -23c0 -101 38 -152 136 -152c39 0 87 8 146 24c131 37 315 116 429 168c67 30 101 41 113 41c3 0 5 0 5 -2c0 -3 -4 -7 -11 -12c-39 -33 -336 -159 -500 -215c-63 -21 -151 -46 -229 -46z" />
    <glyph glyph-name="d" unicode="d" horiz-adv-x="1506" 
d="M750 -151c-117 0 -216 55 -296 212c-17 34 -52 204 -52 204s-92 -107 -137 -149c-67 -64 -127 -87 -176 -87c-63 0 -107 38 -122 81c-6 17 -9 34 -9 51c0 107 102 221 189 263c40 20 84 29 126 29c41 0 81 -9 113 -24c12 -6 22 -10 25 -10h1c0 246 115 713 354 753
c9 2 18 2 27 2c87 0 144 -76 144 -190c0 -110 -54 -256 -187 -403c-74 -83 -186 -183 -189 -186c-3 -31 -10 -83 -10 -144c0 -70 10 -152 49 -228c48 -91 123 -126 209 -126c287 0 704 386 705 386c16 0 26 -10 31 -12c-104 -95 -326 -286 -555 -369
c-87 -32 -167 -53 -240 -53zM567 449c128 111 275 280 310 443c6 27 8 53 8 77c0 89 -33 158 -81 158c-45 0 -103 -61 -160 -223c-55 -153 -65 -327 -77 -455zM111 108c6 0 15 4 26 11c88 57 120 108 265 223c-2 16 -19 55 -78 55c-85 -2 -169 -104 -208 -183
c-10 -20 -21 -56 -21 -80c0 -15 4 -26 16 -26z" />
    <glyph glyph-name="e" unicode="e" horiz-adv-x="1149" 
d="M407 -9c-49 0 -99 3 -150 11c-180 27 -257 137 -257 249c0 127 97 257 252 278l27 2c72 0 150 -37 150 -106c0 -27 -12 -59 -41 -96c-63 -79 -147 -93 -199 -93c-29 0 -48 4 -50 4v-6c0 -16 2 -66 26 -107c44 -75 163 -96 271 -96c37 0 73 2 104 6
c359 41 646 243 647 244s3 2 5 2c4 0 8 -4 8 -11c0 -8 -7 -20 -29 -33c-59 -35 -376 -248 -764 -248zM186 262c70 0 144 44 166 121c5 16 7 30 7 41c0 33 -17 48 -42 48c-55 0 -146 -72 -176 -196l-1 -5c0 -8 8 -9 41 -9h5z" />
    <glyph glyph-name="f" unicode="f" horiz-adv-x="1124" 
d="M-154 -701c-12 0 -25 4 -40 11c-95 48 -106 348 -112 348c-28 -9 -44 -32 -95 -33c-47 0 -73 18 -73 46c0 9 3 19 8 29c23 44 118 114 155 114h3c12 0 6 7 34 205c51 358 81 405 142 405h8c34 -2 45 -12 45 -42c0 -53 -55 -484 -55 -494c4 0 136 126 262 203
c230 143 488 179 654 179c105 0 173 -14 173 -25c0 -5 -20 -6 -53 -6h-60c-95 0 -237 -4 -370 -44c-337 -102 -613 -382 -617 -409l-1 -9c0 -9 4 -13 21 -30c49 -50 75 -125 75 -206c0 -14 0 -28 -2 -42c-12 -90 -34 -200 -102 -200zM-402 -337c18 0 87 55 100 64
c-1 7 0 48 -3 48c-8 0 -101 -69 -101 -108c0 -3 1 -4 4 -4zM-147 -616c3 0 8 8 13 27c14 45 26 103 26 157c0 30 -4 58 -12 81c-18 49 -26 55 -30 63c-3 -58 -7 -156 -7 -229c0 -57 2 -99 10 -99z" />
    <glyph glyph-name="g" unicode="g" horiz-adv-x="1134" 
d="M3 -758c-133 0 -209 100 -209 231c0 70 21 147 67 223c73 121 222 246 398 335c44 23 52 27 52 35l-1 4c-3 16 -14 146 -18 151c-10 0 -105 -134 -195 -159c-16 -5 -32 -7 -49 -7c-61 0 -124 32 -146 91c-7 19 -11 39 -11 58c0 133 159 254 312 254
c78 0 155 -32 208 -112c10 -15 15 -26 15 -34c0 -9 -6 -14 -17 -19v-2c0 -12 8 -77 13 -144c2 -34 4 -41 7 -41h2c261 98 448 139 639 157c5 0 13 -4 13 -10c0 -1 -1 -3 -3 -5c-16 -15 -297 -34 -607 -165l-44 -15c-4 -50 5 -324 -72 -530c-58 -157 -157 -257 -281 -287
c-26 -6 -50 -9 -73 -9zM-11 -717c18 0 38 4 59 11c81 29 158 114 199 223c60 159 65 395 65 476v28c-158 -97 -336 -190 -425 -377c-25 -52 -37 -110 -37 -164c0 -106 47 -197 139 -197zM70 133c5 0 12 2 20 6c71 37 129 133 234 230c-36 19 -57 28 -89 28
c-116 0 -189 -151 -189 -225c0 -23 7 -39 24 -39z" />
    <glyph glyph-name="h" unicode="h" horiz-adv-x="1259" 
d="M582 -88c-78 0 -151 52 -151 199c0 19 1 39 4 61c7 64 13 106 13 130c0 16 -3 24 -10 24c-11 0 -35 -21 -76 -58c-75 -67 -166 -168 -205 -228c-18 -29 -43 -40 -68 -40c-35 0 -69 23 -79 46c-5 12 -10 73 -10 163c0 252 37 727 204 951c68 91 133 129 189 129
c107 0 180 -142 180 -326c0 -232 -117 -530 -430 -690c5 -132 4 -173 12 -173c5 0 12 13 26 30c70 87 217 247 306 247c23 0 42 -11 55 -37c8 -15 13 -36 13 -68c0 -38 -6 -91 -17 -172c-3 -23 -4 -43 -4 -60c0 -68 22 -95 61 -95c114 0 371 229 623 312c48 16 67 22 78 22
c5 0 8 -2 12 -4c5 -3 8 -5 8 -7c0 -15 -120 -20 -336 -155c-174 -108 -292 -175 -332 -189c-21 -7 -44 -12 -66 -12zM147 307c2 0 17 9 33 21c254 174 340 421 340 611c0 164 -64 287 -139 287c-91 0 -199 -183 -229 -700c-5 -81 -7 -150 -7 -188c0 -20 1 -31 2 -31z" />
    <glyph glyph-name="i" unicode="i" horiz-adv-x="1096" 
d="M96 475c-14 0 -29 3 -45 11c-38 19 -52 42 -52 65c0 42 52 82 99 82c33 0 64 -21 70 -75l1 -10c0 -40 -30 -73 -73 -73zM184 -127c-19 0 -38 3 -56 9c-110 37 -144 144 -144 260c0 46 5 93 13 138c11 64 18 84 33 98c9 8 23 12 38 12c24 0 50 -9 63 -27c5 -6 8 -16 8 -38
c0 -21 -3 -53 -8 -105c-5 -55 -7 -101 -7 -139c0 -115 23 -158 70 -158c125 0 418 299 899 336l11 1c20 0 34 -7 34 -15c0 -9 -21 -21 -78 -26c-198 -17 -522 -185 -665 -266c-67 -38 -139 -80 -211 -80z" />
    <glyph glyph-name="j" unicode="j" horiz-adv-x="761" 
d="M-929 -611c-104 0 -183 60 -183 168c0 98 64 235 232 404c141 140 324 204 325 205v324c11 10 16 16 39 16c24 0 53 -10 66 -36c14 -30 29 -143 29 -223v-17c0 -15 1 -20 10 -20c27 0 130 55 517 58c129 0 142 0 151 -7c8 -4 11 -8 11 -11c0 -2 -2 -4 -5 -5
c-16 -7 -297 1 -477 -29c-57 -9 -201 -42 -206 -46c-6 -6 -3 -142 -33 -280c-53 -236 -200 -427 -375 -484c-35 -11 -69 -17 -101 -17zM-947 -568c21 0 46 6 73 17c287 121 317 516 317 636c0 21 -1 34 -2 34c-81 0 -450 -254 -499 -526c-2 -12 -3 -23 -3 -34
c0 -71 42 -127 114 -127zM-508 584c-9 0 -19 1 -29 4c-43 12 -63 43 -63 73c0 33 24 64 67 64c62 0 91 -39 91 -76c0 -34 -23 -65 -66 -65z" />
    <glyph glyph-name="k" unicode="k" horiz-adv-x="1607" 
d="M106 -103c-9 0 -18 2 -26 5c-20 9 -39 25 -46 38c-9 18 -42 211 -42 445c0 212 27 458 122 638c80 151 185 220 273 220c98 0 175 -84 175 -231c0 -56 -11 -120 -36 -193c-59 -171 -202 -382 -338 -497l-21 -17v-94c0 -67 0 -145 2 -146c2 0 39 53 39 72v4
c0 19 18 12 59 71c79 111 186 226 249 266c19 13 37 19 54 19s32 -7 43 -21c7 -9 10 -21 10 -34c0 -64 -80 -168 -194 -243c-56 -37 -118 -65 -118 -68c0 -9 221 -175 505 -175c45 0 92 4 140 14c194 39 616 273 651 296c18 13 30 18 42 18c5 0 10 -1 16 -3
c8 -3 12 -7 12 -11c0 -6 -7 -12 -21 -19c-298 -156 -475 -274 -695 -327c-52 -13 -103 -18 -154 -18c-301 0 -556 195 -564 195c-20 -12 -79 -142 -79 -149c0 -36 -29 -55 -58 -55zM331 223c2 0 19 8 37 18c129 72 204 179 204 212c0 6 -2 10 -8 10c-22 0 -85 -49 -197 -189
c-20 -27 -36 -48 -36 -51zM171 350c12 10 24 16 73 70c123 141 265 384 265 578c0 16 -1 32 -3 47c-12 94 -45 146 -87 146c-68 0 -158 -141 -209 -462c-35 -214 -38 -378 -39 -379z" />
    <glyph glyph-name="l" unicode="l" horiz-adv-x="1255" 
d="M462 -309c-101 0 -200 39 -293 134c-125 126 -175 307 -175 490c0 98 14 197 40 288c100 356 289 508 431 508c102 0 179 -79 179 -218c0 -28 -1 -59 -10 -92c-56 -214 -238 -417 -486 -540c1 -1 8 -192 57 -309c65 -154 154 -213 260 -213c65 0 137 23 214 60
c269 129 601 490 602 490c4 4 12 5 19 5c14 0 28 -5 28 -11c0 -2 -1 -3 -3 -5c-37 -42 -64 -71 -278 -268c-189 -174 -391 -319 -585 -319zM147 291c39 0 339 206 415 436c21 63 30 120 30 169c0 103 -41 168 -102 168c-74 0 -175 -94 -266 -332c-64 -165 -78 -358 -78 -422
c0 -12 0 -19 1 -19z" />
    <glyph glyph-name="m" unicode="m" horiz-adv-x="2077" 
d="M1199 -80c-100 0 -186 23 -245 83c-43 42 -57 100 -57 159c0 119 56 247 56 285c0 7 -2 11 -7 11c-10 0 -32 -17 -74 -58c-107 -105 -217 -316 -281 -341c-13 -5 -26 -7 -38 -7c-68 0 -118 74 -118 203c0 25 2 51 6 80c2 13 3 23 3 31c0 14 -3 21 -9 21
c-40 0 -207 -330 -270 -434c-13 -23 -27 -33 -49 -33c-6 0 -13 1 -20 2c-87 16 -108 127 -108 227c0 23 1 45 3 66c4 53 24 268 74 285c6 2 13 3 21 3c22 0 46 -9 60 -24c5 -6 8 -12 8 -32c0 -18 -2 -47 -6 -98c-9 -131 -15 -216 -15 -265c0 -39 4 -56 11 -56
c16 0 51 71 110 167c63 101 178 280 255 280c20 0 37 -11 50 -38c6 -11 8 -33 8 -60c0 -68 -13 -166 -16 -196l-1 -29c0 -28 4 -41 15 -41c13 0 36 22 70 60c83 97 243 335 351 335c10 0 19 -2 28 -6c31 -14 41 -54 41 -100c0 -50 -12 -106 -20 -143
c-13 -62 -20 -111 -20 -149c0 -129 71 -144 188 -144c320 1 577 139 857 297c28 16 49 21 63 21c22 0 29 -12 29 -15c0 -2 -574 -347 -953 -347z" />
    <glyph glyph-name="n" unicode="n" horiz-adv-x="1506" 
d="M597 -70c-18 0 -36 3 -54 9c-102 32 -140 141 -140 254c0 44 6 88 16 129c8 32 11 54 11 69s-4 22 -10 22c-31 0 -123 -146 -187 -262c-38 -70 -68 -111 -92 -122c-16 -8 -30 -12 -42 -12c-76 0 -99 138 -99 245c0 122 5 153 24 170c7 6 17 9 27 9c22 0 46 -12 53 -29
c31 -73 12 -331 25 -331c19 7 120 184 192 277c79 102 141 139 184 139c39 0 63 -29 71 -68c2 -11 3 -23 3 -36c0 -96 -58 -231 -58 -326c0 -31 7 -58 24 -78c13 -15 30 -22 50 -22c137 0 437 311 927 311c14 0 30 -10 30 -17c0 -1 0 -2 -1 -3c-35 -34 -293 28 -722 -229
c-77 -47 -153 -99 -232 -99z" />
    <glyph glyph-name="o" unicode="o" horiz-adv-x="1070" 
d="M160 -166c-83 0 -170 117 -170 326c0 77 11 166 39 267c27 94 77 131 131 131c73 0 153 -70 188 -158c17 -44 22 -96 22 -140s-5 -79 -5 -84c59 -23 127 -32 198 -32c250 0 533 111 533 124c10 0 20 -6 20 -14l-1 -4c-10 -20 -288 -134 -563 -134c-67 0 -133 7 -195 23
c-8 -23 -41 -177 -117 -264c-24 -27 -52 -41 -80 -41zM265 186c5 1 12 39 12 87c0 46 -6 102 -26 147c-26 59 -46 84 -61 84c-25 0 -38 -67 -49 -159c-3 -24 -4 -37 -4 -47c0 -33 41 -73 71 -90c16 -10 49 -22 56 -22h1zM158 -72c23 0 58 79 105 226l-21 7
c-69 20 -112 62 -113 63l-1 -44v-43c0 -142 10 -209 30 -209z" />
    <glyph glyph-name="p" unicode="p" horiz-adv-x="1207" 
d="M50 -356c-17 0 -38 6 -47 17c-13 16 -19 130 -19 270c0 254 18 597 37 618c5 6 16 8 29 8s28 -2 39 -8c28 -12 31 -34 31 -139v-264l19 55c44 133 125 314 225 314c22 0 45 -9 69 -29c27 -23 37 -72 37 -116c0 -23 -3 -46 -7 -62l26 -1l23 1c37 0 90 -3 278 -30
c80 -12 157 -15 225 -15c76 0 139 4 182 4c35 0 56 -3 56 -13c0 -3 -3 -8 -8 -13c-6 -6 -114 -12 -222 -12h-26c-77 0 -99 3 -297 32c-106 14 -138 9 -243 11l-12 -36c-43 -125 -119 -209 -192 -211h-2c-54 0 -88 29 -88 72l1 14c8 68 105 153 208 183c21 6 24 38 24 67
l-1 32c0 63 -12 90 -31 90c-24 0 -60 -40 -100 -105c-49 -79 -99 -214 -138 -373c-32 -128 -11 -308 -50 -354c-4 -5 -14 -7 -26 -7zM236 64c39 0 138 148 138 180c0 2 -1 4 -2 5h-1c-7 0 -44 -20 -67 -37c-51 -35 -84 -85 -84 -121c0 -5 1 -11 3 -16c3 -8 7 -11 13 -11z
" />
    <glyph glyph-name="q" unicode="q" horiz-adv-x="1274" 
d="M466 -657c-77 0 -93 145 -93 272c0 89 8 169 8 183v2l-2 1c-15 0 -102 -40 -139 -65c-10 -6 -22 -11 -26 -11c-9 0 -34 14 -34 19c0 9 120 101 174 134c22 12 40 23 40 23c3 2 53 388 53 401c0 1 -1 1 -2 1c-17 0 -142 -244 -291 -244c-101 0 -160 70 -160 155
c0 53 23 112 75 164c67 68 154 89 228 89c79 0 146 -23 163 -37c4 -3 8 -5 12 -5l4 1c5 3 10 5 15 5c33 0 56 -66 56 -96c0 -91 -37 -351 -37 -363v-1c7 0 350 210 681 287c44 10 78 15 103 15c26 0 43 -5 54 -15c4 -4 6 -7 6 -9c0 -6 -13 -9 -41 -11
c-123 -9 -487 -121 -800 -314c-12 -8 -13 -9 -18 -51c-2 -24 -5 -47 -6 -51v-3c0 -24 98 -26 118 -189c1 -11 2 -22 2 -33c0 -91 -40 -204 -86 -234c-22 -14 -40 -20 -57 -20zM166 147c24 0 64 23 122 83c69 71 139 147 139 152c0 7 -28 16 -50 16
c-151 -1 -240 -144 -240 -214c0 -22 9 -37 29 -37zM377 -168c8 0 10 2 10 8c0 4 0 6 -2 6l-8 -4l-10 -8c0 -1 5 -2 10 -2zM497 -544c24 0 49 47 49 128c0 24 -3 51 -8 81c-13 69 -44 95 -53 109l-2 -14c-17 -81 -24 -144 -24 -191c0 -78 19 -113 38 -113z" />
    <glyph glyph-name="r" unicode="r" horiz-adv-x="1245" 
d="M217 -183c-97 0 -163 54 -163 158c0 22 3 46 9 72c28 116 49 153 49 164c0 4 -3 5 -9 5h-19c-134 3 -262 32 -262 206c0 19 2 39 5 61c19 133 107 192 181 192c48 0 91 -26 101 -75c3 -13 4 -28 4 -43c0 -77 -32 -177 -65 -234l-15 -23c66 -57 118 -21 164 -48
c21 -11 28 -34 28 -61c0 -46 -21 -104 -34 -141c-11 -30 -33 -118 -36 -138l-1 -13c0 -38 22 -52 56 -52c78 0 218 75 304 117c83 42 529 307 653 307c10 0 18 -2 23 -5c9 -5 13 -10 13 -15c0 -7 -11 -13 -29 -13c-148 -1 -673 -328 -806 -386c-55 -24 -106 -35 -151 -35z
M7 336l13 26c19 36 49 119 49 181l-1 13c-4 47 -18 75 -33 75s-31 -24 -43 -80c-4 -20 -6 -47 -6 -74c0 -43 5 -89 14 -120z" />
    <glyph glyph-name="s" unicode="s" horiz-adv-x="843" 
d="M-56 -155c-67 0 -126 43 -126 106c0 45 32 101 115 156l22 15c0 18 -74 173 -74 257c0 97 88 200 164 200c18 0 35 -6 50 -18c8 -7 11 -14 11 -20c0 -7 -6 -13 -16 -13c-5 0 -10 1 -16 4c-3 2 -6 2 -10 2c-25 0 -42 -50 -42 -78c0 -70 101 -244 101 -287h1
c4 0 19 5 123 10c468 27 498 87 529 87c5 0 10 -1 17 -5c5 -2 7 -5 7 -9c0 -29 -192 -87 -505 -98c-132 -6 -164 -15 -165 -15v-25c0 -35 -3 -101 -30 -160c-37 -78 -99 -109 -156 -109zM-93 -102c28 0 61 29 66 95l1 16c0 30 -6 71 -12 71c-5 0 -35 -26 -48 -41
c-32 -40 -44 -73 -44 -97c0 -28 17 -44 37 -44z" />
    <glyph glyph-name="t" unicode="t" horiz-adv-x="1072" 
d="M56 -106c-283 0 -303 448 -303 663l1 83l-1 23l-85 -2c-43 0 -90 3 -107 14c-6 4 -9 10 -9 14s2 8 6 9c11 4 190 2 200 12c6 6 18 245 74 273c7 3 15 5 24 5c25 0 53 -11 62 -25c5 -8 8 -28 8 -64c0 -23 -1 -53 -3 -91l-2 -78v-8l4 -1c15 0 77 12 195 28c16 2 41 5 65 5
c31 0 60 -6 60 -26c0 -29 -313 -37 -329 -52c0 -1 -14 -144 -14 -297c0 -63 3 -127 9 -184c19 -179 55 -257 147 -257c89 0 232 73 464 197c46 25 255 142 346 142c7 0 13 0 19 -2c17 -5 27 -16 27 -23c0 -6 -5 -10 -16 -10c-160 0 -545 -280 -759 -337
c-30 -8 -57 -11 -83 -11z" />
    <glyph glyph-name="u" unicode="u" horiz-adv-x="1358" 
d="M687 1c-78 0 -146 19 -192 66c-70 71 -75 192 -77 200c-1 0 -89 -115 -90 -117c-69 -89 -133 -125 -186 -125c-86 0 -142 95 -142 213c0 85 11 134 33 146c8 4 16 5 26 5c12 0 25 -2 38 -8c32 -14 34 -18 34 -121c1 -135 7 -190 35 -190c33 0 99 84 224 205
c20 21 24 26 27 44c9 58 30 91 62 96c5 1 11 1 16 1c28 0 55 -13 64 -32l2 -12c0 -35 -21 -123 -21 -194c0 -26 3 -49 10 -67c25 -62 73 -77 131 -77c38 0 81 6 124 11c190 20 583 233 583 233c8 -2 17 -8 21 -12c0 -8 -433 -265 -722 -265z" />
    <glyph glyph-name="v" unicode="v" horiz-adv-x="1086" 
d="M135 21c-31 0 -63 20 -68 24c-56 46 -103 244 -111 311c-1 12 -2 23 -2 32c0 36 12 47 43 48c20 0 48 -10 59 -22c21 -22 83 -234 97 -280c0 1 113 185 113 255v8c0 12 11 21 24 21h3c53 -11 18 -63 72 -109c60 -50 255 -70 426 -70c138 0 260 13 286 31
c11 8 22 11 31 11c17 0 29 -9 29 -18c0 -4 -2 -8 -7 -11c-60 -34 -221 -44 -355 -44c-66 0 -125 2 -162 6c-294 28 -298 91 -329 109l-91 -255c-12 -36 -35 -47 -58 -47z" />
    <glyph glyph-name="w" unicode="w" horiz-adv-x="1490" 
d="M523 -32c-78 0 -148 86 -163 246c-2 18 -3 24 -6 24l-2 -1c-25 -21 -124 -257 -220 -257c-43 0 -85 47 -120 181c-11 40 -16 96 -16 151c0 82 11 163 31 189c7 9 19 13 32 13c14 0 30 -5 42 -16c33 -28 20 -167 34 -296c12 -103 22 -139 36 -139c12 0 25 23 45 53
c38 61 108 180 150 180c60 0 73 -64 90 -122c17 -60 37 -141 72 -141c29 0 67 50 121 202l9 25c-51 49 -73 79 -73 135c0 78 64 145 116 145c31 0 58 -24 63 -84l1 -18c0 -73 -25 -183 -26 -189c20 -6 61 -30 205 -47c34 -4 68 -6 102 -6c220 0 430 76 480 76
c7 0 11 -1 11 -5v-1c0 -24 -258 -94 -509 -94c-107 0 -213 13 -297 48c-3 -18 -26 -70 -33 -86c-48 -113 -114 -166 -175 -166zM665 300c2 0 5 12 8 25c5 29 7 51 7 68c0 29 -6 42 -13 42c-9 0 -20 -25 -20 -66v-10c1 -27 11 -59 18 -59z" />
    <glyph glyph-name="x" unicode="x" horiz-adv-x="1186" 
d="M216 -20c-16 0 -31 2 -45 6c-131 35 -193 133 -203 133c-1 0 -12 -16 -24 -37c-23 -39 -59 -89 -92 -89c-10 0 -19 4 -28 14c-4 5 -6 11 -6 19c0 44 61 131 100 190c-29 97 -48 182 -48 263c0 23 18 32 40 32c24 0 54 -12 69 -29c20 -25 38 -116 38 -117l1 -1
c12 0 57 102 98 102c23 0 44 -12 44 -24c0 -13 -24 -58 -71 -129l-45 -68c41 -126 74 -224 174 -224c19 0 42 3 68 12c152 52 411 194 588 222c22 4 124 13 196 13c42 0 74 -3 74 -13c0 -2 -1 -4 -3 -6c-6 -6 -43 -10 -131 -16c-353 -22 -616 -253 -794 -253z" />
    <glyph glyph-name="y" unicode="y" horiz-adv-x="1253" 
d="M23 -834c-151 0 -277 111 -277 274c0 158 119 364 449 563c36 22 147 80 164 86c1 0 1 3 1 7c0 36 -22 186 -33 220l-1 1c-16 0 -142 -264 -280 -264c-81 0 -142 54 -166 147c-5 17 -7 43 -7 71c0 66 13 148 46 175c8 7 20 10 32 10c20 0 41 -7 52 -20c5 -5 6 -15 6 -28
c0 -34 -11 -90 -11 -148l1 -24c6 -96 26 -136 58 -136c59 0 154 131 269 300c9 14 18 21 29 21c9 0 19 -5 32 -15c18 -15 55 -93 91 -269c88 26 166 77 455 113c81 10 144 15 185 15c27 0 44 -2 51 -6c3 -2 5 -5 5 -8c0 -4 -3 -7 -7 -8c-63 -16 -256 20 -688 -144
c6 -33 12 -92 12 -166c0 -190 -38 -476 -205 -646c-83 -85 -177 -121 -263 -121zM-16 -781c18 0 37 3 57 10c111 39 197 136 261 298c57 144 68 311 68 417c0 65 -4 107 -4 109l-57 -32c-232 -124 -502 -327 -502 -570c0 -29 4 -59 13 -90c19 -67 76 -142 164 -142z" />
    <glyph glyph-name="z" unicode="z" horiz-adv-x="1267" 
d="M-58 -732c-131 0 -230 62 -230 185c0 42 12 91 37 147c90 199 406 354 588 440l20 9c-53 39 -87 52 -150 52c-49 0 -93 -12 -107 -23c-11 -8 -24 -12 -37 -12c-11 0 -21 3 -32 8c-15 7 -21 20 -21 38c0 91 164 297 164 304c-2 0 -278 -174 -306 -174h-2
c-10 7 -15 11 -15 15c0 2 1 4 3 6c12 14 227 164 355 205c17 5 34 8 50 8c33 0 59 -12 59 -39c0 -6 -1 -12 -4 -19c-29 -78 -158 -287 -158 -288h33c41 0 112 -4 180 -48l27 -17c1 1 552 199 738 199c25 0 43 -4 53 -12c0 -1 9 -5 9 -10s-10 -11 -53 -17
c-349 -42 -429 -87 -716 -184c66 -71 90 -146 90 -232c0 -146 -82 -297 -190 -388c-122 -103 -267 -153 -385 -153zM-92 -673c43 0 94 13 152 40c243 114 358 375 358 535c0 37 -6 68 -18 91c-9 17 -12 25 -22 25c-9 0 -24 -7 -56 -21c-395 -176 -552 -400 -552 -539
c0 -79 51 -131 138 -131z" />
    <glyph glyph-name="braceleft" unicode="{" horiz-adv-x="444" 
d="M291 -164c-251 0 -160 446 -201 541c-9 15 -17 34 -17 47c0 9 4 16 17 16c73 0 57 257 93 372c29 90 100 124 161 124c54 0 100 -27 100 -63c0 -9 -6 -12 -13 -12c-10 0 -36 23 -65 23c-23 0 -48 -16 -65 -74c-44 -165 -4 -317 -149 -407c86 -112 -4 -501 133 -501
c43 0 69 21 81 21c18 0 34 -19 34 -36c0 -29 -70 -51 -109 -51z" />
    <glyph glyph-name="bar" unicode="|" horiz-adv-x="198" 
d="M162 -171c-31 0 -80 26 -99 68c-5 12 -9 122 -9 267c0 305 16 767 63 814c2 2 6 3 9 3c11 0 27 -12 32 -24c17 -38 21 -73 21 -146c0 -72 -4 -183 -4 -375c0 -144 3 -334 11 -587v-2c0 -12 -10 -18 -24 -18z" />
    <glyph glyph-name="braceright" unicode="}" horiz-adv-x="444" 
d="M259 -164c-39 0 -109 22 -109 51c0 17 16 36 34 36c12 0 38 -21 81 -21c137 0 47 389 133 501c-145 90 -105 242 -149 407c-18 58 -42 74 -66 74c-28 0 -54 -23 -64 -23c-7 0 -13 3 -13 12c0 36 45 63 100 63c60 0 132 -34 161 -124c36 -115 20 -372 93 -372
c12 0 17 -7 17 -16c0 -13 -9 -32 -17 -47c-41 -95 50 -541 -201 -541z" />
    <glyph glyph-name="asciitilde" unicode="~" horiz-adv-x="739" 
d="M572 174c-112 0 -251 117 -352 117c-110 0 -126 -75 -151 -91l-6 -2c-10 0 -23 10 -23 31c0 44 82 131 213 131c140 0 237 -102 319 -102c41 0 79 26 116 101c3 7 10 10 17 10c15 0 34 -13 34 -37c0 -62 -58 -158 -167 -158z" />
    <glyph glyph-name="exclamdown" unicode="&#xa1;" horiz-adv-x="179" 
d="M119 800c54 0 36 -50 53 -375l2 -66c0 -153 -20 -356 -27 -379c-8 -26 -26 -39 -45 -39c-30 0 -62 31 -62 93v3c0 13 3 104 56 745c1 13 12 18 23 18zM107 979c26 0 56 -24 64 -48c6 -11 8 -21 8 -29c0 -24 -18 -38 -41 -38c-20 0 -45 12 -61 40c-7 12 -11 23 -11 34
c0 20 13 37 29 39c4 2 8 2 12 2z" />
    <glyph glyph-name="cent" unicode="&#xa2;" horiz-adv-x="912" 
d="M147 238c10 21 20 43 30 65c24 52 48 102 71 150c-22 -3 -44 -29 -64 -76c-20 -44 -32 -90 -37 -139zM191 63c21 -15 51 -23 89 -23c39 0 87 8 146 24c68 20 142 46 221 79c79 32 148 62 208 89c63 27 100 41 112 41c3 0 5 -1 5 -2c0 -3 -3 -7 -10 -12
c-15 -12 -52 -31 -110 -58c-59 -27 -124 -54 -196 -83c-73 -29 -137 -54 -194 -74c-33 -11 -69 -21 -110 -31s-80 -15 -119 -15c-21 0 -40 2 -58 6l-8 2c-35 -84 -73 -177 -115 -279c-7 -13 -19 -20 -34 -20s-30 6 -45 19c-15 12 -23 28 -23 49c0 9 22 66 67 171
c15 35 31 72 48 111c-9 8 -16 16 -23 26c-27 39 -40 81 -40 128c0 75 25 146 76 211c20 24 44 43 71 56s54 19 81 19c13 0 26 -2 38 -5c29 61 59 117 87 171c57 107 99 171 126 193c3 2 7 3 10 3c5 0 10 -2 15 -7s7 -11 7 -17c0 -26 -6 -55 -19 -88s-37 -86 -70 -157
c-20 -43 -45 -98 -75 -165c11 -26 16 -49 16 -70c0 -17 -4 -29 -12 -35c-3 -1 -6 -2 -9 -2c-10 0 -16 7 -19 21c-2 7 -3 14 -5 21c-12 -26 -24 -54 -36 -82c-28 -62 -59 -134 -93 -215z" />
    <glyph glyph-name="sterling" unicode="&#xa3;" horiz-adv-x="525" 
d="M247 605c4 -7 9 -14 14 -21c15 -20 40 -41 75 -62c4 -2 8 -4 11 -5c11 -6 20 -11 27 -16c6 -5 9 -13 9 -23c0 -15 -8 -39 -24 -72s-42 -84 -77 -152c-24 -45 -53 -100 -86 -165c62 -2 113 -5 154 -10s73 -10 97 -16c23 -6 41 -12 52 -18c11 -7 19 -13 22 -18s4 -10 4 -13
c0 -13 -8 -19 -24 -19h-7c-12 0 -28 1 -48 4c-33 5 -76 7 -131 7c-48 0 -105 -5 -172 -14c-10 -8 -20 -12 -31 -12c-18 0 -34 9 -49 26s-23 33 -23 49c0 8 3 15 8 21s13 10 25 11c33 65 67 124 101 177c33 53 77 118 131 196c2 3 4 7 7 10c-57 31 -98 65 -122 102
c-7 11 -13 22 -18 33h-65c-15 0 -29 3 -44 8s-23 14 -23 28c0 5 15 12 46 21c19 5 42 10 68 15v4c0 45 13 88 40 128c27 39 59 71 96 96c37 24 72 36 103 36c19 0 34 -3 47 -10c12 -7 21 -15 28 -24c6 -9 9 -17 9 -23c0 -7 -7 -16 -21 -26c-14 -11 -31 -23 -52 -36
c-24 -15 -49 -32 -74 -51s-47 -39 -65 -60c-5 -7 -10 -13 -13 -20c25 3 49 4 72 4c37 0 68 -4 93 -12s38 -22 38 -43c0 -9 -2 -17 -7 -24s-12 -11 -21 -11h-180z" />
    <glyph glyph-name="currency" unicode="&#xa4;" horiz-adv-x="524" 
d="M489 198c-25 0 -131 75 -141 110c-20 -8 -40 -11 -60 -11c-29 0 -57 7 -85 22c-3 -5 -97 -106 -120 -106c-22 0 -32 14 -32 35c0 14 72 117 83 131c-18 27 -28 59 -28 91c0 29 8 58 25 82c-25 18 -91 155 -91 197c0 8 2 13 7 13s11 -4 21 -12c6 -3 94 -111 94 -111
c27 42 69 66 116 66c31 0 64 -10 97 -34c35 39 102 104 132 104c11 0 17 -8 17 -25c0 -32 -86 -150 -86 -150c28 -49 30 -90 30 -107c0 -58 -21 -106 -54 -140c17 -11 88 -111 88 -139c0 -12 -9 -16 -13 -16zM262 382c10 0 22 2 34 6c69 25 95 74 95 122
c0 66 -49 131 -104 131c-22 0 -46 -11 -68 -38c18 -2 41 -18 41 -37v-4c-5 -22 -4 -18 -19 -28c-34 -23 -48 -54 -48 -82c0 -38 27 -70 69 -70z" />
    <glyph glyph-name="yen" unicode="&#xa5;" horiz-adv-x="934" 
d="M377 -181c19 0 40 8 62 24c22 15 43 41 63 76s37 82 50 139c3 12 7 27 10 46s5 36 8 53c2 17 3 27 3 31v2h-1c-3 0 -18 -4 -44 -12c-27 -8 -56 -22 -89 -42c-33 -21 -64 -49 -92 -85c-17 -25 -30 -48 -38 -71s-12 -44 -12 -63c0 -29 8 -53 23 -71s34 -27 57 -27zM677 289
v-2c0 -13 -1 -22 -1 -26v-2l304 5c5 0 10 -2 16 -5c6 -4 9 -8 9 -12c0 -1 -1 -3 -2 -4c-7 -3 -27 -6 -60 -9s-71 -5 -112 -6c-37 -2 -70 -4 -99 -6s-48 -4 -57 -7c-2 -1 -4 -12 -6 -33c-3 -27 -8 -63 -17 -108s-23 -93 -44 -142s-51 -93 -91 -132c-25 -22 -49 -38 -73 -48
c-24 -11 -47 -16 -68 -16c-39 0 -72 15 -97 45s-38 67 -38 112c0 21 3 42 9 64c22 77 61 139 117 184s124 77 203 96c5 2 8 18 10 49v3h-76c-15 0 -29 3 -44 8s-23 14 -23 28c0 5 15 12 46 21c28 7 61 14 99 20v29h-81c-15 0 -29 3 -44 8s-23 14 -23 28c0 5 15 11 46 20
c28 8 62 15 101 21c0 24 0 49 -1 74c-1 52 -3 97 -4 135s-2 62 -2 71v2c-5 -9 -9 -18 -13 -29c-33 -77 -76 -165 -128 -264c-53 -100 -107 -173 -162 -220c-35 -26 -67 -39 -94 -39c-31 0 -58 14 -80 41c-23 27 -41 62 -55 107c-15 45 -25 95 -32 151c-7 55 -10 112 -10 169
c0 37 1 74 4 110c5 80 13 124 22 131c7 7 16 11 27 11c15 0 29 -7 42 -20l9 -11v-197c0 -85 2 -160 6 -227c3 -67 11 -120 22 -158c11 -39 29 -58 54 -58c33 0 79 40 140 120c19 26 48 73 87 142s75 137 108 204s53 112 58 134c1 8 3 16 4 24c1 7 3 13 4 16
c11 23 26 35 45 35c6 0 12 -1 17 -4c13 -9 22 -47 27 -115s7 -143 7 -225c0 -34 0 -67 -1 -99c12 1 24 1 36 1c37 0 68 -4 93 -12s38 -22 38 -42c0 -9 -2 -17 -7 -24s-12 -11 -21 -11h-140c-1 -6 -1 -11 -1 -17c14 1 28 1 41 1c37 0 68 -4 93 -12s38 -22 38 -43
c0 -8 -2 -16 -7 -23c-5 -8 -12 -12 -21 -12h-147z" />
    <glyph glyph-name="brokenbar" unicode="&#xa6;" horiz-adv-x="198" 
d="M58 436c1 20 1 41 2 62c4 120 11 225 20 316c9 90 21 145 37 164c1 1 3 2 5 3h4c5 0 11 -2 18 -7s11 -11 14 -17c9 -18 14 -38 17 -59s4 -50 4 -87c0 -27 0 -61 -1 -102c-2 -63 -3 -154 -3 -273h-117zM176 322c1 -128 5 -286 10 -473v-2c0 -12 -8 -18 -24 -18
c-15 0 -33 6 -53 18s-35 29 -46 50c-3 7 -5 36 -6 85c-2 49 -3 109 -3 182c0 51 0 103 1 158h121z" />
    <glyph glyph-name="section" unicode="&#xa7;" horiz-adv-x="367" 
d="M136 -167c13 1 26 11 38 28c10 15 15 39 15 72c0 16 -2 32 -6 49c-6 25 -11 38 -14 38c-1 0 -5 -3 -11 -8c-11 -11 -22 -23 -32 -38c-22 -35 -33 -66 -33 -92c0 -33 13 -49 38 -49h5zM159 -216c-25 0 -51 7 -76 22c-28 17 -43 44 -43 80c0 20 7 43 20 69s46 61 97 106
c-1 6 -9 23 -24 51c-15 27 -32 60 -49 97c-22 47 -32 87 -32 122c0 40 12 80 38 118c29 44 61 69 96 75c-4 9 -11 23 -22 42c-15 29 -31 62 -48 99c-22 46 -33 87 -33 122c0 40 14 82 42 124c31 47 66 71 107 71c14 0 29 -5 43 -13c9 -7 13 -13 13 -20c0 -9 -6 -13 -18 -13
c-3 0 -7 0 -12 1c-4 1 -8 2 -11 2c-12 -1 -21 -12 -26 -32c-4 -15 -7 -28 -7 -40c0 -29 27 -88 81 -176c14 -24 37 -78 68 -161c3 -20 4 -40 4 -59c0 -38 -5 -72 -15 -104c-20 -56 -53 -94 -99 -114c20 -33 46 -93 78 -179c3 -21 4 -41 4 -61c0 -90 -25 -155 -75 -193
c-31 -24 -65 -36 -101 -36zM211 327c6 14 10 34 10 60c0 16 -3 33 -7 53s-8 31 -12 35c-5 -5 -9 -13 -12 -24c-4 -15 -7 -28 -7 -39c0 -22 10 -50 28 -85z" />
    <glyph glyph-name="dieresis" unicode="&#xa8;" horiz-adv-x="419" 
d="M132 609c-9 0 -18 1 -29 4c-21 7 -37 17 -47 30c-11 13 -16 28 -16 43c0 17 6 32 18 45c11 13 28 19 49 19c31 0 54 -8 69 -24c15 -17 22 -34 22 -52c0 -17 -6 -32 -17 -45s-28 -20 -49 -20zM353 609c-9 0 -18 1 -29 4c-21 7 -37 17 -47 30c-11 13 -16 28 -16 43
c0 17 6 32 18 45c11 13 28 19 49 19c31 0 54 -8 69 -24c15 -17 22 -34 22 -52c0 -17 -6 -32 -17 -45s-28 -20 -49 -20z" />
    <glyph glyph-name="copyright" unicode="&#xa9;" horiz-adv-x="661" 
d="M314 592c-89 0 -118 84 -118 124c0 77 80 162 151 162c48 0 90 -31 90 -65c0 -10 -5 -17 -14 -17c-5 0 -11 2 -17 7c-16 7 -31 10 -44 10c-63 0 -103 -64 -103 -113c0 -13 3 -25 9 -34c8 -10 19 -13 31 -13c33 0 73 27 94 27c25 0 35 -24 35 -35c0 -33 -84 -53 -114 -53z
M283 438c-203 0 -243 162 -243 253c0 158 114 283 183 283c7 0 14 -1 20 -4c60 30 117 43 168 43c146 0 250 -105 250 -233c0 -174 -183 -342 -378 -342zM266 515c191 0 318 163 318 288c0 77 -48 139 -160 139c-186 0 -287 -158 -287 -282c0 -80 42 -145 129 -145z" />
    <glyph glyph-name="guillemotleft" unicode="&#xab;" horiz-adv-x="564" 
d="M301 14c-19 0 -50 15 -91 45c-42 29 -81 64 -116 104c-36 40 -54 75 -54 106c0 19 19 47 57 84c37 37 79 72 124 103s78 47 100 47c7 0 14 -3 19 -8s8 -12 8 -19c0 -21 -11 -46 -32 -75s-45 -58 -71 -85c-27 -27 -49 -50 -68 -67l-7 -7c53 -61 91 -108 113 -142
c22 -35 33 -59 33 -72c0 -9 -5 -14 -15 -14zM517 14c-19 0 -50 15 -91 45c-42 29 -81 64 -116 104c-36 40 -54 75 -54 106c0 19 19 47 57 84c37 37 79 72 124 103s78 47 100 47c7 0 14 -3 19 -8s8 -12 8 -19c0 -21 -11 -46 -32 -75s-45 -58 -71 -85c-27 -27 -49 -50 -68 -67
l-7 -7c53 -61 91 -108 113 -142c22 -35 33 -59 33 -72c0 -9 -5 -14 -15 -14z" />
    <glyph glyph-name="registered" unicode="&#xae;" horiz-adv-x="660" 
d="M283 438c-204 0 -243 162 -243 253c0 156 113 283 182 283c7 0 14 -1 20 -4c60 30 117 43 168 43c146 0 250 -105 250 -233c0 -174 -183 -342 -377 -342zM264 515c193 0 320 163 320 287c0 77 -48 140 -161 140c-186 0 -285 -158 -285 -282c0 -80 41 -145 126 -145z
M300 636c-4 0 -39 4 -39 51c0 21 13 209 56 209c7 0 14 -5 18 -11c7 1 13 2 20 2c52 0 94 -44 94 -92c0 -42 -35 -68 -68 -68c-9 0 -17 1 -25 5c41 -42 74 -46 74 -74c0 -8 -3 -21 -22 -21c-31 0 -79 53 -86 63l1 -29c0 -24 -10 -35 -23 -35zM338 748c-6 10 -9 18 -9 23
c0 27 58 11 58 41c0 14 -12 21 -26 21c-8 0 -15 -2 -23 -5c-2 -11 -7 -34 -12 -73c1 -1 10 -5 12 -7z" />
    <glyph glyph-name="macron" unicode="&#xaf;" horiz-adv-x="455" 
d="M427 705h-320c-15 0 -29 3 -44 8s-23 14 -23 28c0 5 15 12 46 21c30 8 67 16 111 23s86 10 127 10c37 0 68 -4 93 -12s38 -22 38 -43c0 -9 -2 -17 -7 -24s-12 -11 -21 -11z" />
    <glyph glyph-name="degree" unicode="&#xb0;" horiz-adv-x="259" 
d="M135 579c-62 0 -95 50 -95 104c0 36 14 74 44 100c-2 4 -3 7 -3 10c0 18 27 30 61 30c51 0 117 -29 117 -110c0 -65 -51 -134 -124 -134zM129 634c40 0 65 43 65 82c0 30 -15 58 -48 63l-2 -11s-56 -65 -56 -105c0 -17 11 -29 41 -29z" />
    <glyph glyph-name="plusminus" unicode="&#xb1;" horiz-adv-x="579" 
d="M285 127c-21 0 -38 8 -51 25c-13 16 -19 32 -19 48c0 2 0 7 1 15c3 23 5 66 7 128c-56 3 -100 8 -133 13s-50 14 -50 29c0 5 1 8 2 11c1 2 5 4 12 5s18 3 33 4s35 1 62 2c21 1 46 3 75 4c0 35 0 65 -1 89c-1 17 -1 31 -1 44c0 21 2 36 5 47s8 18 17 23c5 4 11 6 17 6
c11 0 21 -5 31 -16c7 -5 14 -13 19 -24s10 -29 14 -54c3 -25 6 -62 8 -109c75 6 127 11 158 14c17 2 28 3 31 3c9 0 19 -3 28 -8c9 -6 15 -13 20 -21c6 -10 9 -19 9 -28s-3 -17 -8 -23c-5 -7 -12 -10 -21 -11c-55 -3 -111 -5 -167 -5h-49c0 -59 -2 -118 -7 -178
c-1 -12 -6 -20 -14 -25c-9 -5 -18 -8 -28 -8zM484 0h-320c-15 0 -29 3 -44 8s-23 14 -23 28c0 5 15 12 46 21c30 8 67 16 111 23s86 10 127 10c37 0 68 -4 93 -12s38 -22 38 -43c0 -9 -2 -17 -7 -24s-12 -11 -21 -11z" />
    <glyph glyph-name="twosuperior" unicode="&#xb2;" horiz-adv-x="194" 
d="M77 579c-22 0 -37 11 -37 38c0 22 25 26 76 81c10 11 16 23 16 32c0 11 -7 18 -25 18c-22 0 -39 -23 -48 -23c-8 0 -17 10 -17 18c0 22 39 46 71 46c25 0 64 -18 64 -62c0 -32 -39 -80 -60 -106h2c10 0 32 8 45 8h3c14 -1 27 -16 27 -30c0 -10 -8 -18 -18 -18z" />
    <glyph glyph-name="threesuperior" unicode="&#xb3;" horiz-adv-x="203" 
d="M112 518c-40 0 -72 33 -72 53c0 12 6 18 16 18c11 0 17 -6 22 -9s12 -5 18 -5c21 0 43 18 43 44c0 31 -21 39 -27 47c-9 6 -15 14 -15 24c0 20 60 42 64 46c-20 0 -82 0 -82 20c0 6 35 15 67 15c29 0 57 -7 57 -30c0 -17 -46 -64 -52 -70c26 -20 37 -48 37 -74
c0 -41 -29 -79 -76 -79z" />
    <glyph glyph-name="acute" unicode="&#xb4;" horiz-adv-x="497" 
d="M63 587c-17 0 -23 7 -23 16c0 26 346 253 386 253c45 0 71 -36 71 -65c0 -68 -425 -204 -434 -204z" />
    <glyph glyph-name="mu" unicode="&#xb5;" horiz-adv-x="601" 
d="M46 498c6 31 15 49 27 56c7 3 16 5 26 5c12 0 25 -3 38 -8c11 -4 18 -9 23 -14c5 -6 8 -17 9 -32s2 -40 2 -75c0 -67 2 -115 7 -145s14 -45 28 -45c11 0 27 9 46 27s44 43 75 74c29 30 63 65 103 104c10 10 17 18 20 23s6 12 7 21c9 59 30 91 62 96c6 1 11 1 16 1
c14 0 27 -3 39 -9s20 -14 25 -23l2 -12c0 -15 -3 -36 -8 -65c-9 -44 -13 -87 -13 -129c0 -26 3 -48 10 -67c5 -15 8 -27 8 -37c0 -19 -7 -29 -22 -30c-11 0 -24 8 -41 23c-30 33 -50 70 -60 109s-15 67 -16 84c-1 4 -1 6 -1 7c0 -1 -1 -1 -1 -1l-1 -1c-2 -3 -6 -8 -12 -15
c-9 -12 -20 -25 -31 -40s-21 -29 -30 -40c-9 -12 -14 -19 -15 -20c-35 -44 -68 -76 -99 -95c-31 -20 -60 -30 -87 -30h-9c1 -22 1 -44 1 -65l-2 -67c-4 -85 -7 -154 -8 -205c-1 -47 -3 -83 -5 -108s-6 -41 -11 -49c-6 -9 -16 -13 -29 -13c-5 0 -10 1 -15 4s-7 7 -8 14
c-11 127 -19 235 -26 323c-7 87 -12 158 -16 213c-4 40 -6 74 -8 100c-4 21 -6 43 -6 66c0 11 0 21 1 31c-1 7 -1 11 -1 13v2c0 17 2 32 6 44z" />
    <glyph glyph-name="paragraph" unicode="&#xb6;" horiz-adv-x="928" 
d="M685 -23c-27 0 -62 21 -62 54v710c-1 0 -1 -39 -2 -39l-1 38l-163 -5v-7c0 -73 -14 -242 -14 -655c0 -69 -22 -96 -45 -96c-29 0 -61 40 -61 92c0 109 7 255 15 383h-11c-209 0 -301 94 -301 190c0 97 96 196 259 196c552 0 629 -4 629 -52c0 -23 -23 -33 -195 -41
c1 -13 2 -38 2 -72c0 -181 -17 -606 -18 -668c0 -19 -15 -28 -32 -28z" />
    <glyph glyph-name="periodcentered" unicode="&#xb7;" horiz-adv-x="174" 
d="M118 280c-7 0 -15 1 -24 4c-19 5 -32 14 -41 26c-9 11 -13 23 -13 35c0 15 5 28 15 39s24 16 42 16c27 0 46 -7 59 -20c12 -14 18 -29 18 -45c0 -14 -5 -27 -14 -38c-10 -11 -24 -17 -42 -17z" />
    <glyph glyph-name="periodcentered" unicode="&#x2219;" horiz-adv-x="174" 
d="M118 280c-7 0 -15 1 -24 4c-19 5 -32 14 -41 26c-9 11 -13 23 -13 35c0 15 5 28 15 39s24 16 42 16c27 0 46 -7 59 -20c12 -14 18 -29 18 -45c0 -14 -5 -27 -14 -38c-10 -11 -24 -17 -42 -17z" />
    <glyph glyph-name="cedilla" unicode="&#xb8;" horiz-adv-x="313" 
d="M146 -278c-41 3 -76 24 -106 62l36 31c18 -31 42 -46 73 -46c13 0 26 2 40 7c19 12 35 27 48 46s19 41 19 64c0 6 0 12 -1 18l-1 106l56 1c2 -81 3 -130 3 -146c0 -17 -7 -37 -19 -60c-13 -22 -33 -41 -60 -58c-28 -17 -58 -25 -88 -25z" />
    <glyph glyph-name="onesuperior" unicode="&#xb9;" horiz-adv-x="189" 
d="M155 527c-15 0 -53 14 -53 57c0 1 13 141 20 189c-47 -39 -52 -49 -65 -49c-9 0 -17 8 -17 17c0 14 94 106 115 106c27 0 34 -25 34 -63c0 -39 -7 -92 -7 -148c0 -28 4 -59 4 -74c0 -18 -9 -35 -31 -35z" />
    <glyph glyph-name="ordmasculine" unicode="&#xba;" horiz-adv-x="259" 
d="M135 579c-62 0 -95 50 -95 104c0 36 14 74 44 100c-2 4 -3 7 -3 10c0 18 27 30 61 30c51 0 117 -29 117 -110c0 -65 -51 -134 -124 -134zM129 634c40 0 65 43 65 82c0 30 -15 58 -48 63l-2 -11s-56 -65 -56 -105c0 -17 11 -29 41 -29z" />
    <glyph glyph-name="guillemotright" unicode="&#xbb;" horiz-adv-x="564" 
d="M303 14c-10 0 -15 5 -15 14c0 13 11 37 33 72c22 34 60 81 113 142l-7 7c-19 17 -41 40 -67 67c-27 27 -51 56 -72 85s-32 54 -32 75c0 7 3 14 8 19s12 8 19 8c22 0 56 -16 101 -47s86 -66 124 -103c37 -37 56 -65 56 -84c0 -31 -18 -66 -53 -106
c-36 -40 -75 -75 -116 -104c-42 -30 -73 -45 -92 -45zM87 14c-10 0 -15 5 -15 14c0 13 11 37 33 72c22 34 60 81 113 142l-7 7c-19 17 -41 40 -67 67c-27 27 -51 56 -72 85s-32 54 -32 75c0 7 3 14 8 19s12 8 19 8c22 0 56 -16 101 -47s86 -66 124 -103
c37 -37 56 -65 56 -84c0 -31 -18 -66 -53 -106c-36 -40 -75 -75 -116 -104c-42 -30 -73 -45 -92 -45z" />
    <glyph glyph-name="onequarter" unicode="&#xbc;" horiz-adv-x="579" 
d="M107 -181c-29 0 -67 27 -67 66s450 923 508 962l6 2c10 0 25 -12 25 -28c0 -52 -158 -315 -439 -982c-6 -14 -18 -20 -33 -20zM455 -177c-21 0 -48 20 -48 54c0 2 0 25 2 49l-71 -3c-32 0 -73 15 -73 47c0 24 97 123 115 123c8 0 17 -9 17 -17c0 -22 -33 -64 -48 -92
l64 5l5 -1c10 51 30 76 48 76c15 0 28 -21 28 -60c0 -35 -10 -71 -10 -149c0 -22 -13 -32 -29 -32zM257 527c-15 0 -53 14 -53 57c0 1 13 141 20 189c-47 -39 -52 -49 -65 -49c-9 0 -17 8 -17 17c0 14 94 106 115 106c27 0 34 -25 34 -63c0 -39 -7 -92 -7 -148
c0 -28 4 -59 4 -74c0 -18 -9 -35 -31 -35z" />
    <glyph glyph-name="onehalf" unicode="&#xbd;" horiz-adv-x="580" 
d="M107 -181c-29 0 -67 27 -67 66s450 923 508 962l6 2c10 0 26 -12 26 -28c0 -52 -158 -315 -440 -982c-6 -14 -18 -20 -33 -20zM282 527c-14 0 -53 14 -53 57c0 1 13 141 21 189c-48 -39 -53 -49 -65 -49c-9 0 -18 8 -18 17c0 14 95 106 116 106c27 0 33 -24 33 -61
c0 -39 -7 -93 -7 -150c0 -28 4 -59 4 -74c0 -18 -9 -35 -31 -35zM302 -159c-22 0 -37 11 -37 38c0 22 25 26 76 81c10 11 16 23 16 32c0 11 -7 18 -25 18c-22 0 -39 -23 -48 -23c-8 0 -17 10 -17 18c0 22 39 46 71 46c25 0 64 -18 64 -62c0 -32 -39 -80 -60 -106h2
c10 0 32 8 45 8h3c14 -1 27 -16 27 -30c0 -10 -8 -18 -18 -18z" />
    <glyph glyph-name="threequarters" unicode="&#xbe;" horiz-adv-x="579" 
d="M107 -181c-29 0 -67 27 -67 66s450 923 508 962l6 2c10 0 25 -12 25 -28c0 -52 -158 -315 -439 -982c-6 -14 -18 -20 -33 -20zM481 -177c-21 0 -48 20 -48 54c0 2 0 25 2 49l-71 -3c-32 0 -73 15 -73 47c0 24 97 123 115 123c8 0 17 -9 17 -17c0 -22 -33 -64 -48 -92
l64 5l5 -1c10 51 30 76 48 76c15 0 28 -21 28 -60c0 -35 -10 -71 -10 -149c0 -22 -13 -32 -29 -32zM289 566c-40 0 -72 33 -72 53c0 12 6 18 16 18c11 0 17 -6 22 -9s12 -5 18 -5c21 0 43 18 43 44c0 31 -21 39 -27 47c-9 6 -15 14 -15 24c0 20 60 42 64 46
c-20 0 -82 0 -82 20c0 6 35 15 67 15c29 0 57 -7 57 -30c0 -17 -46 -64 -52 -70c26 -20 37 -48 37 -74c0 -41 -29 -79 -76 -79z" />
    <glyph glyph-name="questiondown" unicode="&#xbf;" horiz-adv-x="457" 
d="M371 749c44 0 67 -42 67 -71c0 -227 -284 -400 -284 -619c0 -13 1 -26 3 -40c15 -53 43 -72 76 -72c85 0 201 133 202 133c10 0 22 -10 22 -21c0 -66 -122 -176 -240 -176c-93 0 -177 82 -177 208c0 253 266 402 292 626c2 22 20 32 39 32zM373 887c44 0 81 -52 81 -85
c0 -32 -26 -41 -40 -41c-49 0 -81 58 -81 83s15 43 40 43z" />
    <glyph glyph-name="Agrave" unicode="&#xc0;" 
d="M245 251l94 17c21 4 45 8 72 13c26 4 48 7 67 10l106 15l41 7c3 11 7 35 13 72c6 36 13 77 20 123s14 89 20 130c5 29 7 70 7 123v24c0 34 -2 57 -5 68c-4 11 -12 18 -24 22c-3 2 -6 3 -9 4s-7 1 -10 1c-4 0 -10 -1 -17 -2c-65 -15 -133 -76 -205 -185
c-19 -29 -41 -68 -64 -116c-24 -48 -43 -90 -56 -125c-9 -25 -19 -56 -29 -94c-11 -38 -18 -69 -23 -93l-2 -10c0 -3 1 -4 4 -4zM838 -294c-12 0 -23 1 -33 3c-91 22 -150 98 -179 227c-5 25 -8 55 -11 90s-4 71 -4 106c0 37 2 69 5 97l2 36l-5 1c-13 0 -41 -3 -84 -9
c-44 -6 -91 -13 -141 -20c-51 -8 -94 -15 -130 -22c-2 -1 -4 -1 -6 -1c-7 -1 -11 -2 -14 -5s-6 -9 -8 -19c-2 -11 -4 -27 -7 -50c-1 -5 -1 -11 -2 -17c-10 -73 -15 -142 -15 -207l1 -53l2 -58c0 -8 0 -14 -1 -17s-1 -5 -2 -6s-3 -2 -4 -2c-10 0 -18 10 -25 29
c-1 4 -3 13 -4 26s-3 28 -4 45l-2 51c0 69 8 157 23 264v1c0 3 -2 5 -7 5c-2 -1 -9 -2 -20 -3c-12 -1 -26 -3 -41 -4c-50 -6 -82 -9 -95 -9c-5 0 -8 0 -10 1c-3 0 -5 1 -7 2c-7 3 -10 7 -10 11c0 3 4 6 12 9c4 1 15 3 32 6s36 6 59 9s42 7 59 10s26 5 29 6c2 1 4 3 6 6
s4 8 6 15c1 7 3 17 5 30c21 105 59 209 112 313c31 61 66 117 103 167c37 49 72 85 104 108c35 22 70 33 106 33c46 0 86 -17 120 -51c15 -16 26 -37 33 -62c6 -25 9 -60 9 -103c0 -33 -1 -65 -4 -96c-3 -32 -10 -82 -20 -150l-16 -113l5 -1l12 1c75 12 119 18 134 18
c13 0 24 -2 33 -7s14 -11 15 -18v-3c0 -4 -2 -7 -5 -9c-3 -3 -10 -5 -20 -6c-10 -2 -24 -4 -43 -7l-55 -7c-2 -1 -7 -1 -15 -2c-9 -1 -18 -3 -28 -4s-19 -1 -26 -2c-8 -1 -12 -2 -13 -3s-2 -7 -4 -20s-4 -28 -6 -47c-4 -26 -6 -52 -7 -77s-2 -63 -3 -114c0 -35 0 -63 1 -82
c0 -20 1 -36 2 -47s2 -21 4 -30c13 -59 33 -99 60 -118c9 -7 22 -10 39 -10c12 0 25 2 40 6c21 5 52 18 91 38c39 19 74 40 107 62c30 21 82 58 156 113s141 106 202 153c63 49 119 89 168 120c48 31 79 46 93 46c5 0 10 -1 14 -4s6 -7 6 -10c0 -5 -39 -34 -116 -87
c-18 -13 -40 -29 -66 -48c-27 -19 -51 -38 -74 -55c-65 -50 -131 -100 -198 -151c-68 -51 -117 -86 -146 -105c-29 -20 -61 -39 -96 -57s-65 -32 -91 -41c-30 -10 -59 -15 -87 -15zM870 936c-3 0 -26 7 -70 22c-45 14 -95 32 -151 54s-105 45 -148 68s-65 43 -65 60
c0 15 6 29 19 44c12 14 29 21 52 21c10 0 35 -12 76 -35c40 -23 84 -51 132 -82c47 -31 89 -60 124 -87s53 -43 53 -49c0 -5 -2 -8 -5 -11s-9 -5 -17 -5z" />
    <glyph glyph-name="Aacute" unicode="&#xc1;" 
d="M245 251l94 17c21 4 45 8 72 13c26 4 48 7 67 10l106 15l41 7c3 11 7 35 13 72c6 36 13 77 20 123s14 89 20 130c5 29 7 70 7 123v24c0 34 -2 57 -5 68c-4 11 -12 18 -24 22c-3 2 -6 3 -9 4s-7 1 -10 1c-4 0 -10 -1 -17 -2c-65 -15 -133 -76 -205 -185
c-19 -29 -41 -68 -64 -116c-24 -48 -43 -90 -56 -125c-9 -25 -19 -56 -29 -94c-11 -38 -18 -69 -23 -93l-2 -10c0 -3 1 -4 4 -4zM838 -294c-12 0 -23 1 -33 3c-91 22 -150 98 -179 227c-5 25 -8 55 -11 90s-4 71 -4 106c0 37 2 69 5 97l2 36l-5 1c-13 0 -41 -3 -84 -9
c-44 -6 -91 -13 -141 -20c-51 -8 -94 -15 -130 -22c-2 -1 -4 -1 -6 -1c-7 -1 -11 -2 -14 -5s-6 -9 -8 -19c-2 -11 -4 -27 -7 -50c-1 -5 -1 -11 -2 -17c-10 -73 -15 -142 -15 -207l1 -53l2 -58c0 -8 0 -14 -1 -17s-1 -5 -2 -6s-3 -2 -4 -2c-10 0 -18 10 -25 29
c-1 4 -3 13 -4 26s-3 28 -4 45l-2 51c0 69 8 157 23 264v1c0 3 -2 5 -7 5c-2 -1 -9 -2 -20 -3c-12 -1 -26 -3 -41 -4c-50 -6 -82 -9 -95 -9c-5 0 -8 0 -10 1c-3 0 -5 1 -7 2c-7 3 -10 7 -10 11c0 3 4 6 12 9c4 1 15 3 32 6s36 6 59 9s42 7 59 10s26 5 29 6c2 1 4 3 6 6
s4 8 6 15c1 7 3 17 5 30c21 105 59 209 112 313c31 61 66 117 103 167c37 49 72 85 104 108c35 22 70 33 106 33c46 0 86 -17 120 -51c15 -16 26 -37 33 -62c6 -25 9 -60 9 -103c0 -33 -1 -65 -4 -96c-3 -32 -10 -82 -20 -150l-16 -113l5 -1l12 1c75 12 119 18 134 18
c13 0 24 -2 33 -7s14 -11 15 -18v-3c0 -4 -2 -7 -5 -9c-3 -3 -10 -5 -20 -6c-10 -2 -24 -4 -43 -7l-55 -7c-2 -1 -7 -1 -15 -2c-9 -1 -18 -3 -28 -4s-19 -1 -26 -2c-8 -1 -12 -2 -13 -3s-2 -7 -4 -20s-4 -28 -6 -47c-4 -26 -6 -52 -7 -77s-2 -63 -3 -114c0 -35 0 -63 1 -82
c0 -20 1 -36 2 -47s2 -21 4 -30c13 -59 33 -99 60 -118c9 -7 22 -10 39 -10c12 0 25 2 40 6c21 5 52 18 91 38c39 19 74 40 107 62c30 21 82 58 156 113s141 106 202 153c63 49 119 89 168 120c48 31 79 46 93 46c5 0 10 -1 14 -4s6 -7 6 -10c0 -5 -39 -34 -116 -87
c-18 -13 -40 -29 -66 -48c-27 -19 -51 -38 -74 -55c-65 -50 -131 -100 -198 -151c-68 -51 -117 -86 -146 -105c-29 -20 -61 -39 -96 -57s-65 -32 -91 -41c-30 -10 -59 -15 -87 -15zM351 933c-8 0 -14 2 -17 5s-5 6 -5 11c0 6 18 22 54 49c35 27 77 56 124 87s91 59 132 82
c40 23 65 35 75 35c23 0 40 -7 53 -21c13 -15 19 -29 19 -44c0 -17 -22 -37 -65 -60s-93 -46 -149 -68s-106 -40 -150 -54c-45 -15 -68 -22 -71 -22z" />
    <glyph glyph-name="Acircumflex" unicode="&#xc2;" 
d="M245 251l94 17c21 4 45 8 72 13c26 4 48 7 67 10l106 15l41 7c3 11 7 35 13 72c6 36 13 77 20 123s14 89 20 130c5 29 7 70 7 123v24c0 34 -2 57 -5 68c-4 11 -12 18 -24 22c-3 2 -6 3 -9 4s-7 1 -10 1c-4 0 -10 -1 -17 -2c-65 -15 -133 -76 -205 -185
c-19 -29 -41 -68 -64 -116c-24 -48 -43 -90 -56 -125c-9 -25 -19 -56 -29 -94c-11 -38 -18 -69 -23 -93l-2 -10c0 -3 1 -4 4 -4zM838 -294c-12 0 -23 1 -33 3c-91 22 -150 98 -179 227c-5 25 -8 55 -11 90s-4 71 -4 106c0 37 2 69 5 97l2 36l-5 1c-13 0 -41 -3 -84 -9
c-44 -6 -91 -13 -141 -20c-51 -8 -94 -15 -130 -22c-2 -1 -4 -1 -6 -1c-7 -1 -11 -2 -14 -5s-6 -9 -8 -19c-2 -11 -4 -27 -7 -50c-1 -5 -1 -11 -2 -17c-10 -73 -15 -142 -15 -207l1 -53l2 -58c0 -8 0 -14 -1 -17s-1 -5 -2 -6s-3 -2 -4 -2c-10 0 -18 10 -25 29
c-1 4 -3 13 -4 26s-3 28 -4 45l-2 51c0 69 8 157 23 264v1c0 3 -2 5 -7 5c-2 -1 -9 -2 -20 -3c-12 -1 -26 -3 -41 -4c-50 -6 -82 -9 -95 -9c-5 0 -8 0 -10 1c-3 0 -5 1 -7 2c-7 3 -10 7 -10 11c0 3 4 6 12 9c4 1 15 3 32 6s36 6 59 9s42 7 59 10s26 5 29 6c2 1 4 3 6 6
s4 8 6 15c1 7 3 17 5 30c21 105 59 209 112 313c31 61 66 117 103 167c37 49 72 85 104 108c35 22 70 33 106 33c46 0 86 -17 120 -51c15 -16 26 -37 33 -62c6 -25 9 -60 9 -103c0 -33 -1 -65 -4 -96c-3 -32 -10 -82 -20 -150l-16 -113l5 -1l12 1c75 12 119 18 134 18
c13 0 24 -2 33 -7s14 -11 15 -18v-3c0 -4 -2 -7 -5 -9c-3 -3 -10 -5 -20 -6c-10 -2 -24 -4 -43 -7l-55 -7c-2 -1 -7 -1 -15 -2c-9 -1 -18 -3 -28 -4s-19 -1 -26 -2c-8 -1 -12 -2 -13 -3s-2 -7 -4 -20s-4 -28 -6 -47c-4 -26 -6 -52 -7 -77s-2 -63 -3 -114c0 -35 0 -63 1 -82
c0 -20 1 -36 2 -47s2 -21 4 -30c13 -59 33 -99 60 -118c9 -7 22 -10 39 -10c12 0 25 2 40 6c21 5 52 18 91 38c39 19 74 40 107 62c30 21 82 58 156 113s141 106 202 153c63 49 119 89 168 120c48 31 79 46 93 46c5 0 10 -1 14 -4s6 -7 6 -10c0 -5 -39 -34 -116 -87
c-18 -13 -40 -29 -66 -48c-27 -19 -51 -38 -74 -55c-65 -50 -131 -100 -198 -151c-68 -51 -117 -86 -146 -105c-29 -20 -61 -39 -96 -57s-65 -32 -91 -41c-30 -10 -59 -15 -87 -15zM818 914c-11 0 -28 10 -51 30c-23 19 -46 40 -68 62s-38 38 -47 49
c-39 -31 -78 -56 -115 -76c-37 -21 -69 -36 -94 -46c-26 -11 -40 -16 -42 -16c-4 0 -8 2 -12 5s-6 7 -6 11c0 1 12 13 37 37c24 23 52 50 85 80c32 30 62 57 90 80c27 23 44 35 51 35c13 0 31 -10 54 -31c22 -21 44 -45 67 -72c22 -28 41 -54 57 -77c15 -23 23 -37 23 -42
c0 -9 -3 -16 -10 -21s-14 -8 -19 -8z" />
    <glyph glyph-name="Atilde" unicode="&#xc3;" 
d="M245 251l94 17c21 4 45 8 72 13c26 4 48 7 67 10l106 15l41 7c3 11 7 35 13 72c6 36 13 77 20 123s14 89 20 130c5 29 7 70 7 123v24c0 34 -2 57 -5 68c-4 11 -12 18 -24 22c-3 2 -6 3 -9 4s-7 1 -10 1c-4 0 -10 -1 -17 -2c-65 -15 -133 -76 -205 -185
c-19 -29 -41 -68 -64 -116c-24 -48 -43 -90 -56 -125c-9 -25 -19 -56 -29 -94c-11 -38 -18 -69 -23 -93l-2 -10c0 -3 1 -4 4 -4zM838 -294c-12 0 -23 1 -33 3c-91 22 -150 98 -179 227c-5 25 -8 55 -11 90s-4 71 -4 106c0 37 2 69 5 97l2 36l-5 1c-13 0 -41 -3 -84 -9
c-44 -6 -91 -13 -141 -20c-51 -8 -94 -15 -130 -22c-2 -1 -4 -1 -6 -1c-7 -1 -11 -2 -14 -5s-6 -9 -8 -19c-2 -11 -4 -27 -7 -50c-1 -5 -1 -11 -2 -17c-10 -73 -15 -142 -15 -207l1 -53l2 -58c0 -8 0 -14 -1 -17s-1 -5 -2 -6s-3 -2 -4 -2c-10 0 -18 10 -25 29
c-1 4 -3 13 -4 26s-3 28 -4 45l-2 51c0 69 8 157 23 264v1c0 3 -2 5 -7 5c-2 -1 -9 -2 -20 -3c-12 -1 -26 -3 -41 -4c-50 -6 -82 -9 -95 -9c-5 0 -8 0 -10 1c-3 0 -5 1 -7 2c-7 3 -10 7 -10 11c0 3 4 6 12 9c4 1 15 3 32 6s36 6 59 9s42 7 59 10s26 5 29 6c2 1 4 3 6 6
s4 8 6 15c1 7 3 17 5 30c21 105 59 209 112 313c31 61 66 117 103 167c37 49 72 85 104 108c35 22 70 33 106 33c46 0 86 -17 120 -51c15 -16 26 -37 33 -62c6 -25 9 -60 9 -103c0 -33 -1 -65 -4 -96c-3 -32 -10 -82 -20 -150l-16 -113l5 -1l12 1c75 12 119 18 134 18
c13 0 24 -2 33 -7s14 -11 15 -18v-3c0 -4 -2 -7 -5 -9c-3 -3 -10 -5 -20 -6c-10 -2 -24 -4 -43 -7l-55 -7c-2 -1 -7 -1 -15 -2c-9 -1 -18 -3 -28 -4s-19 -1 -26 -2c-8 -1 -12 -2 -13 -3s-2 -7 -4 -20s-4 -28 -6 -47c-4 -26 -6 -52 -7 -77s-2 -63 -3 -114c0 -35 0 -63 1 -82
c0 -20 1 -36 2 -47s2 -21 4 -30c13 -59 33 -99 60 -118c9 -7 22 -10 39 -10c12 0 25 2 40 6c21 5 52 18 91 38c39 19 74 40 107 62c30 21 82 58 156 113s141 106 202 153c63 49 119 89 168 120c48 31 79 46 93 46c5 0 10 -1 14 -4s6 -7 6 -10c0 -5 -39 -34 -116 -87
c-18 -13 -40 -29 -66 -48c-27 -19 -51 -38 -74 -55c-65 -50 -131 -100 -198 -151c-68 -51 -117 -86 -146 -105c-29 -20 -61 -39 -96 -57s-65 -32 -91 -41c-30 -10 -59 -15 -87 -15zM829 960c-29 0 -60 6 -91 19c-31 12 -63 26 -94 42c-30 15 -59 28 -88 39s-55 17 -79 17
c-27 0 -49 -4 -66 -11c-17 -8 -31 -17 -41 -28s-18 -21 -25 -30c-7 -10 -13 -17 -19 -22l-7 -2c-5 0 -9 3 -14 8s-8 12 -8 23c0 15 9 32 26 53s41 39 73 55c32 15 70 23 114 23c39 0 76 -6 109 -19s64 -27 92 -42c22 -11 43 -21 62 -29s38 -12 56 -12c21 0 41 8 60 23
s37 41 56 78c4 7 10 10 17 10s15 -3 23 -9c7 -7 11 -16 11 -28c0 -21 -6 -43 -19 -68s-32 -46 -57 -63c-25 -18 -55 -27 -91 -27z" />
    <glyph glyph-name="Adieresis" unicode="&#xc4;" 
d="M245 251l94 17c21 4 45 8 72 13c26 4 48 7 67 10l106 15l41 7c3 11 7 35 13 72c6 36 13 77 20 123s14 89 20 130c5 29 7 70 7 123v24c0 34 -2 57 -5 68c-4 11 -12 18 -24 22c-3 2 -6 3 -9 4s-7 1 -10 1c-4 0 -10 -1 -17 -2c-65 -15 -133 -76 -205 -185
c-19 -29 -41 -68 -64 -116c-24 -48 -43 -90 -56 -125c-9 -25 -19 -56 -29 -94c-11 -38 -18 -69 -23 -93l-2 -10c0 -3 1 -4 4 -4zM838 -294c-12 0 -23 1 -33 3c-91 22 -150 98 -179 227c-5 25 -8 55 -11 90s-4 71 -4 106c0 37 2 69 5 97l2 36l-5 1c-13 0 -41 -3 -84 -9
c-44 -6 -91 -13 -141 -20c-51 -8 -94 -15 -130 -22c-2 -1 -4 -1 -6 -1c-7 -1 -11 -2 -14 -5s-6 -9 -8 -19c-2 -11 -4 -27 -7 -50c-1 -5 -1 -11 -2 -17c-10 -73 -15 -142 -15 -207l1 -53l2 -58c0 -8 0 -14 -1 -17s-1 -5 -2 -6s-3 -2 -4 -2c-10 0 -18 10 -25 29
c-1 4 -3 13 -4 26s-3 28 -4 45l-2 51c0 69 8 157 23 264v1c0 3 -2 5 -7 5c-2 -1 -9 -2 -20 -3c-12 -1 -26 -3 -41 -4c-50 -6 -82 -9 -95 -9c-5 0 -8 0 -10 1c-3 0 -5 1 -7 2c-7 3 -10 7 -10 11c0 3 4 6 12 9c4 1 15 3 32 6s36 6 59 9s42 7 59 10s26 5 29 6c2 1 4 3 6 6
s4 8 6 15c1 7 3 17 5 30c21 105 59 209 112 313c31 61 66 117 103 167c37 49 72 85 104 108c35 22 70 33 106 33c46 0 86 -17 120 -51c15 -16 26 -37 33 -62c6 -25 9 -60 9 -103c0 -33 -1 -65 -4 -96c-3 -32 -10 -82 -20 -150l-16 -113l5 -1l12 1c75 12 119 18 134 18
c13 0 24 -2 33 -7s14 -11 15 -18v-3c0 -4 -2 -7 -5 -9c-3 -3 -10 -5 -20 -6c-10 -2 -24 -4 -43 -7l-55 -7c-2 -1 -7 -1 -15 -2c-9 -1 -18 -3 -28 -4s-19 -1 -26 -2c-8 -1 -12 -2 -13 -3s-2 -7 -4 -20s-4 -28 -6 -47c-4 -26 -6 -52 -7 -77s-2 -63 -3 -114c0 -35 0 -63 1 -82
c0 -20 1 -36 2 -47s2 -21 4 -30c13 -59 33 -99 60 -118c9 -7 22 -10 39 -10c12 0 25 2 40 6c21 5 52 18 91 38c39 19 74 40 107 62c30 21 82 58 156 113s141 106 202 153c63 49 119 89 168 120c48 31 79 46 93 46c5 0 10 -1 14 -4s6 -7 6 -10c0 -5 -39 -34 -116 -87
c-18 -13 -40 -29 -66 -48c-27 -19 -51 -38 -74 -55c-65 -50 -131 -100 -198 -151c-68 -51 -117 -86 -146 -105c-29 -20 -61 -39 -96 -57s-65 -32 -91 -41c-30 -10 -59 -15 -87 -15zM733 964c-9 0 -18 1 -29 4c-21 7 -37 17 -47 30c-11 13 -16 28 -16 43c0 17 6 32 18 45
c11 13 28 19 49 19c31 0 54 -8 69 -24c15 -17 22 -34 22 -52c0 -17 -6 -32 -17 -45s-28 -20 -49 -20zM512 964c-9 0 -18 1 -29 4c-21 7 -37 17 -47 30c-11 13 -16 28 -16 43c0 17 6 32 18 45c11 13 28 19 49 19c31 0 54 -8 69 -24c15 -17 22 -34 22 -52
c0 -17 -6 -32 -17 -45s-28 -20 -49 -20z" />
    <glyph glyph-name="Aring" unicode="&#xc5;" 
d="M636 925c8 0 17 4 27 13c9 9 18 19 25 30s10 20 10 28c0 20 -3 35 -8 44s-12 13 -20 13c-16 0 -31 -17 -46 -50c-3 -18 -5 -33 -5 -44c0 -12 2 -21 5 -26s7 -8 12 -8zM706 895c16 -9 32 -20 47 -35c15 -16 26 -37 33 -62c6 -25 9 -60 9 -103c0 -33 -1 -65 -4 -96
c-3 -32 -10 -82 -20 -150l-16 -113l5 -1l12 1c75 12 119 18 134 18c13 0 24 -2 33 -7s14 -11 15 -18v-3c0 -4 -2 -7 -5 -9c-3 -3 -10 -5 -20 -6c-10 -2 -24 -4 -43 -7l-55 -7c-2 -1 -7 -1 -15 -2c-9 -1 -18 -3 -28 -4s-19 -1 -26 -2c-8 -1 -12 -2 -13 -3s-2 -7 -4 -20
s-4 -28 -6 -47c-4 -26 -6 -52 -7 -77s-2 -63 -3 -114c0 -35 0 -63 1 -82c0 -20 1 -36 2 -47s2 -21 4 -30c13 -59 33 -99 60 -118c9 -7 22 -10 39 -10c12 0 25 2 40 6c21 5 52 18 91 38c39 19 74 40 107 62c30 21 82 58 156 113s141 106 202 153c63 49 119 89 168 120
c48 31 79 46 93 46c5 0 10 -1 14 -4s6 -7 6 -10c0 -5 -39 -34 -116 -87c-18 -13 -40 -29 -66 -48c-27 -19 -51 -38 -74 -55c-65 -50 -131 -100 -198 -151c-68 -51 -117 -86 -146 -105c-29 -20 -61 -39 -96 -57s-65 -32 -91 -41c-30 -10 -59 -15 -87 -15c-12 0 -23 1 -33 3
c-91 22 -150 98 -179 227c-5 25 -8 55 -11 90s-4 71 -4 106c0 37 2 69 5 97l2 36l-5 1c-13 0 -41 -3 -84 -9c-44 -6 -91 -13 -141 -20c-51 -8 -94 -15 -130 -22c-2 -1 -4 -1 -6 -1c-7 -1 -11 -2 -14 -5s-6 -9 -8 -19c-2 -11 -4 -27 -7 -50c-1 -5 -1 -11 -2 -17
c-10 -73 -15 -142 -15 -207l1 -53l2 -58c0 -8 0 -14 -1 -17s-1 -5 -2 -6s-3 -2 -4 -2c-10 0 -18 10 -25 29c-1 4 -3 13 -4 26s-3 28 -4 45l-2 51c0 69 8 157 23 264v1c0 3 -2 5 -7 5c-2 -1 -9 -2 -20 -3c-12 -1 -26 -3 -41 -4c-50 -6 -82 -9 -95 -9c-5 0 -8 0 -10 1
c-3 0 -5 1 -7 2c-7 3 -10 7 -10 11c0 3 4 6 12 9c4 1 15 3 32 6s36 6 59 9s42 7 59 10s26 5 29 6c2 1 4 3 6 6s4 8 6 15c1 7 3 17 5 30c21 105 59 209 112 313c31 61 66 117 103 167c37 49 72 85 104 108c16 10 31 18 47 23c-13 10 -24 23 -34 38c-13 21 -20 47 -20 78
c0 36 11 67 34 94c23 26 46 39 71 39c2 0 8 -1 17 -2s18 -5 28 -11c9 -6 16 -16 21 -30c15 -9 29 -25 43 -48c13 -24 20 -50 20 -77c0 -36 -10 -63 -31 -80zM623 879c-1 -1 -2 -1 -3 -1c-65 -15 -133 -76 -205 -185c-19 -29 -41 -68 -64 -116c-24 -48 -43 -90 -56 -125
c-9 -25 -19 -56 -29 -94c-11 -38 -18 -69 -23 -93l-2 -10c0 -3 1 -4 4 -4l94 17c21 4 45 8 72 13c26 4 48 7 67 10l106 15l41 7c3 11 7 35 13 72c6 36 13 77 20 123s14 89 20 130c5 29 7 70 7 123v24c0 34 -2 57 -5 68c-4 11 -12 18 -24 22c-3 2 -6 3 -9 4s-7 1 -10 1
s-8 0 -14 -1z" />
    <glyph glyph-name="AE" unicode="&#xc6;" horiz-adv-x="2328" 
d="M245 251l94 17c21 4 45 8 72 13c26 4 48 7 67 10l106 15l41 7c3 11 7 35 13 72c6 36 13 77 20 123s14 89 20 130c5 29 7 70 7 123v24c0 34 -2 57 -5 68c-4 11 -12 18 -24 22c-3 2 -6 3 -9 4s-7 1 -10 1c-4 0 -10 -1 -17 -2c-65 -15 -133 -76 -205 -185
c-19 -29 -41 -68 -64 -116c-24 -48 -43 -90 -56 -125c-9 -25 -19 -56 -29 -94c-11 -38 -18 -69 -23 -93l-2 -10c0 -3 1 -4 4 -4zM1117 -177c-1 -2 -3 -3 -5 -4c-29 -20 -61 -39 -96 -57s-65 -32 -91 -41c-30 -10 -59 -15 -87 -15c-12 0 -23 1 -33 3c-91 22 -150 98 -179 227
c-5 25 -8 55 -11 90s-4 71 -4 106c0 37 2 69 5 97l2 36l-5 1c-13 0 -41 -3 -84 -9c-44 -6 -91 -13 -141 -20c-51 -8 -94 -15 -130 -22c-2 -1 -4 -1 -6 -1c-7 -1 -11 -2 -14 -5s-6 -9 -8 -19c-2 -11 -4 -27 -7 -50c-1 -5 -1 -11 -2 -17c-10 -73 -15 -142 -15 -207l1 -53
l2 -58c0 -8 0 -14 -1 -17s-1 -5 -2 -6s-3 -2 -4 -2c-10 0 -18 10 -25 29c-1 4 -3 13 -4 26s-3 28 -4 45l-2 51c0 69 8 157 23 264v1c0 3 -2 5 -7 5c-2 -1 -9 -2 -20 -3c-12 -1 -26 -3 -41 -4c-50 -6 -82 -9 -95 -9c-5 0 -8 0 -10 1c-3 0 -5 1 -7 2c-7 3 -10 7 -10 11
c0 3 4 6 12 9c4 1 15 3 32 6s36 6 59 9s42 7 59 10s26 5 29 6c2 1 4 3 6 6s4 8 6 15c1 7 3 17 5 30c21 105 59 209 112 313c31 61 66 117 103 167c37 49 72 85 104 108c35 22 70 33 106 33c46 0 86 -17 120 -51c15 -16 26 -37 33 -62c6 -25 9 -60 9 -103
c0 -33 -1 -65 -4 -96c-3 -32 -10 -82 -20 -150l-16 -113l5 -1l12 1c75 12 119 18 134 18c13 0 24 -2 33 -7s14 -11 15 -18v-3c0 -4 -2 -7 -5 -9c-3 -3 -10 -5 -20 -6c-10 -2 -24 -4 -43 -7l-55 -7c-2 -1 -7 -1 -15 -2c-9 -1 -18 -3 -28 -4s-19 -1 -26 -2
c-8 -1 -12 -2 -13 -3s-2 -7 -4 -20s-4 -28 -6 -47c-4 -26 -6 -52 -7 -77s-2 -63 -3 -114c0 -35 0 -63 1 -82c0 -20 1 -36 2 -47s2 -21 4 -30c13 -59 33 -99 60 -118c9 -7 22 -10 39 -10c12 0 25 2 40 6c21 5 52 18 91 38c39 19 74 40 107 62c2 2 5 3 7 5c-2 2 -4 4 -6 7
c-31 33 -46 75 -46 126c0 41 12 87 35 140c23 52 60 109 112 172c24 28 36 45 36 50c0 1 0 2 -1 2c-46 18 -79 45 -98 81c-20 36 -30 76 -30 120c0 80 24 157 72 232s103 116 164 125l13 1c36 0 64 -11 83 -34s28 -49 28 -79c0 -19 -4 -39 -11 -58c-11 -22 -21 -33 -31 -33
c-8 0 -14 8 -17 25c-5 35 -12 60 -19 75s-15 22 -24 22c-12 0 -24 -10 -37 -31s-25 -44 -36 -71s-21 -52 -28 -74s-11 -35 -12 -39c-7 -29 -10 -58 -10 -87c0 -25 4 -47 12 -66c7 -19 21 -28 42 -28l16 2c31 8 56 12 74 12c17 0 30 -3 39 -10c20 -13 30 -26 30 -37l-1 -7
c-1 -3 -5 -6 -11 -11c-7 -5 -14 -11 -22 -16c-65 -41 -123 -104 -174 -187c-52 -84 -78 -159 -78 -226c0 -17 2 -33 7 -47l23 -41c19 -21 51 -32 96 -32c51 0 111 17 180 50s162 90 280 171c81 57 174 108 277 152c103 43 204 66 303 69h3c25 0 46 -3 61 -8s22 -11 22 -16
c0 -7 -16 -11 -48 -13l-41 2c-63 0 -129 -12 -198 -35s-136 -52 -201 -86s-122 -69 -172 -105c-151 -105 -259 -171 -324 -198c-55 -20 -107 -30 -156 -30c-23 0 -43 2 -61 7c-29 7 -55 18 -78 33z" />
    <glyph glyph-name="Ccedilla" unicode="&#xc7;" horiz-adv-x="1402" 
d="M323 -221c-54 4 -102 17 -146 41c-55 28 -98 73 -129 136c-32 62 -48 144 -48 247c0 67 8 144 23 230c20 103 48 191 83 262s74 124 116 161c41 37 81 55 118 55c29 0 55 -11 78 -34s40 -58 51 -105c5 -23 7 -45 7 -68c0 -24 -3 -49 -8 -76c-3 -12 -5 -20 -7 -23
c-2 -4 -5 -6 -9 -6c-3 0 -5 1 -7 2c-3 1 -5 3 -6 5c-1 3 -3 11 -5 25c-2 13 -4 29 -6 48c-5 54 -14 93 -25 118c-12 25 -26 37 -41 37c-27 0 -56 -32 -87 -95c-32 -63 -59 -144 -82 -242c-23 -99 -34 -200 -34 -305l1 -35c3 -104 19 -180 48 -227c29 -48 75 -74 138 -77
c14 -1 28 -1 42 -1c77 0 156 11 236 33c80 21 158 49 235 82c76 33 148 67 216 104s129 71 183 103c49 28 90 51 123 69c33 17 57 26 71 26c4 0 7 -1 9 -2c1 -1 3 -2 4 -3c1 -2 2 -4 3 -5l3 -3s1 -2 2 -2c-3 -3 -45 -28 -125 -75c-81 -47 -181 -102 -301 -163
s-241 -115 -363 -162c-118 -46 -219 -71 -304 -77c1 -48 2 -79 2 -91c0 -17 -6 -37 -19 -59c-13 -23 -33 -42 -60 -59c-29 -17 -58 -25 -88 -25c-41 3 -77 24 -106 62l36 31c18 -31 42 -46 73 -46c12 0 25 2 40 7c19 11 35 27 48 46s19 41 19 64c0 6 -1 12 -2 18v54z" />
    <glyph glyph-name="Egrave" unicode="&#xc8;" horiz-adv-x="1300" 
d="M227 -217c-23 0 -43 2 -61 7c-50 13 -90 36 -120 69c-31 33 -46 75 -46 126c0 41 12 87 35 140c23 52 60 109 111 172c24 28 36 45 36 50c0 1 0 2 -1 2c-45 18 -78 45 -98 81s-30 76 -30 120c0 80 24 157 72 232s103 116 164 125l13 1c36 0 64 -11 83 -34s29 -49 29 -79
c0 -19 -4 -39 -12 -58c-11 -22 -21 -33 -31 -33c-8 0 -14 8 -17 25c-5 35 -12 60 -19 75s-15 22 -24 22c-12 0 -24 -10 -37 -31s-25 -44 -36 -71s-21 -52 -28 -74s-11 -35 -12 -39c-7 -29 -10 -58 -10 -87c0 -25 4 -47 12 -66s22 -28 43 -28l15 2c32 8 57 12 74 12
s30 -3 39 -10c21 -13 31 -26 31 -37l-2 -7c-1 -3 -5 -6 -11 -11c-7 -5 -14 -11 -22 -16c-64 -41 -122 -104 -173 -187c-52 -84 -78 -159 -78 -226c0 -35 10 -64 29 -86c19 -23 51 -34 96 -34c51 0 111 17 180 50s162 90 280 171c81 57 174 108 277 152c103 43 204 66 303 69
h3c25 0 46 -3 61 -8s22 -11 22 -16c0 -7 -16 -11 -48 -13l-41 2c-63 0 -128 -12 -197 -35s-136 -52 -201 -86s-122 -69 -173 -105c-151 -105 -259 -171 -324 -198c-54 -20 -106 -30 -156 -30zM507 941c-2 0 -25 7 -70 22c-45 14 -95 32 -150 54c-56 22 -106 45 -149 68
s-65 43 -65 60c0 15 6 29 19 44c12 14 29 21 52 21c10 0 35 -12 76 -35s85 -51 132 -82s89 -60 125 -87c35 -27 53 -43 53 -49c0 -5 -2 -8 -5 -11s-9 -5 -18 -5z" />
    <glyph glyph-name="Eacute" unicode="&#xc9;" horiz-adv-x="1300" 
d="M227 -217c-23 0 -43 2 -61 7c-50 13 -90 36 -120 69c-31 33 -46 75 -46 126c0 41 12 87 35 140c23 52 60 109 111 172c24 28 36 45 36 50c0 1 0 2 -1 2c-45 18 -78 45 -98 81s-30 76 -30 120c0 80 24 157 72 232s103 116 164 125l13 1c36 0 64 -11 83 -34s29 -49 29 -79
c0 -19 -4 -39 -12 -58c-11 -22 -21 -33 -31 -33c-8 0 -14 8 -17 25c-5 35 -12 60 -19 75s-15 22 -24 22c-12 0 -24 -10 -37 -31s-25 -44 -36 -71s-21 -52 -28 -74s-11 -35 -12 -39c-7 -29 -10 -58 -10 -87c0 -25 4 -47 12 -66s22 -28 43 -28l15 2c32 8 57 12 74 12
s30 -3 39 -10c21 -13 31 -26 31 -37l-2 -7c-1 -3 -5 -6 -11 -11c-7 -5 -14 -11 -22 -16c-64 -41 -122 -104 -173 -187c-52 -84 -78 -159 -78 -226c0 -35 10 -64 29 -86c19 -23 51 -34 96 -34c51 0 111 17 180 50s162 90 280 171c81 57 174 108 277 152c103 43 204 66 303 69
h3c25 0 46 -3 61 -8s22 -11 22 -16c0 -7 -16 -11 -48 -13l-41 2c-63 0 -128 -12 -197 -35s-136 -52 -201 -86s-122 -69 -173 -105c-151 -105 -259 -171 -324 -198c-54 -20 -106 -30 -156 -30zM48 910c-9 0 -15 2 -18 5s-5 6 -5 11c0 6 18 22 54 49c35 27 77 56 124 87
s91 59 132 82s66 35 76 35c22 0 39 -7 52 -21c13 -15 19 -29 19 -44c0 -17 -22 -37 -65 -60s-93 -46 -149 -68s-106 -40 -150 -54c-45 -15 -68 -22 -70 -22z" />
    <glyph glyph-name="Ecircumflex" unicode="&#xca;" horiz-adv-x="1300" 
d="M227 -217c-23 0 -43 2 -61 7c-50 13 -90 36 -120 69c-31 33 -46 75 -46 126c0 41 12 87 35 140c23 52 60 109 111 172c24 28 36 45 36 50c0 1 0 2 -1 2c-45 18 -78 45 -98 81s-30 76 -30 120c0 80 24 157 72 232s103 116 164 125l13 1c36 0 64 -11 83 -34s29 -49 29 -79
c0 -19 -4 -39 -12 -58c-11 -22 -21 -33 -31 -33c-8 0 -14 8 -17 25c-5 35 -12 60 -19 75s-15 22 -24 22c-12 0 -24 -10 -37 -31s-25 -44 -36 -71s-21 -52 -28 -74s-11 -35 -12 -39c-7 -29 -10 -58 -10 -87c0 -25 4 -47 12 -66s22 -28 43 -28l15 2c32 8 57 12 74 12
s30 -3 39 -10c21 -13 31 -26 31 -37l-2 -7c-1 -3 -5 -6 -11 -11c-7 -5 -14 -11 -22 -16c-64 -41 -122 -104 -173 -187c-52 -84 -78 -159 -78 -226c0 -35 10 -64 29 -86c19 -23 51 -34 96 -34c51 0 111 17 180 50s162 90 280 171c81 57 174 108 277 152c103 43 204 66 303 69
h3c25 0 46 -3 61 -8s22 -11 22 -16c0 -7 -16 -11 -48 -13l-41 2c-63 0 -128 -12 -197 -35s-136 -52 -201 -86s-122 -69 -173 -105c-151 -105 -259 -171 -324 -198c-54 -20 -106 -30 -156 -30zM478 904c-10 0 -27 10 -50 30c-24 19 -47 40 -69 62s-37 38 -46 49
c-39 -31 -78 -56 -115 -76c-38 -21 -70 -36 -95 -46c-26 -11 -40 -16 -42 -16c-4 0 -8 2 -11 5c-4 3 -6 7 -6 11c0 1 12 13 36 37c24 23 52 50 85 80c32 30 62 57 90 80c27 23 44 35 51 35c13 0 31 -10 54 -31c22 -21 44 -45 67 -72c22 -28 41 -54 57 -77
c15 -23 23 -37 23 -42c0 -9 -3 -16 -10 -21s-14 -8 -19 -8z" />
    <glyph glyph-name="Edieresis" unicode="&#xcb;" horiz-adv-x="1300" 
d="M227 -217c-23 0 -43 2 -61 7c-50 13 -90 36 -120 69c-31 33 -46 75 -46 126c0 41 12 87 35 140c23 52 60 109 111 172c24 28 36 45 36 50c0 1 0 2 -1 2c-45 18 -78 45 -98 81s-30 76 -30 120c0 80 24 157 72 232s103 116 164 125l13 1c36 0 64 -11 83 -34s29 -49 29 -79
c0 -19 -4 -39 -12 -58c-11 -22 -21 -33 -31 -33c-8 0 -14 8 -17 25c-5 35 -12 60 -19 75s-15 22 -24 22c-12 0 -24 -10 -37 -31s-25 -44 -36 -71s-21 -52 -28 -74s-11 -35 -12 -39c-7 -29 -10 -58 -10 -87c0 -25 4 -47 12 -66s22 -28 43 -28l15 2c32 8 57 12 74 12
s30 -3 39 -10c21 -13 31 -26 31 -37l-2 -7c-1 -3 -5 -6 -11 -11c-7 -5 -14 -11 -22 -16c-64 -41 -122 -104 -173 -187c-52 -84 -78 -159 -78 -226c0 -35 10 -64 29 -86c19 -23 51 -34 96 -34c51 0 111 17 180 50s162 90 280 171c81 57 174 108 277 152c103 43 204 66 303 69
h3c25 0 46 -3 61 -8s22 -11 22 -16c0 -7 -16 -11 -48 -13l-41 2c-63 0 -128 -12 -197 -35s-136 -52 -201 -86s-122 -69 -173 -105c-151 -105 -259 -171 -324 -198c-54 -20 -106 -30 -156 -30zM403 972c-9 0 -18 1 -29 4c-21 7 -37 17 -47 30c-11 13 -16 28 -16 43
c0 17 6 32 18 45c11 13 28 19 49 19c31 0 54 -8 69 -24c15 -17 22 -34 22 -52c0 -17 -6 -32 -17 -45s-28 -20 -49 -20zM182 972c-9 0 -18 1 -29 4c-21 7 -37 17 -47 30c-11 13 -16 28 -16 43c0 17 6 32 18 45c11 13 28 19 49 19c31 0 54 -8 69 -24c15 -17 22 -34 22 -52
c0 -17 -6 -32 -17 -45s-28 -20 -49 -20z" />
    <glyph glyph-name="Igrave" unicode="&#xcc;" horiz-adv-x="1165" 
d="M250 -204l-23 1c-145 17 -233 120 -264 309c-3 25 -5 58 -5 99c0 95 6 210 18 345s25 233 39 294h-38c-9 0 -16 3 -23 10c-7 6 -10 13 -10 22s3 17 10 24c7 6 14 9 23 9h238c9 0 17 -3 24 -9c6 -7 9 -15 9 -24s-3 -16 -9 -22c-7 -7 -15 -10 -24 -10h-58
c0 -7 0 -16 -1 -26c-1 -3 -1 -7 -1 -10c-6 -58 -13 -144 -22 -259c-5 -70 -11 -138 -16 -204c-9 -95 -14 -177 -14 -247c0 -55 5 -102 14 -141s24 -68 46 -88s53 -30 93 -30c109 0 303 84 583 251c143 85 233 142 272 170c15 11 27 18 35 23c7 5 13 7 16 7c9 -1 17 -3 23 -6
c6 -4 9 -8 9 -13c0 -2 -1 -4 -2 -6c-8 -7 -39 -29 -92 -64c-54 -35 -112 -72 -173 -109c-43 -27 -93 -57 -150 -90s-116 -66 -178 -97c-63 -31 -124 -57 -185 -78s-115 -31 -164 -31zM322 977c-3 0 -26 7 -70 22c-45 14 -95 32 -151 54s-105 45 -148 68s-65 43 -65 60
c0 15 6 29 19 44c12 14 29 21 52 21c10 0 35 -12 76 -35c40 -23 84 -51 132 -82c47 -31 89 -60 124 -87s53 -43 53 -49c0 -5 -2 -8 -5 -11s-9 -5 -17 -5z" />
    <glyph glyph-name="Iacute" unicode="&#xcd;" horiz-adv-x="1165" 
d="M242 -204l-23 1c-145 17 -233 120 -264 309c-3 25 -5 58 -5 99c0 95 6 210 18 345s25 233 39 294h-38c-9 0 -16 3 -23 10c-7 6 -10 13 -10 22s3 17 10 24c7 6 14 9 23 9h238c9 0 17 -3 24 -9c6 -7 9 -15 9 -24s-3 -16 -9 -22c-7 -7 -15 -10 -24 -10h-58
c0 -7 0 -16 -1 -26c-1 -3 -1 -7 -1 -10c-6 -58 -13 -144 -22 -259c-5 -70 -11 -138 -16 -204c-9 -95 -14 -177 -14 -247c0 -55 5 -102 14 -141s24 -68 46 -88s53 -30 93 -30c109 0 303 84 583 251c143 85 233 142 272 170c15 11 27 18 35 23c7 5 13 7 16 7c9 -1 17 -3 23 -6
c6 -4 9 -8 9 -13c0 -2 -1 -4 -2 -6c-8 -7 -39 -29 -92 -64c-54 -35 -112 -72 -173 -109c-43 -27 -93 -57 -150 -90s-116 -66 -178 -97c-63 -31 -124 -57 -185 -78s-115 -31 -164 -31zM-106 968c-8 0 -14 2 -17 5s-5 6 -5 11c0 6 18 22 54 49c35 27 77 56 124 87
s91 59 132 82c40 23 65 35 75 35c23 0 40 -7 53 -21c13 -15 19 -29 19 -44c0 -17 -22 -37 -65 -60s-93 -46 -149 -68s-106 -40 -150 -54c-45 -15 -68 -22 -71 -22z" />
    <glyph glyph-name="Icircumflex" unicode="&#xce;" horiz-adv-x="1165" 
d="M238 -204l-23 1c-145 17 -233 120 -264 309c-3 25 -5 58 -5 99c0 95 6 210 18 345s25 233 39 294h-38c-9 0 -16 3 -23 10c-7 6 -10 13 -10 22s3 17 10 24c7 6 14 9 23 9h238c9 0 17 -3 24 -9c6 -7 9 -15 9 -24s-3 -16 -9 -22c-7 -7 -15 -10 -24 -10h-58
c0 -7 0 -16 -1 -26c-1 -3 -1 -7 -1 -10c-6 -58 -13 -144 -22 -259c-5 -70 -11 -138 -16 -204c-9 -95 -14 -177 -14 -247c0 -55 5 -102 14 -141s24 -68 46 -88s53 -30 93 -30c109 0 303 84 583 251c143 85 233 142 272 170c15 11 27 18 35 23c7 5 13 7 16 7c9 -1 17 -3 23 -6
c6 -4 9 -8 9 -13c0 -2 -1 -4 -2 -6c-8 -7 -39 -29 -92 -64c-54 -35 -112 -72 -173 -109c-43 -27 -93 -57 -150 -90s-116 -66 -178 -97c-63 -31 -124 -57 -185 -78s-115 -31 -164 -31zM299 958c-11 0 -28 10 -51 30c-23 19 -46 40 -68 62s-38 38 -47 49
c-39 -31 -78 -56 -115 -76c-37 -21 -69 -36 -94 -46c-26 -11 -40 -16 -42 -16c-4 0 -8 2 -12 5s-6 7 -6 11c0 1 12 13 37 37c24 23 52 50 85 80c32 30 62 57 90 80c27 23 44 35 51 35c13 0 31 -10 54 -31c22 -21 44 -45 67 -72c22 -28 41 -54 57 -77c15 -23 23 -37 23 -42
c0 -9 -3 -16 -10 -21s-14 -8 -19 -8z" />
    <glyph glyph-name="Idieresis" unicode="&#xcf;" horiz-adv-x="1165" 
d="M289 -204l-23 1c-145 17 -233 120 -264 309c-3 25 -5 58 -5 99c0 95 6 210 18 345s25 233 39 294h-38c-9 0 -16 3 -23 10c-7 6 -10 13 -10 22s3 17 10 24c7 6 14 9 23 9h238c9 0 17 -3 24 -9c6 -7 9 -15 9 -24s-3 -16 -9 -22c-7 -7 -15 -10 -24 -10h-58
c0 -7 0 -16 -1 -26c-1 -3 -1 -7 -1 -10c-6 -58 -13 -144 -22 -259c-5 -70 -11 -138 -16 -204c-9 -95 -14 -177 -14 -247c0 -55 5 -102 14 -141s24 -68 46 -88s53 -30 93 -30c109 0 303 84 583 251c143 85 233 142 272 170c15 11 27 18 35 23c7 5 13 7 16 7c9 -1 17 -3 23 -6
c6 -4 9 -8 9 -13c0 -2 -1 -4 -2 -6c-8 -7 -39 -29 -92 -64c-54 -35 -112 -72 -173 -109c-43 -27 -93 -57 -150 -90s-116 -66 -178 -97c-63 -31 -124 -57 -185 -78s-115 -31 -164 -31zM279 977c-9 0 -18 1 -29 4c-21 7 -37 17 -47 30c-11 13 -16 28 -16 43c0 17 6 32 18 45
c11 13 28 19 49 19c31 0 54 -8 69 -24c15 -17 22 -34 22 -52c0 -17 -6 -32 -17 -45s-28 -20 -49 -20zM58 977c-9 0 -18 1 -29 4c-21 7 -37 17 -47 30c-11 13 -16 28 -16 43c0 17 6 32 18 45c11 13 28 19 49 19c31 0 54 -8 69 -24c15 -17 22 -34 22 -52c0 -17 -6 -32 -17 -45
s-28 -20 -49 -20z" />
    <glyph glyph-name="Eth" unicode="&#xd0;" horiz-adv-x="1508" 
d="M144 -140c5 0 9 1 14 3c29 13 59 35 91 68c31 33 61 68 89 107c27 38 50 72 68 101c17 29 26 44 26 47c-5 -1 -15 -3 -31 -8c-17 -5 -34 -10 -52 -16s-33 -11 -44 -16c-54 -24 -96 -49 -127 -74c-31 -26 -53 -51 -66 -75c-13 -25 -19 -47 -19 -67c0 -21 5 -37 16 -50
c10 -13 22 -20 35 -20zM155 301c-9 -22 -17 -44 -25 -65c-26 -71 -45 -127 -57 -167c-5 -17 -9 -30 -12 -38l20 24c45 49 107 89 185 121c78 31 137 47 177 47c3 0 6 1 9 2c2 1 4 3 7 6s6 9 11 17c4 8 10 19 17 32c49 93 87 181 113 264c25 82 38 149 38 202
c0 31 -5 56 -14 74c-9 17 -24 26 -43 26c-21 0 -47 -12 -80 -36s-73 -62 -118 -115c-59 -71 -110 -148 -151 -229c-14 -28 -27 -54 -39 -80c14 -2 27 -4 39 -7c33 -8 50 -22 50 -43c0 -9 -3 -17 -9 -24s-15 -11 -28 -11h-90zM132 391c38 88 83 171 136 250
c58 87 113 152 166 195c64 47 120 71 168 71c46 0 83 -19 110 -58s41 -93 41 -163c0 -53 -9 -113 -26 -181c-18 -69 -46 -144 -85 -225c-8 -16 -14 -30 -19 -41s-8 -18 -8 -19c3 -1 30 -3 82 -7c51 -4 114 -8 187 -12c73 -5 141 -7 203 -7c55 0 97 3 127 8c31 7 62 16 94 28
c32 11 55 21 69 29c19 11 33 16 42 16s14 -4 14 -11v-1c0 -3 -1 -6 -2 -9c-7 -12 -33 -28 -76 -48s-92 -35 -147 -44c-24 -4 -56 -6 -95 -6c-91 0 -223 7 -395 21c-40 3 -82 6 -125 9l-17 -29c-31 -57 -70 -116 -116 -177s-85 -104 -116 -130c-31 -24 -59 -41 -84 -51
s-49 -15 -70 -15c-26 0 -49 6 -68 18c-20 11 -37 25 -50 41c-13 15 -23 30 -30 44c-7 13 -12 22 -14 27l-1 2c-6 -15 -11 -27 -14 -35c-4 -9 -7 -15 -9 -19s-4 -7 -5 -8s-1 -3 -2 -4c-1 -2 -2 -5 -3 -8c-6 -17 -17 -25 -33 -25c-10 0 -21 3 -32 10c-13 11 -24 50 -32 117
c-9 67 -15 145 -19 232c-3 43 -5 85 -6 125h-50c-19 0 -39 3 -58 8c-20 5 -30 14 -30 28c0 5 20 12 60 21c23 5 48 9 76 13c-1 15 -1 30 -1 45c-1 73 -2 117 -2 132c0 60 1 106 2 138c1 31 3 54 6 67s7 23 12 29c8 7 18 11 30 11c10 0 20 -2 30 -7c9 -5 16 -11 21 -20
c4 -15 7 -65 10 -151c1 -71 3 -147 5 -230c43 4 85 6 126 6h23zM-16 301c1 -61 2 -115 3 -164c1 -57 3 -95 5 -115l2 -25c0 1 1 5 4 12c8 26 23 73 46 142c16 49 34 99 53 150h-113z" />
    <glyph glyph-name="Ntilde" unicode="&#xd1;" horiz-adv-x="1760" 
d="M307 -250c-11 0 -21 4 -30 11s-17 19 -22 35c-8 30 -12 81 -12 153c0 59 2 126 6 202c3 75 7 150 11 224c8 127 12 222 12 284v16c0 53 -3 95 -8 127c-6 32 -19 48 -38 48s-46 -18 -83 -55c-33 -34 -57 -66 -73 -96s-26 -57 -30 -81c-5 -25 -7 -46 -7 -63l1 -31
c0 -12 -3 -18 -8 -18c-3 0 -5 1 -8 2s-6 3 -8 4c-7 6 -10 19 -10 39c0 27 7 61 20 104c13 42 32 83 59 124c27 40 61 72 103 95c17 9 33 13 49 13c31 0 59 -14 86 -43c26 -29 45 -70 58 -122c9 -41 14 -106 14 -195c0 -50 -1 -107 -4 -170v-1c0 -4 -1 -27 -3 -68
c-3 -46 -6 -98 -9 -157s-6 -111 -8 -156c-3 -45 -4 -70 -5 -73l-1 -7l1 -3c3 0 17 32 41 95c28 74 67 167 116 279s105 219 168 321c65 101 120 173 167 214c46 41 84 61 114 61c21 0 39 -8 52 -23c13 -16 23 -36 30 -61s10 -51 11 -78v-9c0 -32 -3 -70 -10 -115
s-16 -92 -26 -143c-11 -59 -22 -119 -31 -178c-9 -60 -14 -116 -14 -167c0 -41 4 -77 13 -109s23 -57 44 -75s49 -27 85 -27c15 0 32 2 50 5c54 11 114 37 179 76s129 82 192 129s116 88 161 124c45 37 73 58 85 65c11 5 22 8 32 8c7 0 12 -1 17 -3c4 -3 6 -6 6 -9
c0 -5 -6 -11 -19 -18c-15 -9 -47 -33 -96 -73c-69 -57 -151 -119 -247 -187c-96 -69 -185 -116 -267 -143c-24 -7 -50 -10 -77 -10c-43 0 -86 11 -129 32s-78 55 -106 104c-28 48 -42 113 -42 195c0 45 3 87 8 125c5 37 15 96 32 177c19 88 28 162 28 222c0 26 -2 47 -7 63
s-14 24 -26 24c-19 0 -47 -24 -86 -71s-90 -128 -154 -241c-27 -50 -61 -120 -100 -209c-39 -90 -76 -179 -111 -266s-59 -152 -74 -194c-6 -16 -15 -29 -26 -38c-12 -9 -24 -14 -36 -14zM801 931c-29 0 -59 6 -90 19c-31 12 -63 26 -95 42c-30 15 -59 28 -87 39
c-29 11 -55 17 -80 17c-27 0 -49 -4 -66 -11c-17 -8 -30 -17 -40 -28c-11 -11 -19 -21 -25 -30c-7 -10 -14 -17 -20 -22l-6 -2c-5 0 -10 3 -15 8s-8 12 -8 23c0 15 9 32 26 53s42 39 74 55c32 15 70 23 113 23c40 0 77 -6 110 -19s64 -27 92 -42c22 -11 43 -21 62 -29
s38 -12 56 -12c20 0 40 8 59 23s37 41 56 78c4 7 10 10 18 10c7 0 15 -3 22 -9c7 -7 11 -16 11 -28c0 -21 -6 -43 -19 -68s-31 -46 -56 -63c-25 -18 -55 -27 -92 -27z" />
    <glyph glyph-name="Ograve" unicode="&#xd2;" horiz-adv-x="1112" 
d="M217 -177c28 0 61 19 99 57c37 37 76 93 117 166c9 17 19 37 30 60c11 22 20 42 28 61c7 19 11 30 11 33v1c-1 1 -3 3 -6 4s-7 2 -11 3c-23 5 -48 14 -77 29c-29 14 -54 29 -74 45c-23 21 -42 42 -55 63c-14 21 -24 39 -31 53c-3 5 -5 10 -7 13c-3 -7 -8 -16 -13 -26
c-12 -21 -26 -52 -41 -94c-16 -43 -29 -105 -40 -186c-5 -43 -8 -81 -8 -114c0 -57 7 -99 21 -126c14 -28 33 -42 57 -42zM513 226c1 1 1 3 2 4c0 1 0 1 1 1c1 1 2 3 3 4s2 4 3 9c1 4 4 10 7 18s6 19 10 33c30 95 46 188 47 280v27c0 96 -13 167 -38 214
c-26 47 -56 70 -91 70c-37 0 -72 -26 -107 -77s-61 -127 -76 -226l-2 -18c5 1 8 1 11 2c2 1 4 1 7 1h11c17 0 35 -4 54 -11c18 -7 31 -16 38 -27c6 -9 9 -18 9 -25c0 -6 -2 -11 -6 -15c-3 -4 -7 -6 -11 -6c-6 0 -16 6 -29 17l-1 1c-5 4 -9 7 -12 9c-3 1 -5 2 -7 2
c-3 0 -5 -1 -8 -3c-5 -3 -10 -8 -17 -13c-7 -6 -14 -12 -20 -18s-10 -10 -11 -13l-1 -6c0 -15 11 -44 32 -89c7 -15 15 -26 22 -35s16 -20 29 -32c25 -23 48 -39 69 -48c21 -10 40 -17 57 -22c9 -3 17 -5 25 -8zM207 -233c-40 0 -76 14 -107 43s-56 67 -73 116
c-18 48 -27 101 -27 160c0 23 2 47 5 71c27 182 90 308 190 377l23 15l3 33c11 111 40 196 86 254c45 57 94 86 147 86c41 0 78 -18 113 -54c35 -37 60 -92 75 -166c5 -27 8 -61 8 -102c0 -51 -5 -109 -15 -172c-10 -64 -26 -127 -48 -189c-1 -3 -1 -5 -2 -7
c-1 -4 -2 -7 -3 -10s-2 -5 -2 -6c2 -1 14 -4 35 -8c21 -5 46 -9 76 -13c30 -5 60 -8 91 -9l43 -1c61 0 111 4 150 13c39 8 71 17 94 28s41 20 53 27c11 8 20 12 26 12c2 0 4 -1 6 -2v-1h-1l-2 -2c-1 -2 -3 -5 -6 -8c-6 -8 -16 -17 -29 -26c-13 -10 -31 -19 -53 -27
c-47 -15 -91 -26 -132 -32c-42 -7 -82 -10 -119 -10c-45 0 -87 3 -126 10c-40 6 -78 13 -115 21c-3 -2 -9 -14 -18 -37c-15 -41 -40 -93 -75 -158s-79 -122 -133 -169c-49 -38 -95 -57 -138 -57zM658 941c-3 0 -26 7 -70 22c-45 14 -95 32 -151 54s-105 45 -148 68
s-65 43 -65 60c0 15 6 29 19 44c12 14 29 21 52 21c10 0 35 -12 76 -35s85 -51 132 -82s89 -60 124 -87s53 -43 53 -49c0 -5 -2 -8 -5 -11s-9 -5 -17 -5z" />
    <glyph glyph-name="Oacute" unicode="&#xd3;" horiz-adv-x="1112" 
d="M217 -177c28 0 61 19 99 57c37 37 76 93 117 166c9 17 19 37 30 60c11 22 20 42 28 61c7 19 11 30 11 33v1c-1 1 -3 3 -6 4s-7 2 -11 3c-23 5 -48 14 -77 29c-29 14 -54 29 -74 45c-23 21 -42 42 -55 63c-14 21 -24 39 -31 53c-3 5 -5 10 -7 13c-3 -7 -8 -16 -13 -26
c-12 -21 -26 -52 -41 -94c-16 -43 -29 -105 -40 -186c-5 -43 -8 -81 -8 -114c0 -57 7 -99 21 -126c14 -28 33 -42 57 -42zM513 226c1 1 1 3 2 4c0 1 0 1 1 1c1 1 2 3 3 4s2 4 3 9c1 4 4 10 7 18s6 19 10 33c30 95 46 188 47 280v27c0 96 -13 167 -38 214
c-26 47 -56 70 -91 70c-37 0 -72 -26 -107 -77s-61 -127 -76 -226l-2 -18c5 1 8 1 11 2c2 1 4 1 7 1h11c17 0 35 -4 54 -11c18 -7 31 -16 38 -27c6 -9 9 -18 9 -25c0 -6 -2 -11 -6 -15c-3 -4 -7 -6 -11 -6c-6 0 -16 6 -29 17l-1 1c-5 4 -9 7 -12 9c-3 1 -5 2 -7 2
c-3 0 -5 -1 -8 -3c-5 -3 -10 -8 -17 -13c-7 -6 -14 -12 -20 -18s-10 -10 -11 -13l-1 -6c0 -15 11 -44 32 -89c7 -15 15 -26 22 -35s16 -20 29 -32c25 -23 48 -39 69 -48c21 -10 40 -17 57 -22c9 -3 17 -5 25 -8zM207 -233c-40 0 -76 14 -107 43s-56 67 -73 116
c-18 48 -27 101 -27 160c0 23 2 47 5 71c27 182 90 308 190 377l23 15l3 33c11 111 40 196 86 254c45 57 94 86 147 86c41 0 78 -18 113 -54c35 -37 60 -92 75 -166c5 -27 8 -61 8 -102c0 -51 -5 -109 -15 -172c-10 -64 -26 -127 -48 -189c-1 -3 -1 -5 -2 -7
c-1 -4 -2 -7 -3 -10s-2 -5 -2 -6c2 -1 14 -4 35 -8c21 -5 46 -9 76 -13c30 -5 60 -8 91 -9l43 -1c61 0 111 4 150 13c39 8 71 17 94 28s41 20 53 27c11 8 20 12 26 12c2 0 4 -1 6 -2v-1h-1l-2 -2c-1 -2 -3 -5 -6 -8c-6 -8 -16 -17 -29 -26c-13 -10 -31 -19 -53 -27
c-47 -15 -91 -26 -132 -32c-42 -7 -82 -10 -119 -10c-45 0 -87 3 -126 10c-40 6 -78 13 -115 21c-3 -2 -9 -14 -18 -37c-15 -41 -40 -93 -75 -158s-79 -122 -133 -169c-49 -38 -95 -57 -138 -57zM199 955c-8 0 -14 2 -17 5s-5 6 -5 11c0 6 18 22 54 49c35 27 77 56 124 87
s91 59 132 82c40 23 65 35 75 35c23 0 40 -7 53 -21c13 -15 19 -29 19 -44c0 -17 -22 -37 -65 -60s-93 -46 -149 -68s-106 -40 -150 -54c-45 -15 -68 -22 -71 -22z" />
    <glyph glyph-name="Ocircumflex" unicode="&#xd4;" horiz-adv-x="1112" 
d="M217 -177c28 0 61 19 99 57c37 37 76 93 117 166c9 17 19 37 30 60c11 22 20 42 28 61c7 19 11 30 11 33v1c-1 1 -3 3 -6 4s-7 2 -11 3c-23 5 -48 14 -77 29c-29 14 -54 29 -74 45c-23 21 -42 42 -55 63c-14 21 -24 39 -31 53c-3 5 -5 10 -7 13c-3 -7 -8 -16 -13 -26
c-12 -21 -26 -52 -41 -94c-16 -43 -29 -105 -40 -186c-5 -43 -8 -81 -8 -114c0 -57 7 -99 21 -126c14 -28 33 -42 57 -42zM513 226c1 1 1 3 2 4c0 1 0 1 1 1c1 1 2 3 3 4s2 4 3 9c1 4 4 10 7 18s6 19 10 33c30 95 46 188 47 280v27c0 96 -13 167 -38 214
c-26 47 -56 70 -91 70c-37 0 -72 -26 -107 -77s-61 -127 -76 -226l-2 -18c5 1 8 1 11 2c2 1 4 1 7 1h11c17 0 35 -4 54 -11c18 -7 31 -16 38 -27c6 -9 9 -18 9 -25c0 -6 -2 -11 -6 -15c-3 -4 -7 -6 -11 -6c-6 0 -16 6 -29 17l-1 1c-5 4 -9 7 -12 9c-3 1 -5 2 -7 2
c-3 0 -5 -1 -8 -3c-5 -3 -10 -8 -17 -13c-7 -6 -14 -12 -20 -18s-10 -10 -11 -13l-1 -6c0 -15 11 -44 32 -89c7 -15 15 -26 22 -35s16 -20 29 -32c25 -23 48 -39 69 -48c21 -10 40 -17 57 -22c9 -3 17 -5 25 -8zM207 -233c-40 0 -76 14 -107 43s-56 67 -73 116
c-18 48 -27 101 -27 160c0 23 2 47 5 71c27 182 90 308 190 377l23 15l3 33c11 111 40 196 86 254c45 57 94 86 147 86c41 0 78 -18 113 -54c35 -37 60 -92 75 -166c5 -27 8 -61 8 -102c0 -51 -5 -109 -15 -172c-10 -64 -26 -127 -48 -189c-1 -3 -1 -5 -2 -7
c-1 -4 -2 -7 -3 -10s-2 -5 -2 -6c2 -1 14 -4 35 -8c21 -5 46 -9 76 -13c30 -5 60 -8 91 -9l43 -1c61 0 111 4 150 13c39 8 71 17 94 28s41 20 53 27c11 8 20 12 26 12c2 0 4 -1 6 -2v-1h-1l-2 -2c-1 -2 -3 -5 -6 -8c-6 -8 -16 -17 -29 -26c-13 -10 -31 -19 -53 -27
c-47 -15 -91 -26 -132 -32c-42 -7 -82 -10 -119 -10c-45 0 -87 3 -126 10c-40 6 -78 13 -115 21c-3 -2 -9 -14 -18 -37c-15 -41 -40 -93 -75 -158s-79 -122 -133 -169c-49 -38 -95 -57 -138 -57zM642 927c-10 0 -27 10 -50 30c-24 19 -47 40 -69 62s-37 38 -46 49
c-40 -31 -79 -56 -116 -76c-37 -21 -69 -36 -94 -46c-26 -11 -40 -16 -42 -16c-4 0 -8 2 -11 5c-4 3 -6 7 -6 11c0 1 12 13 36 37c24 23 52 50 85 80c32 30 62 57 90 80c27 23 44 35 51 35c13 0 31 -10 54 -31c22 -21 44 -45 67 -72c22 -28 41 -54 57 -77
c15 -23 23 -37 23 -42c0 -9 -3 -16 -10 -21s-14 -8 -19 -8z" />
    <glyph glyph-name="Otilde" unicode="&#xd5;" horiz-adv-x="1112" 
d="M217 -177c28 0 61 19 99 57c37 37 76 93 117 166c9 17 19 37 30 60c11 22 20 42 28 61c7 19 11 30 11 33v1c-1 1 -3 3 -6 4s-7 2 -11 3c-23 5 -48 14 -77 29c-29 14 -54 29 -74 45c-23 21 -42 42 -55 63c-14 21 -24 39 -31 53c-3 5 -5 10 -7 13c-3 -7 -8 -16 -13 -26
c-12 -21 -26 -52 -41 -94c-16 -43 -29 -105 -40 -186c-5 -43 -8 -81 -8 -114c0 -57 7 -99 21 -126c14 -28 33 -42 57 -42zM513 226c1 1 1 3 2 4c0 1 0 1 1 1c1 1 2 3 3 4s2 4 3 9c1 4 4 10 7 18s6 19 10 33c30 95 46 188 47 280v27c0 96 -13 167 -38 214
c-26 47 -56 70 -91 70c-37 0 -72 -26 -107 -77s-61 -127 -76 -226l-2 -18c5 1 8 1 11 2c2 1 4 1 7 1h11c17 0 35 -4 54 -11c18 -7 31 -16 38 -27c6 -9 9 -18 9 -25c0 -6 -2 -11 -6 -15c-3 -4 -7 -6 -11 -6c-6 0 -16 6 -29 17l-1 1c-5 4 -9 7 -12 9c-3 1 -5 2 -7 2
c-3 0 -5 -1 -8 -3c-5 -3 -10 -8 -17 -13c-7 -6 -14 -12 -20 -18s-10 -10 -11 -13l-1 -6c0 -15 11 -44 32 -89c7 -15 15 -26 22 -35s16 -20 29 -32c25 -23 48 -39 69 -48c21 -10 40 -17 57 -22c9 -3 17 -5 25 -8zM207 -233c-40 0 -76 14 -107 43s-56 67 -73 116
c-18 48 -27 101 -27 160c0 23 2 47 5 71c27 182 90 308 190 377l23 15l3 33c11 111 40 196 86 254c45 57 94 86 147 86c41 0 78 -18 113 -54c35 -37 60 -92 75 -166c5 -27 8 -61 8 -102c0 -51 -5 -109 -15 -172c-10 -64 -26 -127 -48 -189c-1 -3 -1 -5 -2 -7
c-1 -4 -2 -7 -3 -10s-2 -5 -2 -6c2 -1 14 -4 35 -8c21 -5 46 -9 76 -13c30 -5 60 -8 91 -9l43 -1c61 0 111 4 150 13c39 8 71 17 94 28s41 20 53 27c11 8 20 12 26 12c2 0 4 -1 6 -2v-1h-1l-2 -2c-1 -2 -3 -5 -6 -8c-6 -8 -16 -17 -29 -26c-13 -10 -31 -19 -53 -27
c-47 -15 -91 -26 -132 -32c-42 -7 -82 -10 -119 -10c-45 0 -87 3 -126 10c-40 6 -78 13 -115 21c-3 -2 -9 -14 -18 -37c-15 -41 -40 -93 -75 -158s-79 -122 -133 -169c-49 -38 -95 -57 -138 -57zM640 971c-29 0 -59 6 -90 19c-32 12 -64 26 -95 42c-30 15 -59 28 -87 39
c-29 11 -55 17 -80 17c-27 0 -49 -4 -66 -11c-17 -8 -31 -17 -41 -28s-18 -21 -25 -30c-7 -10 -13 -17 -19 -22l-7 -2c-5 0 -9 3 -14 8s-8 12 -8 23c0 15 9 32 26 53s42 39 74 55c31 15 69 23 113 23c39 0 76 -6 109 -19s64 -27 92 -42c22 -11 43 -21 62 -29s38 -12 56 -12
c21 0 41 8 60 23s37 41 56 78c4 7 10 10 17 10s15 -3 23 -9c7 -7 11 -16 11 -28c0 -21 -6 -43 -19 -68s-31 -46 -56 -63c-25 -18 -56 -27 -92 -27z" />
    <glyph glyph-name="Odieresis" unicode="&#xd6;" horiz-adv-x="1112" 
d="M217 -177c28 0 61 19 99 57c37 37 76 93 117 166c9 17 19 37 30 60c11 22 20 42 28 61c7 19 11 30 11 33v1c-1 1 -3 3 -6 4s-7 2 -11 3c-23 5 -48 14 -77 29c-29 14 -54 29 -74 45c-23 21 -42 42 -55 63c-14 21 -24 39 -31 53c-3 5 -5 10 -7 13c-3 -7 -8 -16 -13 -26
c-12 -21 -26 -52 -41 -94c-16 -43 -29 -105 -40 -186c-5 -43 -8 -81 -8 -114c0 -57 7 -99 21 -126c14 -28 33 -42 57 -42zM513 226c1 1 1 3 2 4c0 1 0 1 1 1c1 1 2 3 3 4s2 4 3 9c1 4 4 10 7 18s6 19 10 33c30 95 46 188 47 280v27c0 96 -13 167 -38 214
c-26 47 -56 70 -91 70c-37 0 -72 -26 -107 -77s-61 -127 -76 -226l-2 -18c5 1 8 1 11 2c2 1 4 1 7 1h11c17 0 35 -4 54 -11c18 -7 31 -16 38 -27c6 -9 9 -18 9 -25c0 -6 -2 -11 -6 -15c-3 -4 -7 -6 -11 -6c-6 0 -16 6 -29 17l-1 1c-5 4 -9 7 -12 9c-3 1 -5 2 -7 2
c-3 0 -5 -1 -8 -3c-5 -3 -10 -8 -17 -13c-7 -6 -14 -12 -20 -18s-10 -10 -11 -13l-1 -6c0 -15 11 -44 32 -89c7 -15 15 -26 22 -35s16 -20 29 -32c25 -23 48 -39 69 -48c21 -10 40 -17 57 -22c9 -3 17 -5 25 -8zM207 -233c-40 0 -76 14 -107 43s-56 67 -73 116
c-18 48 -27 101 -27 160c0 23 2 47 5 71c27 182 90 308 190 377l23 15l3 33c11 111 40 196 86 254c45 57 94 86 147 86c41 0 78 -18 113 -54c35 -37 60 -92 75 -166c5 -27 8 -61 8 -102c0 -51 -5 -109 -15 -172c-10 -64 -26 -127 -48 -189c-1 -3 -1 -5 -2 -7
c-1 -4 -2 -7 -3 -10s-2 -5 -2 -6c2 -1 14 -4 35 -8c21 -5 46 -9 76 -13c30 -5 60 -8 91 -9l43 -1c61 0 111 4 150 13c39 8 71 17 94 28s41 20 53 27c11 8 20 12 26 12c2 0 4 -1 6 -2v-1h-1l-2 -2c-1 -2 -3 -5 -6 -8c-6 -8 -16 -17 -29 -26c-13 -10 -31 -19 -53 -27
c-47 -15 -91 -26 -132 -32c-42 -7 -82 -10 -119 -10c-45 0 -87 3 -126 10c-40 6 -78 13 -115 21c-3 -2 -9 -14 -18 -37c-15 -41 -40 -93 -75 -158s-79 -122 -133 -169c-49 -38 -95 -57 -138 -57zM559 972c-9 0 -18 1 -29 4c-21 7 -37 17 -47 30c-11 13 -16 28 -16 43
c0 17 6 32 18 45c11 13 28 19 49 19c31 0 54 -8 69 -24c15 -17 22 -34 22 -52c0 -17 -6 -32 -17 -45s-28 -20 -49 -20zM338 972c-9 0 -18 1 -29 4c-21 7 -37 17 -47 30c-11 13 -16 28 -16 43c0 17 6 32 18 45c11 13 28 19 49 19c31 0 54 -8 69 -24c15 -17 22 -34 22 -52
c0 -17 -6 -32 -17 -45s-28 -20 -49 -20z" />
    <glyph glyph-name="multiply" unicode="&#xd7;" horiz-adv-x="459" 
d="M423 109h-3c-7 0 -14 2 -20 7c-30 26 -83 75 -159 147c-85 -88 -135 -132 -149 -132c-12 0 -23 5 -32 14c-14 14 -20 29 -20 46c0 2 0 10 1 22c2 13 11 27 30 43c18 15 49 45 94 88c-72 78 -107 126 -107 143c0 6 1 10 5 14s7 6 9 6c5 0 18 -8 38 -24l103 -91l91 97
c24 24 43 36 55 36c25 0 38 -16 38 -50c0 -6 -2 -15 -5 -25s-12 -25 -27 -45c-15 -21 -38 -49 -69 -85c57 -47 98 -80 123 -99c14 -11 22 -17 24 -20c11 -10 16 -24 16 -42l-1 -12c-5 -22 -17 -35 -35 -38z" />
    <glyph glyph-name="Oslash" unicode="&#xd8;" horiz-adv-x="1112" 
d="M430 256h1c21 -10 40 -17 57 -22c9 -3 17 -5 25 -8c1 1 1 3 2 4c0 1 0 1 1 1c1 1 2 3 3 4s2 4 3 9c1 4 4 10 7 18s6 19 10 33c30 95 46 188 47 280v32c-31 -68 -71 -158 -120 -269c-11 -25 -23 -52 -36 -82zM341 325l18 38c62 133 121 253 178 360c10 18 19 36 28 51
c-5 16 -11 30 -17 42c-26 47 -56 70 -91 70c-37 0 -72 -26 -107 -77s-61 -127 -76 -226l-2 -18c5 1 8 1 11 2c2 1 4 1 7 1h11c17 0 35 -4 54 -11c18 -7 31 -16 38 -27c6 -9 9 -18 9 -25c0 -6 -2 -11 -6 -15c-3 -4 -7 -6 -11 -6c-6 0 -16 6 -29 17l-1 1c-5 4 -9 7 -12 9
c-3 1 -5 2 -7 2c-3 0 -5 -1 -8 -3c-5 -3 -10 -8 -17 -13c-7 -6 -14 -12 -20 -18s-10 -10 -11 -13l-1 -6c0 -15 11 -44 32 -89c7 -15 15 -26 22 -35c2 -4 5 -7 8 -11zM228 -232c-17 -40 -34 -83 -52 -127c-7 -13 -19 -20 -34 -20s-30 6 -45 19c-15 12 -23 28 -23 49
c0 6 13 42 40 109l-14 12c-31 29 -56 67 -73 116c-18 48 -27 101 -27 160c0 23 2 47 5 71c27 182 90 308 190 377l23 15l3 33c11 111 40 196 86 254c45 57 94 86 147 86c41 0 78 -18 113 -54c11 -12 21 -25 29 -40c28 45 50 75 67 88c3 2 7 3 10 3c6 0 11 -2 16 -7
c4 -5 6 -11 6 -17c0 -26 -6 -55 -19 -88c-9 -22 -21 -51 -38 -87l4 -18c5 -27 8 -61 8 -102c0 -51 -5 -109 -15 -172c-10 -64 -26 -127 -48 -189c-1 -3 -1 -5 -2 -7c-1 -4 -2 -7 -3 -10s-2 -5 -2 -6c2 -1 14 -4 35 -8c21 -5 46 -9 76 -13c30 -5 60 -8 91 -9l43 -1
c61 0 111 4 150 13c39 8 71 17 94 28s41 20 53 27c11 8 20 12 26 12c2 0 4 -1 6 -2v-1h-1l-2 -2c-1 -2 -3 -5 -6 -8c-6 -8 -16 -17 -29 -26c-13 -10 -31 -19 -53 -27c-47 -15 -91 -26 -132 -32c-42 -7 -82 -10 -119 -10c-45 0 -87 3 -126 10c-40 6 -78 13 -115 21
c-3 -2 -9 -14 -18 -37c-15 -41 -40 -93 -75 -158s-79 -122 -133 -169c-41 -32 -80 -50 -117 -56zM419 231c-43 -102 -98 -235 -165 -398c19 9 39 24 62 47c37 37 76 93 117 166c9 17 19 37 30 60c11 22 20 42 28 61c7 19 11 30 11 33v1c-1 1 -3 3 -6 4s-7 2 -11 3
c-20 4 -41 12 -66 23zM325 290c-19 18 -35 36 -46 55c-14 21 -24 39 -31 53c-3 5 -5 10 -7 13c-3 -7 -8 -16 -13 -26c-12 -21 -26 -52 -41 -94c-16 -43 -29 -105 -40 -186c-5 -43 -8 -81 -8 -114c0 -43 4 -77 12 -104c6 15 12 30 19 46c52 126 104 245 155 357z" />
    <glyph glyph-name="Ugrave" unicode="&#xd9;" horiz-adv-x="1508" 
d="M968 -253c-17 0 -33 2 -48 7c-56 18 -99 54 -129 109s-50 119 -61 194c-11 74 -16 148 -16 221c0 55 2 106 5 154s7 89 10 122c3 31 4 52 4 63c0 5 0 7 -1 8l-2 -2c-7 -15 -21 -50 -42 -107c-32 -88 -73 -191 -123 -310c-51 -119 -103 -215 -157 -288
c-36 -44 -70 -76 -101 -97s-60 -31 -87 -31c-48 0 -88 28 -121 84c-33 55 -57 130 -74 224s-25 199 -25 315c0 113 8 232 25 356c11 79 23 124 35 135c7 4 16 6 28 6c15 0 31 -2 48 -7s27 -11 30 -18v-1c-1 -10 -3 -53 -7 -130s-6 -167 -6 -270c0 -71 2 -142 6 -213
c3 -72 10 -138 19 -197s21 -107 38 -144c16 -37 37 -55 63 -55c30 0 68 31 113 93c45 61 98 164 161 308c15 33 37 87 67 160s59 146 88 219c28 73 46 128 54 163c8 39 16 68 24 85s18 25 31 25c7 0 15 -2 24 -7c16 -7 24 -22 24 -43c0 -15 -3 -51 -10 -109
c-8 -68 -16 -152 -25 -252c-9 -101 -14 -201 -14 -302c0 -71 4 -137 11 -198c7 -62 19 -114 37 -155c11 -26 26 -45 43 -56s36 -17 57 -17c27 0 55 7 86 22s61 33 92 56c31 22 60 45 88 70c69 61 123 114 163 161c39 46 70 84 91 115c16 22 29 39 40 51s21 18 32 18
c1 0 3 -1 5 -2s4 -3 5 -5l1 -3c0 -9 -13 -33 -38 -72c-26 -39 -60 -83 -102 -133c-43 -51 -90 -100 -142 -149c-53 -49 -106 -89 -161 -122s-107 -49 -156 -49zM669 972c-2 0 -25 7 -70 22c-45 14 -95 32 -150 54c-56 22 -106 45 -149 68s-65 43 -65 60c0 15 6 29 19 44
c12 14 29 21 52 21c10 0 35 -12 76 -35s85 -51 132 -82s89 -60 125 -87c35 -27 53 -43 53 -49c0 -5 -2 -8 -5 -11s-9 -5 -18 -5z" />
    <glyph glyph-name="Uacute" unicode="&#xda;" horiz-adv-x="1508" 
d="M968 -253c-17 0 -33 2 -48 7c-56 18 -99 54 -129 109s-50 119 -61 194c-11 74 -16 148 -16 221c0 55 2 106 5 154s7 89 10 122c3 31 4 52 4 63c0 5 0 7 -1 8l-2 -2c-7 -15 -21 -50 -42 -107c-32 -88 -73 -191 -123 -310c-51 -119 -103 -215 -157 -288
c-36 -44 -70 -76 -101 -97s-60 -31 -87 -31c-48 0 -88 28 -121 84c-33 55 -57 130 -74 224s-25 199 -25 315c0 113 8 232 25 356c11 79 23 124 35 135c7 4 16 6 28 6c15 0 31 -2 48 -7s27 -11 30 -18v-1c-1 -10 -3 -53 -7 -130s-6 -167 -6 -270c0 -71 2 -142 6 -213
c3 -72 10 -138 19 -197s21 -107 38 -144c16 -37 37 -55 63 -55c30 0 68 31 113 93c45 61 98 164 161 308c15 33 37 87 67 160s59 146 88 219c28 73 46 128 54 163c8 39 16 68 24 85s18 25 31 25c7 0 15 -2 24 -7c16 -7 24 -22 24 -43c0 -15 -3 -51 -10 -109
c-8 -68 -16 -152 -25 -252c-9 -101 -14 -201 -14 -302c0 -71 4 -137 11 -198c7 -62 19 -114 37 -155c11 -26 26 -45 43 -56s36 -17 57 -17c27 0 55 7 86 22s61 33 92 56c31 22 60 45 88 70c69 61 123 114 163 161c39 46 70 84 91 115c16 22 29 39 40 51s21 18 32 18
c1 0 3 -1 5 -2s4 -3 5 -5l1 -3c0 -9 -13 -33 -38 -72c-26 -39 -60 -83 -102 -133c-43 -51 -90 -100 -142 -149c-53 -49 -106 -89 -161 -122s-107 -49 -156 -49zM290 941c-9 0 -15 2 -18 5s-5 6 -5 11c0 6 18 22 54 49c35 27 77 56 124 87s91 59 132 82s66 35 75 35
c23 0 40 -7 53 -21c13 -15 19 -29 19 -44c0 -17 -22 -37 -65 -60s-93 -46 -149 -68s-106 -40 -150 -54c-45 -15 -68 -22 -70 -22z" />
    <glyph glyph-name="Ucircumflex" unicode="&#xdb;" horiz-adv-x="1508" 
d="M968 -253c-17 0 -33 2 -48 7c-56 18 -99 54 -129 109s-50 119 -61 194c-11 74 -16 148 -16 221c0 55 2 106 5 154s7 89 10 122c3 31 4 52 4 63c0 5 0 7 -1 8l-2 -2c-7 -15 -21 -50 -42 -107c-32 -88 -73 -191 -123 -310c-51 -119 -103 -215 -157 -288
c-36 -44 -70 -76 -101 -97s-60 -31 -87 -31c-48 0 -88 28 -121 84c-33 55 -57 130 -74 224s-25 199 -25 315c0 113 8 232 25 356c11 79 23 124 35 135c7 4 16 6 28 6c15 0 31 -2 48 -7s27 -11 30 -18v-1c-1 -10 -3 -53 -7 -130s-6 -167 -6 -270c0 -71 2 -142 6 -213
c3 -72 10 -138 19 -197s21 -107 38 -144c16 -37 37 -55 63 -55c30 0 68 31 113 93c45 61 98 164 161 308c15 33 37 87 67 160s59 146 88 219c28 73 46 128 54 163c8 39 16 68 24 85s18 25 31 25c7 0 15 -2 24 -7c16 -7 24 -22 24 -43c0 -15 -3 -51 -10 -109
c-8 -68 -16 -152 -25 -252c-9 -101 -14 -201 -14 -302c0 -71 4 -137 11 -198c7 -62 19 -114 37 -155c11 -26 26 -45 43 -56s36 -17 57 -17c27 0 55 7 86 22s61 33 92 56c31 22 60 45 88 70c69 61 123 114 163 161c39 46 70 84 91 115c16 22 29 39 40 51s21 18 32 18
c1 0 3 -1 5 -2s4 -3 5 -5l1 -3c0 -9 -13 -33 -38 -72c-26 -39 -60 -83 -102 -133c-43 -51 -90 -100 -142 -149c-53 -49 -106 -89 -161 -122s-107 -49 -156 -49zM653 989c-10 0 -27 10 -50 30c-24 19 -47 40 -69 62s-37 38 -46 49c-39 -31 -78 -56 -115 -76
c-38 -21 -70 -36 -95 -46c-26 -11 -40 -16 -42 -16c-4 0 -8 2 -11 5c-4 3 -6 7 -6 11c0 1 12 13 36 37c24 23 52 50 85 80c32 30 62 57 90 80c27 23 44 35 51 35c13 0 31 -10 54 -31c22 -21 44 -45 67 -72c22 -28 41 -54 57 -77c15 -23 23 -37 23 -42c0 -9 -3 -16 -10 -21
s-14 -8 -19 -8z" />
    <glyph glyph-name="Udieresis" unicode="&#xdc;" horiz-adv-x="1508" 
d="M968 -253c-17 0 -33 2 -48 7c-56 18 -99 54 -129 109s-50 119 -61 194c-11 74 -16 148 -16 221c0 55 2 106 5 154s7 89 10 122c3 31 4 52 4 63c0 5 0 7 -1 8l-2 -2c-7 -15 -21 -50 -42 -107c-32 -88 -73 -191 -123 -310c-51 -119 -103 -215 -157 -288
c-36 -44 -70 -76 -101 -97s-60 -31 -87 -31c-48 0 -88 28 -121 84c-33 55 -57 130 -74 224s-25 199 -25 315c0 113 8 232 25 356c11 79 23 124 35 135c7 4 16 6 28 6c15 0 31 -2 48 -7s27 -11 30 -18v-1c-1 -10 -3 -53 -7 -130s-6 -167 -6 -270c0 -71 2 -142 6 -213
c3 -72 10 -138 19 -197s21 -107 38 -144c16 -37 37 -55 63 -55c30 0 68 31 113 93c45 61 98 164 161 308c15 33 37 87 67 160s59 146 88 219c28 73 46 128 54 163c8 39 16 68 24 85s18 25 31 25c7 0 15 -2 24 -7c16 -7 24 -22 24 -43c0 -15 -3 -51 -10 -109
c-8 -68 -16 -152 -25 -252c-9 -101 -14 -201 -14 -302c0 -71 4 -137 11 -198c7 -62 19 -114 37 -155c11 -26 26 -45 43 -56s36 -17 57 -17c27 0 55 7 86 22s61 33 92 56c31 22 60 45 88 70c69 61 123 114 163 161c39 46 70 84 91 115c16 22 29 39 40 51s21 18 32 18
c1 0 3 -1 5 -2s4 -3 5 -5l1 -3c0 -9 -13 -33 -38 -72c-26 -39 -60 -83 -102 -133c-43 -51 -90 -100 -142 -149c-53 -49 -106 -89 -161 -122s-107 -49 -156 -49zM610 959c-9 0 -18 1 -29 4c-21 7 -37 17 -47 30c-11 13 -16 28 -16 43c0 17 6 32 18 45c11 13 28 19 49 19
c31 0 54 -8 69 -24c15 -17 22 -34 22 -52c0 -17 -6 -32 -17 -45s-28 -20 -49 -20zM389 959c-9 0 -18 1 -29 4c-21 7 -37 17 -47 30c-11 13 -16 28 -16 43c0 17 6 32 18 45c11 13 28 19 49 19c31 0 54 -8 69 -24c15 -17 22 -34 22 -52c0 -17 -6 -32 -17 -45s-28 -20 -49 -20z
" />
    <glyph glyph-name="Yacute" unicode="&#xdd;" horiz-adv-x="1128" 
d="M444 -181c23 0 47 8 73 24c26 15 51 41 74 76s43 82 59 139c3 12 7 27 11 46c3 19 6 36 9 53s4 27 4 31v2h-1c-4 0 -21 -4 -52 -12s-66 -22 -105 -42c-39 -21 -75 -49 -107 -85c-21 -25 -37 -48 -46 -71s-14 -44 -14 -63c0 -29 9 -53 28 -71c18 -18 40 -27 67 -27z
M443 -264c-47 0 -85 15 -115 45s-45 67 -45 112c0 21 4 42 11 64c27 77 73 139 139 184c65 45 145 77 238 96c5 2 9 18 11 49c2 30 3 67 3 111c0 47 -1 97 -2 149s-3 97 -4 135c-2 38 -3 62 -4 71v2c-5 -9 -10 -18 -15 -29c-26 -49 -57 -105 -94 -170s-76 -126 -119 -184
s-85 -101 -128 -130c-41 -26 -78 -39 -111 -39c-37 0 -68 14 -94 41s-47 62 -64 107s-30 95 -38 151c-8 55 -12 112 -12 169c0 37 2 74 5 110c6 80 15 124 26 131c8 7 18 11 31 11c18 0 35 -7 50 -20l11 -11v-197c0 -85 2 -160 6 -227s13 -120 27 -158c13 -39 34 -58 63 -58
c38 0 93 40 165 120c23 26 57 73 102 142s88 137 127 204s62 112 68 134c1 8 3 16 5 24c2 7 4 13 5 16c13 23 31 35 53 35c7 0 13 -1 20 -4c16 -9 27 -47 32 -115s8 -143 8 -225c0 -81 -1 -155 -4 -222v-12c0 -1 -1 -1 -1 -2v-22c0 -1 0 -2 -1 -3v-23l-2 -37v-2l357 5
c3 0 8 -1 13 -2c5 -2 9 -4 12 -7s5 -5 5 -8c0 -1 -1 -3 -3 -4c-7 -3 -31 -6 -70 -9s-83 -5 -132 -6c-43 -2 -82 -4 -117 -6s-57 -4 -67 -7c-2 -1 -4 -12 -7 -33c-3 -27 -9 -63 -19 -108c-11 -45 -28 -93 -53 -142s-60 -93 -106 -132c-30 -22 -59 -38 -87 -48
c-28 -11 -54 -16 -79 -16zM205 981c-9 0 -15 2 -18 5s-5 6 -5 11c0 6 18 22 54 49c35 27 77 56 124 87s91 59 132 82s66 35 76 35c23 0 40 -7 53 -21c12 -15 18 -29 18 -44c0 -17 -22 -37 -65 -60s-93 -46 -148 -68c-56 -22 -106 -40 -151 -54c-45 -15 -68 -22 -70 -22z" />
    <glyph glyph-name="Thorn" unicode="&#xde;" horiz-adv-x="627" 
d="M106 -82c-25 0 -54 22 -60 61c-4 24 -6 91 -6 177c0 247 20 652 88 652c7 0 41 -3 41 -69c0 -37 -7 -82 -16 -204c33 3 64 4 94 4c254 0 380 -106 380 -211c0 -103 -121 -205 -360 -205c-40 0 -84 3 -130 9c2 -102 6 -155 6 -169c0 -31 -17 -45 -37 -45zM217 191
c175 0 288 86 288 165c0 67 -82 129 -275 129c-25 0 -53 -1 -82 -3c-6 -87 -11 -184 -11 -285c28 -4 55 -6 80 -6z" />
    <glyph glyph-name="germandbls" unicode="&#xdf;" horiz-adv-x="511" 
d="M60 -84c-32 0 -72 75 -72 328c0 584 191 662 272 662s175 -72 175 -210c0 -125 -86 -205 -131 -233c125 -93 181 -210 181 -305c0 -100 -62 -177 -171 -177c-81 0 -164 61 -164 93c0 10 8 18 18 18c25 0 39 -41 100 -41c80 0 124 63 124 143s-44 176 -139 244
c-10 -4 -14 -5 -20 -5c-25 0 -40 23 -40 42c0 9 4 17 13 20c129 40 165 162 165 208c0 65 -33 107 -77 107c-50 0 -115 -56 -159 -198c-36 -120 -45 -271 -45 -395c0 -122 9 -218 9 -231c0 -37 -18 -70 -39 -70z" />
    <glyph glyph-name="agrave" unicode="&#xe0;" horiz-adv-x="1234" 
d="M90 39l10 6c10 5 20 11 31 18s26 19 45 36c18 16 34 32 48 47s32 36 53 61c6 7 14 17 24 28s19 21 28 30s17 17 24 26s12 15 15 20c12 19 29 30 52 35l17 3c-15 16 -28 29 -41 39c-13 9 -29 14 -48 14h-3c-45 0 -89 -17 -132 -50c-43 -34 -79 -79 -108 -135
c-23 -45 -34 -85 -34 -118c0 -20 4 -37 13 -51zM531 -52c-25 0 -45 2 -61 6c-76 20 -118 84 -127 192l-3 37c-55 -73 -105 -126 -150 -161c-31 -23 -64 -34 -100 -34l-14 1c-23 1 -42 4 -57 11c-15 6 -29 17 -43 32c-8 9 -14 17 -19 24s-8 16 -11 26c-5 18 -8 36 -8 55
c0 33 8 66 24 99c53 100 128 167 227 202c43 13 84 20 123 20c40 0 74 -7 103 -20c25 -13 46 -31 62 -56s24 -51 24 -76l-1 -13c-1 -7 -2 -11 -3 -14c-2 -3 -6 -5 -12 -6c-5 -1 -8 -2 -10 -4s-4 -6 -5 -11c-2 -5 -4 -14 -6 -27c-1 -2 -1 -5 -2 -8c-7 -44 -11 -81 -11 -111
c0 -33 5 -60 14 -80c7 -16 15 -28 26 -35c10 -8 24 -13 42 -15l18 -1c33 0 79 6 137 19c57 13 109 28 155 46c46 19 99 45 160 79c61 33 113 65 157 96c17 13 34 24 52 34c17 9 30 15 38 17l4 1c5 0 9 -1 13 -3c4 -3 6 -5 6 -7c0 -1 -1 -2 -2 -3c-2 -1 -6 -3 -11 -7
c-6 -4 -12 -9 -19 -15c-22 -17 -55 -39 -99 -68s-82 -52 -114 -71c-62 -35 -120 -62 -174 -83c-55 -21 -117 -38 -186 -53c-50 -10 -96 -15 -137 -15zM533 490c-2 0 -25 7 -69 22c-45 14 -95 32 -151 54s-106 45 -149 68s-65 43 -65 60c0 15 6 29 19 44c13 14 30 21 52 21
c10 0 35 -12 76 -35s85 -51 132 -82s89 -60 125 -87c35 -27 53 -43 53 -49c0 -5 -2 -8 -5 -11s-9 -5 -18 -5z" />
    <glyph glyph-name="aacute" unicode="&#xe1;" horiz-adv-x="1234" 
d="M90 39l10 6c10 5 20 11 31 18s26 19 45 36c18 16 34 32 48 47s32 36 53 61c6 7 14 17 24 28s19 21 28 30s17 17 24 26s12 15 15 20c12 19 29 30 52 35l17 3c-15 16 -28 29 -41 39c-13 9 -29 14 -48 14h-3c-45 0 -89 -17 -132 -50c-43 -34 -79 -79 -108 -135
c-23 -45 -34 -85 -34 -118c0 -20 4 -37 13 -51zM531 -52c-25 0 -45 2 -61 6c-76 20 -118 84 -127 192l-3 37c-55 -73 -105 -126 -150 -161c-31 -23 -64 -34 -100 -34l-14 1c-23 1 -42 4 -57 11c-15 6 -29 17 -43 32c-8 9 -14 17 -19 24s-8 16 -11 26c-5 18 -8 36 -8 55
c0 33 8 66 24 99c53 100 128 167 227 202c43 13 84 20 123 20c40 0 74 -7 103 -20c25 -13 46 -31 62 -56s24 -51 24 -76l-1 -13c-1 -7 -2 -11 -3 -14c-2 -3 -6 -5 -12 -6c-5 -1 -8 -2 -10 -4s-4 -6 -5 -11c-2 -5 -4 -14 -6 -27c-1 -2 -1 -5 -2 -8c-7 -44 -11 -81 -11 -111
c0 -33 5 -60 14 -80c7 -16 15 -28 26 -35c10 -8 24 -13 42 -15l18 -1c33 0 79 6 137 19c57 13 109 28 155 46c46 19 99 45 160 79c61 33 113 65 157 96c17 13 34 24 52 34c17 9 30 15 38 17l4 1c5 0 9 -1 13 -3c4 -3 6 -5 6 -7c0 -1 -1 -2 -2 -3c-2 -1 -6 -3 -11 -7
c-6 -4 -12 -9 -19 -15c-22 -17 -55 -39 -99 -68s-82 -52 -114 -71c-62 -35 -120 -62 -174 -83c-55 -21 -117 -38 -186 -53c-50 -10 -96 -15 -137 -15zM42 482c-9 0 -15 2 -18 5s-5 6 -5 11c0 6 18 22 54 49c35 27 77 56 124 87s91 59 132 82s66 35 76 35c23 0 40 -7 53 -21
c12 -15 18 -29 18 -44c0 -17 -22 -37 -65 -60s-93 -46 -148 -68c-56 -22 -106 -40 -151 -54c-45 -15 -68 -22 -70 -22z" />
    <glyph glyph-name="acircumflex" unicode="&#xe2;" horiz-adv-x="1234" 
d="M90 39l10 6c10 5 20 11 31 18s26 19 45 36c18 16 34 32 48 47s32 36 53 61c6 7 14 17 24 28s19 21 28 30s17 17 24 26s12 15 15 20c12 19 29 30 52 35l17 3c-15 16 -28 29 -41 39c-13 9 -29 14 -48 14h-3c-45 0 -89 -17 -132 -50c-43 -34 -79 -79 -108 -135
c-23 -45 -34 -85 -34 -118c0 -20 4 -37 13 -51zM531 -52c-25 0 -45 2 -61 6c-76 20 -118 84 -127 192l-3 37c-55 -73 -105 -126 -150 -161c-31 -23 -64 -34 -100 -34l-14 1c-23 1 -42 4 -57 11c-15 6 -29 17 -43 32c-8 9 -14 17 -19 24s-8 16 -11 26c-5 18 -8 36 -8 55
c0 33 8 66 24 99c53 100 128 167 227 202c43 13 84 20 123 20c40 0 74 -7 103 -20c25 -13 46 -31 62 -56s24 -51 24 -76l-1 -13c-1 -7 -2 -11 -3 -14c-2 -3 -6 -5 -12 -6c-5 -1 -8 -2 -10 -4s-4 -6 -5 -11c-2 -5 -4 -14 -6 -27c-1 -2 -1 -5 -2 -8c-7 -44 -11 -81 -11 -111
c0 -33 5 -60 14 -80c7 -16 15 -28 26 -35c10 -8 24 -13 42 -15l18 -1c33 0 79 6 137 19c57 13 109 28 155 46c46 19 99 45 160 79c61 33 113 65 157 96c17 13 34 24 52 34c17 9 30 15 38 17l4 1c5 0 9 -1 13 -3c4 -3 6 -5 6 -7c0 -1 -1 -2 -2 -3c-2 -1 -6 -3 -11 -7
c-6 -4 -12 -9 -19 -15c-22 -17 -55 -39 -99 -68s-82 -52 -114 -71c-62 -35 -120 -62 -174 -83c-55 -21 -117 -38 -186 -53c-50 -10 -96 -15 -137 -15zM437 511c-11 0 -28 10 -51 30c-24 19 -47 40 -69 62s-37 38 -46 49c-39 -31 -78 -56 -115 -76c-38 -21 -70 -36 -95 -46
c-26 -11 -40 -16 -42 -16c-4 0 -8 2 -11 5c-4 3 -6 7 -6 11c0 1 12 13 37 37c24 23 52 50 85 80c32 30 62 57 89 80s44 35 51 35c13 0 31 -10 54 -31c22 -21 44 -45 67 -72c22 -28 41 -54 57 -77c15 -23 23 -37 23 -42c0 -9 -3 -16 -10 -21s-13 -8 -18 -8z" />
    <glyph glyph-name="atilde" unicode="&#xe3;" horiz-adv-x="1234" 
d="M79 39l10 6c10 5 20 11 31 18s26 19 45 36c18 16 34 32 48 47s32 36 53 61c6 7 14 17 24 28s19 21 28 30s17 17 24 26s12 15 15 20c12 19 29 30 52 35l17 3c-15 16 -28 29 -41 39c-13 9 -29 14 -48 14h-3c-45 0 -89 -17 -132 -50c-43 -34 -79 -79 -108 -135
c-23 -45 -34 -85 -34 -118c0 -20 4 -37 13 -51zM520 -52c-25 0 -45 2 -61 6c-76 20 -118 84 -127 192l-3 37c-55 -73 -105 -126 -150 -161c-31 -23 -64 -34 -100 -34l-14 1c-23 1 -42 4 -57 11c-15 6 -29 17 -43 32c-8 9 -14 17 -19 24s-8 16 -11 26c-5 18 -8 36 -8 55
c0 33 8 66 24 99c53 100 128 167 227 202c43 13 84 20 123 20c40 0 74 -7 103 -20c25 -13 46 -31 62 -56s24 -51 24 -76l-1 -13c-1 -7 -2 -11 -3 -14c-2 -3 -6 -5 -12 -6c-5 -1 -8 -2 -10 -4s-4 -6 -5 -11c-2 -5 -4 -14 -6 -27c-1 -2 -1 -5 -2 -8c-7 -44 -11 -81 -11 -111
c0 -33 5 -60 14 -80c7 -16 15 -28 26 -35c10 -8 24 -13 42 -15l18 -1c33 0 79 6 137 19c57 13 109 28 155 46c46 19 99 45 160 79c61 33 113 65 157 96c17 13 34 24 52 34c17 9 30 15 38 17l4 1c5 0 9 -1 13 -3c4 -3 6 -5 6 -7c0 -1 -1 -2 -2 -3c-2 -1 -6 -3 -11 -7
c-6 -4 -12 -9 -19 -15c-22 -17 -55 -39 -99 -68s-82 -52 -114 -71c-62 -35 -120 -62 -174 -83c-55 -21 -117 -38 -186 -53c-50 -10 -96 -15 -137 -15zM448 540c-29 0 -59 6 -90 19c-31 12 -63 26 -95 42c-30 15 -59 28 -87 39c-29 11 -55 17 -80 17c-27 0 -49 -4 -66 -11
c-17 -8 -30 -17 -40 -28c-11 -11 -19 -21 -26 -30c-7 -10 -13 -17 -19 -22l-6 -2c-5 0 -10 3 -15 8s-8 12 -8 23c0 15 9 32 26 53s42 39 74 55c32 15 70 23 113 23c40 0 77 -6 110 -19s63 -27 92 -42c21 -11 42 -21 62 -29c19 -8 38 -12 56 -12c20 0 40 8 59 23s37 41 56 78
c4 7 10 10 17 10c8 0 16 -3 23 -9c7 -7 11 -16 11 -28c0 -21 -6 -43 -19 -68s-31 -46 -56 -63c-25 -18 -55 -27 -92 -27z" />
    <glyph glyph-name="adieresis" unicode="&#xe4;" horiz-adv-x="1234" 
d="M90 39l10 6c10 5 20 11 31 18s26 19 45 36c18 16 34 32 48 47s32 36 53 61c6 7 14 17 24 28s19 21 28 30s17 17 24 26s12 15 15 20c12 19 29 30 52 35l17 3c-15 16 -28 29 -41 39c-13 9 -29 14 -48 14h-3c-45 0 -89 -17 -132 -50c-43 -34 -79 -79 -108 -135
c-23 -45 -34 -85 -34 -118c0 -20 4 -37 13 -51zM531 -52c-25 0 -45 2 -61 6c-76 20 -118 84 -127 192l-3 37c-55 -73 -105 -126 -150 -161c-31 -23 -64 -34 -100 -34l-14 1c-23 1 -42 4 -57 11c-15 6 -29 17 -43 32c-8 9 -14 17 -19 24s-8 16 -11 26c-5 18 -8 36 -8 55
c0 33 8 66 24 99c53 100 128 167 227 202c43 13 84 20 123 20c40 0 74 -7 103 -20c25 -13 46 -31 62 -56s24 -51 24 -76l-1 -13c-1 -7 -2 -11 -3 -14c-2 -3 -6 -5 -12 -6c-5 -1 -8 -2 -10 -4s-4 -6 -5 -11c-2 -5 -4 -14 -6 -27c-1 -2 -1 -5 -2 -8c-7 -44 -11 -81 -11 -111
c0 -33 5 -60 14 -80c7 -16 15 -28 26 -35c10 -8 24 -13 42 -15l18 -1c33 0 79 6 137 19c57 13 109 28 155 46c46 19 99 45 160 79c61 33 113 65 157 96c17 13 34 24 52 34c17 9 30 15 38 17l4 1c5 0 9 -1 13 -3c4 -3 6 -5 6 -7c0 -1 -1 -2 -2 -3c-2 -1 -6 -3 -11 -7
c-6 -4 -12 -9 -19 -15c-22 -17 -55 -39 -99 -68s-82 -52 -114 -71c-62 -35 -120 -62 -174 -83c-55 -21 -117 -38 -186 -53c-50 -10 -96 -15 -137 -15zM388 561c-9 0 -18 1 -29 4c-21 7 -37 17 -47 30c-11 13 -16 28 -16 43c0 17 6 32 18 45c11 13 28 19 49 19
c31 0 54 -8 69 -24c15 -17 22 -34 22 -52c0 -17 -6 -32 -17 -45s-28 -20 -49 -20zM167 561c-9 0 -18 1 -29 4c-21 7 -37 17 -47 30c-11 13 -16 28 -16 43c0 17 6 32 18 45c11 13 28 19 49 19c31 0 54 -8 69 -24c15 -17 22 -34 22 -52c0 -17 -6 -32 -17 -45s-28 -20 -49 -20z
" />
    <glyph glyph-name="aring" unicode="&#xe5;" horiz-adv-x="1234" 
d="M90 39l10 6c10 5 20 11 31 18s26 19 45 36c18 16 34 32 48 47s32 36 53 61c6 7 14 17 24 28s19 21 28 30s17 17 24 26s12 15 15 20c12 19 29 30 52 35l17 3c-15 16 -28 29 -41 39c-13 9 -29 14 -48 14h-3c-45 0 -89 -17 -132 -50c-43 -34 -79 -79 -108 -135
c-23 -45 -34 -85 -34 -118c0 -20 4 -37 13 -51zM270 455c6 1 12 2 19 2c4 2 9 6 14 10c9 9 18 19 25 30s10 20 10 28c0 20 -3 35 -8 44c-6 9 -13 13 -20 13c-16 0 -31 -17 -46 -50c-4 -18 -6 -33 -6 -44c0 -12 2 -21 5 -26c2 -3 4 -5 7 -7zM380 450c12 -3 24 -7 35 -12
c25 -13 46 -31 62 -56s24 -51 24 -76l-1 -13c-1 -7 -2 -11 -3 -14c-2 -3 -6 -5 -12 -6c-5 -1 -8 -2 -10 -4s-4 -6 -5 -11c-2 -5 -4 -14 -6 -27c-1 -2 -1 -5 -2 -8c-7 -44 -11 -81 -11 -111c0 -33 5 -60 14 -80c7 -16 15 -28 26 -35c10 -8 24 -13 42 -15l18 -1
c33 0 79 6 137 19c57 13 109 28 155 46c46 19 99 45 160 79c61 33 113 65 157 96c17 13 34 24 52 34c17 9 30 15 38 17l4 1c5 0 9 -1 13 -3c4 -3 6 -5 6 -7c0 -1 -1 -2 -2 -3c-2 -1 -6 -3 -11 -7c-6 -4 -12 -9 -19 -15c-22 -17 -55 -39 -99 -68s-82 -52 -114 -71
c-62 -35 -120 -62 -174 -83c-55 -21 -117 -38 -186 -53c-50 -10 -96 -15 -137 -15c-25 0 -45 2 -61 6c-76 20 -118 84 -127 192l-3 37c-55 -73 -105 -126 -150 -161c-31 -23 -64 -34 -100 -34l-14 1c-23 1 -42 4 -57 11c-15 6 -29 17 -43 32c-8 9 -14 17 -19 24
s-8 16 -11 26c-5 18 -8 36 -8 55c0 33 8 66 24 99c53 100 128 167 227 202l12 4c-8 7 -15 16 -21 26c-13 21 -20 47 -20 78c0 36 11 67 34 94c23 26 46 39 71 39c1 0 7 -1 16 -2s18 -5 28 -11c9 -6 17 -16 22 -30c15 -9 29 -25 43 -48c13 -24 20 -50 20 -77
c0 -24 -5 -45 -14 -61z" />
    <glyph glyph-name="ae" unicode="&#xe6;" horiz-adv-x="2385" 
d="M90 39l10 6c10 5 20 11 31 18s26 19 45 36c18 16 34 32 48 47s32 36 53 61c6 7 14 17 24 28s19 21 28 30s17 17 24 26s12 15 15 20c12 19 29 30 52 35l17 3c-15 16 -28 29 -41 39c-13 9 -29 14 -48 14h-3c-45 0 -89 -17 -132 -50c-43 -34 -79 -79 -108 -135
c-23 -45 -34 -85 -34 -118c0 -20 4 -37 13 -51zM1394 262c35 0 69 11 101 32c31 21 53 50 65 89c5 16 7 30 7 41c0 17 -4 29 -11 37c-8 7 -18 11 -31 11c-27 0 -59 -17 -96 -51s-63 -82 -80 -145l-1 -5c0 -4 3 -6 9 -7c5 -1 16 -2 32 -2h5zM1211 216
c-19 -13 -42 -28 -69 -46c-44 -29 -82 -52 -114 -71c-62 -35 -120 -62 -174 -83c-55 -21 -117 -38 -186 -53c-50 -10 -96 -15 -137 -15c-25 0 -45 2 -61 6c-76 20 -118 84 -127 192l-3 37c-55 -73 -105 -126 -150 -161c-31 -23 -64 -34 -100 -34l-14 1c-23 1 -42 4 -57 11
c-15 6 -29 17 -43 32c-8 9 -14 17 -19 24s-8 16 -11 26c-5 18 -8 36 -8 55c0 33 8 66 24 99c53 100 128 167 227 202c43 13 84 20 123 20c40 0 74 -7 103 -20c25 -13 46 -31 62 -56s24 -51 24 -76l-1 -13c-1 -7 -2 -11 -3 -14c-2 -3 -6 -5 -12 -6c-5 -1 -8 -2 -10 -4
s-4 -6 -5 -11c-2 -5 -4 -14 -6 -27c-1 -2 -1 -5 -2 -8c-7 -44 -11 -81 -11 -111c0 -33 5 -60 14 -80c7 -16 15 -28 26 -35c10 -8 24 -13 42 -15l18 -1c33 0 79 6 137 19c57 13 109 28 155 46c46 19 99 45 160 79c61 33 113 65 157 96c16 12 32 22 48 32c0 62 23 121 68 175
c45 55 106 88 184 101l27 2c24 0 48 -4 71 -12s42 -20 57 -36s22 -35 22 -58c0 -27 -14 -59 -41 -96c-21 -26 -44 -46 -68 -59c-24 -14 -47 -23 -70 -27c-23 -5 -44 -7 -61 -7c-23 0 -38 1 -46 4h-4v-6c0 -8 2 -22 5 -43s10 -43 21 -64c24 -37 62 -62 113 -75
c51 -14 104 -21 158 -21c37 0 72 2 104 6c121 16 231 43 328 82c97 38 174 74 231 108c57 33 87 51 88 54c1 1 3 2 5 2s4 -1 6 -3s3 -5 3 -8c0 -4 -2 -9 -6 -14c-5 -6 -13 -12 -24 -19c-4 -3 -9 -6 -16 -10c-23 -15 -57 -35 -103 -60c-47 -26 -103 -52 -168 -79
c-66 -27 -139 -51 -220 -70s-166 -29 -256 -29c-49 0 -100 4 -151 11c-60 9 -109 27 -146 52c-38 25 -66 54 -84 89c-12 24 -20 48 -24 73z" />
    <glyph glyph-name="ccedilla" unicode="&#xe7;" horiz-adv-x="927" 
d="M184 -1c-10 1 -19 3 -29 5c-62 14 -106 40 -133 79s-40 81 -40 128c0 75 25 146 76 211c20 24 44 43 71 56s54 19 81 19c25 0 48 -6 69 -17s37 -29 49 -53c11 -27 17 -51 17 -72c0 -17 -4 -29 -12 -35c-3 -1 -6 -2 -9 -2c-9 0 -16 7 -19 21c-11 55 -30 91 -57 110
c-5 3 -10 4 -15 4c-24 0 -47 -25 -69 -76c-23 -51 -36 -105 -39 -162l-1 -23c0 -50 10 -88 31 -113c21 -26 56 -39 105 -39c39 0 87 8 146 24c68 20 142 46 221 79c79 32 149 62 208 89c63 27 101 41 113 41c3 0 5 -1 5 -2c0 -3 -4 -7 -11 -12c-15 -12 -52 -31 -110 -58
c-59 -27 -124 -54 -196 -83s-137 -54 -194 -74c-33 -11 -69 -21 -110 -31c-31 -8 -61 -12 -91 -14c1 -64 2 -103 2 -117c0 -17 -6 -37 -19 -59c-13 -23 -33 -42 -60 -59c-28 -17 -57 -25 -88 -25c-41 3 -77 24 -106 62l36 31c18 -31 42 -46 73 -46c13 0 26 2 41 7
c19 11 34 27 47 46s19 41 19 64c0 6 0 12 -1 18z" />
    <glyph glyph-name="egrave" unicode="&#xe8;" horiz-adv-x="1149" 
d="M186 262c35 0 69 11 101 32c31 21 53 50 65 89c5 16 7 30 7 41c0 17 -4 29 -12 37c-8 7 -18 11 -30 11c-27 0 -59 -17 -96 -51s-63 -82 -80 -145l-1 -5c0 -4 3 -6 8 -7s16 -2 33 -2h5zM407 -9c-49 0 -99 4 -150 11c-60 9 -109 27 -147 52s-66 54 -83 89
c-18 35 -27 71 -27 108c0 63 22 122 67 177s106 88 185 101l27 2c24 0 48 -4 71 -12s42 -20 57 -36s22 -35 22 -58c0 -27 -14 -59 -41 -96c-21 -26 -44 -46 -68 -59c-24 -14 -47 -23 -70 -27c-23 -5 -44 -7 -61 -7c-23 0 -38 1 -46 4h-4v-6c0 -8 2 -22 5 -43s10 -43 21 -64
c24 -37 62 -62 113 -75c51 -14 104 -21 158 -21c37 0 71 2 104 6c121 16 230 43 327 82c97 38 175 74 232 108c57 33 87 51 88 54c1 1 3 2 5 2s4 -1 6 -3c1 -2 2 -5 2 -8c0 -4 -2 -9 -6 -14c-4 -6 -12 -12 -23 -19c-4 -3 -10 -6 -17 -10c-22 -15 -56 -35 -102 -60
c-47 -26 -103 -52 -169 -79s-139 -51 -219 -70c-81 -19 -166 -29 -257 -29zM486 556c-3 0 -26 7 -70 22c-45 14 -95 32 -150 54c-56 22 -106 45 -149 68s-65 43 -65 60c0 15 6 29 19 44c12 14 29 21 52 21c10 0 35 -12 76 -35s85 -51 132 -82s89 -60 125 -87
c35 -27 53 -43 53 -49c0 -5 -2 -8 -5 -11c-4 -3 -10 -5 -18 -5z" />
    <glyph glyph-name="eacute" unicode="&#xe9;" horiz-adv-x="1149" 
d="M186 262c35 0 69 11 101 32c31 21 53 50 65 89c5 16 7 30 7 41c0 17 -4 29 -12 37c-8 7 -18 11 -30 11c-27 0 -59 -17 -96 -51s-63 -82 -80 -145l-1 -5c0 -4 3 -6 8 -7s16 -2 33 -2h5zM407 -9c-49 0 -99 4 -150 11c-60 9 -109 27 -147 52s-66 54 -83 89
c-18 35 -27 71 -27 108c0 63 22 122 67 177s106 88 185 101l27 2c24 0 48 -4 71 -12s42 -20 57 -36s22 -35 22 -58c0 -27 -14 -59 -41 -96c-21 -26 -44 -46 -68 -59c-24 -14 -47 -23 -70 -27c-23 -5 -44 -7 -61 -7c-23 0 -38 1 -46 4h-4v-6c0 -8 2 -22 5 -43s10 -43 21 -64
c24 -37 62 -62 113 -75c51 -14 104 -21 158 -21c37 0 71 2 104 6c121 16 230 43 327 82c97 38 175 74 232 108c57 33 87 51 88 54c1 1 3 2 5 2s4 -1 6 -3c1 -2 2 -5 2 -8c0 -4 -2 -9 -6 -14c-4 -6 -12 -12 -23 -19c-4 -3 -10 -6 -17 -10c-22 -15 -56 -35 -102 -60
c-47 -26 -103 -52 -169 -79s-139 -51 -219 -70c-81 -19 -166 -29 -257 -29zM75 560c-8 0 -14 2 -17 5s-5 6 -5 11c0 6 18 22 54 49c35 27 77 56 124 87s91 59 132 82s66 35 75 35c23 0 40 -7 53 -21c13 -15 19 -29 19 -44c0 -17 -22 -37 -65 -60s-93 -46 -149 -68
s-106 -40 -150 -54c-45 -15 -68 -22 -71 -22z" />
    <glyph glyph-name="ecircumflex" unicode="&#xea;" horiz-adv-x="1149" 
d="M186 262c35 0 69 11 101 32c31 21 53 50 65 89c5 16 7 30 7 41c0 17 -4 29 -12 37c-8 7 -18 11 -30 11c-27 0 -59 -17 -96 -51s-63 -82 -80 -145l-1 -5c0 -4 3 -6 8 -7s16 -2 33 -2h5zM407 -9c-49 0 -99 4 -150 11c-60 9 -109 27 -147 52s-66 54 -83 89
c-18 35 -27 71 -27 108c0 63 22 122 67 177s106 88 185 101l27 2c24 0 48 -4 71 -12s42 -20 57 -36s22 -35 22 -58c0 -27 -14 -59 -41 -96c-21 -26 -44 -46 -68 -59c-24 -14 -47 -23 -70 -27c-23 -5 -44 -7 -61 -7c-23 0 -38 1 -46 4h-4v-6c0 -8 2 -22 5 -43s10 -43 21 -64
c24 -37 62 -62 113 -75c51 -14 104 -21 158 -21c37 0 71 2 104 6c121 16 230 43 327 82c97 38 175 74 232 108c57 33 87 51 88 54c1 1 3 2 5 2s4 -1 6 -3c1 -2 2 -5 2 -8c0 -4 -2 -9 -6 -14c-4 -6 -12 -12 -23 -19c-4 -3 -10 -6 -17 -10c-22 -15 -56 -35 -102 -60
c-47 -26 -103 -52 -169 -79s-139 -51 -219 -70c-81 -19 -166 -29 -257 -29zM446 549c-10 0 -27 10 -50 30c-24 19 -47 40 -69 62s-37 38 -46 49c-40 -31 -79 -56 -116 -76c-37 -21 -69 -36 -94 -46c-26 -11 -40 -16 -42 -16c-4 0 -8 2 -11 5c-4 3 -6 7 -6 11
c0 1 12 13 36 37c24 23 52 50 85 80c32 30 62 57 90 80c27 23 44 35 51 35c13 0 31 -10 54 -31c22 -21 44 -45 67 -72c22 -28 41 -54 57 -77c15 -23 23 -37 23 -42c0 -9 -3 -16 -10 -21s-14 -8 -19 -8z" />
    <glyph glyph-name="edieresis" unicode="&#xeb;" horiz-adv-x="1149" 
d="M186 262c35 0 69 11 101 32c31 21 53 50 65 89c5 16 7 30 7 41c0 17 -4 29 -12 37c-8 7 -18 11 -30 11c-27 0 -59 -17 -96 -51s-63 -82 -80 -145l-1 -5c0 -4 3 -6 8 -7s16 -2 33 -2h5zM407 -9c-49 0 -99 4 -150 11c-60 9 -109 27 -147 52s-66 54 -83 89
c-18 35 -27 71 -27 108c0 63 22 122 67 177s106 88 185 101l27 2c24 0 48 -4 71 -12s42 -20 57 -36s22 -35 22 -58c0 -27 -14 -59 -41 -96c-21 -26 -44 -46 -68 -59c-24 -14 -47 -23 -70 -27c-23 -5 -44 -7 -61 -7c-23 0 -38 1 -46 4h-4v-6c0 -8 2 -22 5 -43s10 -43 21 -64
c24 -37 62 -62 113 -75c51 -14 104 -21 158 -21c37 0 71 2 104 6c121 16 230 43 327 82c97 38 175 74 232 108c57 33 87 51 88 54c1 1 3 2 5 2s4 -1 6 -3c1 -2 2 -5 2 -8c0 -4 -2 -9 -6 -14c-4 -6 -12 -12 -23 -19c-4 -3 -10 -6 -17 -10c-22 -15 -56 -35 -102 -60
c-47 -26 -103 -52 -169 -79s-139 -51 -219 -70c-81 -19 -166 -29 -257 -29zM376 591c-9 0 -18 1 -29 4c-21 7 -37 17 -47 30c-11 13 -16 28 -16 43c0 17 6 32 18 45c11 13 28 19 49 19c31 0 54 -8 69 -24c15 -17 22 -34 22 -52c0 -17 -6 -32 -17 -45s-28 -20 -49 -20z
M155 591c-9 0 -18 1 -29 4c-21 7 -37 17 -47 30c-11 13 -16 28 -16 43c0 17 6 32 18 45c11 13 28 19 49 19c31 0 54 -8 69 -24c15 -17 22 -34 22 -52c0 -17 -6 -32 -17 -45s-28 -20 -49 -20z" />
    <glyph glyph-name="igrave" unicode="&#xec;" horiz-adv-x="1096" 
d="M102 -127c-19 0 -37 3 -56 9c-37 13 -65 32 -86 58s-36 57 -45 92s-13 71 -13 110c0 46 4 92 13 138c5 31 10 54 15 68s11 24 18 30c10 8 23 12 38 12c12 0 24 -2 36 -7c11 -5 20 -11 27 -20c5 -4 8 -17 8 -38s-3 -56 -8 -105c-5 -55 -7 -101 -7 -139
c0 -57 6 -98 17 -122s29 -36 53 -36c22 0 49 8 82 25s71 38 115 63c79 49 177 98 294 149s253 84 408 99l11 1c10 0 18 -1 25 -4c6 -3 9 -7 9 -11c0 -5 -6 -9 -18 -14s-32 -9 -60 -12c-68 -7 -144 -27 -228 -58c-85 -32 -166 -67 -245 -106s-143 -73 -192 -102
c-1 -1 -2 -1 -3 -1c-33 -20 -67 -38 -102 -54c-35 -17 -71 -25 -106 -25zM254 408c-3 0 -26 7 -70 22c-45 14 -95 32 -150 54c-56 22 -106 45 -149 68s-65 43 -65 60c0 15 6 29 19 44c12 14 29 21 52 21c10 0 35 -12 76 -35s85 -51 132 -82s89 -60 125 -87
c35 -27 53 -43 53 -49c0 -5 -2 -8 -5 -11c-4 -3 -10 -5 -18 -5z" />
    <glyph glyph-name="iacute" unicode="&#xed;" horiz-adv-x="1096" 
d="M42 -127c-19 0 -37 3 -56 9c-37 13 -65 32 -86 58s-36 57 -45 92s-13 71 -13 110c0 46 4 92 13 138c5 31 10 54 15 68s11 24 18 30c10 8 23 12 38 12c12 0 24 -2 36 -7c11 -5 20 -11 27 -20c5 -4 8 -17 8 -38s-3 -56 -8 -105c-5 -55 -7 -101 -7 -139c0 -57 6 -98 17 -122
s29 -36 53 -36c22 0 49 8 82 25s71 38 115 63c79 49 177 98 294 149s253 84 408 99l11 1c10 0 18 -1 25 -4c6 -3 9 -7 9 -11c0 -5 -6 -9 -18 -14s-32 -9 -60 -12c-68 -7 -144 -27 -228 -58c-85 -32 -166 -67 -245 -106s-143 -73 -192 -102c-1 -1 -2 -1 -3 -1
c-33 -20 -67 -38 -102 -54c-35 -17 -71 -25 -106 -25zM-277 419c-8 0 -14 2 -17 5c-4 3 -6 6 -6 11c0 6 18 22 54 49c35 27 77 56 124 87s91 59 132 82s66 35 76 35c23 0 40 -7 53 -21c12 -15 18 -29 18 -44c0 -17 -22 -37 -65 -60s-93 -46 -148 -68
c-56 -22 -106 -40 -150 -54c-45 -15 -68 -22 -71 -22z" />
    <glyph glyph-name="icircumflex" unicode="&#xee;" horiz-adv-x="1096" 
d="M48 -127c-19 0 -37 3 -56 9c-37 13 -65 32 -86 58s-36 57 -45 92s-13 71 -13 110c0 46 4 92 13 138c5 31 10 54 15 68s11 24 18 30c10 8 23 12 38 12c12 0 24 -2 36 -7c11 -5 20 -11 27 -20c5 -4 8 -17 8 -38s-3 -56 -8 -105c-5 -55 -7 -101 -7 -139c0 -57 6 -98 17 -122
s29 -36 53 -36c22 0 49 8 82 25s71 38 115 63c79 49 177 98 294 149s253 84 408 99l11 1c10 0 18 -1 25 -4c6 -3 9 -7 9 -11c0 -5 -6 -9 -18 -14s-32 -9 -60 -12c-68 -7 -144 -27 -228 -58c-85 -32 -166 -67 -245 -106s-143 -73 -192 -102c-1 -1 -2 -1 -3 -1
c-33 -20 -67 -38 -102 -54c-35 -17 -71 -25 -106 -25zM146 430c-10 0 -27 10 -50 30c-24 19 -47 40 -69 62s-37 38 -46 49c-40 -31 -79 -56 -116 -76c-37 -21 -69 -36 -94 -46c-26 -11 -40 -16 -42 -16c-4 0 -8 2 -11 5c-4 3 -6 7 -6 11c0 1 12 13 36 37c24 23 52 50 85 80
c32 30 62 57 90 80c27 23 44 35 51 35c13 0 31 -10 54 -31c22 -21 44 -45 67 -72c22 -28 41 -54 57 -77c15 -23 23 -37 23 -42c0 -9 -3 -16 -10 -21s-14 -8 -19 -8z" />
    <glyph glyph-name="idieresis" unicode="&#xef;" horiz-adv-x="1096" 
d="M107 -127c-19 0 -37 3 -56 9c-37 13 -65 32 -86 58s-36 57 -45 92s-13 71 -13 110c0 46 4 92 13 138c5 31 10 54 15 68s11 24 18 30c10 8 23 12 38 12c12 0 24 -2 36 -7c11 -5 20 -11 27 -20c5 -4 8 -17 8 -38s-3 -56 -8 -105c-5 -55 -7 -101 -7 -139
c0 -57 6 -98 17 -122s29 -36 53 -36c22 0 49 8 82 25s71 38 115 63c79 49 177 98 294 149s253 84 408 99l11 1c10 0 18 -1 25 -4c6 -3 9 -7 9 -11c0 -5 -6 -9 -18 -14s-32 -9 -60 -12c-68 -7 -144 -27 -228 -58c-85 -32 -166 -67 -245 -106s-143 -73 -192 -102
c-1 -1 -2 -1 -3 -1c-33 -20 -67 -38 -102 -54c-35 -17 -71 -25 -106 -25zM-78 446c-9 0 -18 1 -29 4c-21 7 -37 17 -47 30c-11 13 -16 28 -16 43c0 17 6 32 18 45c11 13 28 19 49 19c31 0 54 -8 69 -24c15 -17 22 -34 22 -52c0 -17 -6 -32 -17 -45s-28 -20 -49 -20zM143 446
c-9 0 -18 1 -29 4c-21 7 -37 17 -47 30c-11 13 -16 28 -16 43c0 17 6 32 18 45c11 13 28 19 49 19c31 0 54 -8 69 -24c15 -17 22 -34 22 -52c0 -17 -6 -32 -17 -45s-28 -20 -49 -20z" />
    <glyph glyph-name="eth" unicode="&#xf0;" horiz-adv-x="479" 
d="M288 113c31 0 56 10 74 31s29 47 33 78c-1 1 -4 5 -9 12c-10 14 -26 34 -47 59s-47 48 -76 69s-60 32 -93 32c-30 0 -52 -8 -65 -23c-14 -15 -21 -34 -21 -57c0 -28 9 -57 27 -88c17 -31 41 -58 72 -80s66 -33 105 -33zM362 597c32 -45 58 -93 81 -146
c24 -59 36 -117 36 -176c0 -49 -10 -90 -29 -124s-44 -60 -73 -77c-30 -18 -60 -27 -90 -27c-37 0 -74 11 -112 33c-39 21 -71 50 -96 87c-26 37 -39 78 -39 123s14 81 41 108s61 41 102 41c31 0 65 -9 100 -27s70 -47 105 -86c-22 86 -53 157 -92 214c-6 7 -11 15 -17 22
c-51 -20 -98 -37 -139 -50c-45 -15 -68 -22 -71 -22c-8 0 -14 2 -17 5c-4 3 -6 6 -6 11c0 6 18 22 54 49c34 26 74 53 119 83c-12 13 -22 25 -33 35c-15 15 -26 29 -35 40s-14 20 -14 27s3 14 9 20c5 5 11 8 18 8c21 0 49 -14 84 -43c14 -12 28 -26 42 -40
c23 14 45 27 66 39c41 23 66 35 76 35c23 0 40 -7 53 -21c12 -15 18 -29 18 -44c0 -17 -22 -37 -65 -60c-23 -13 -49 -25 -76 -37z" />
    <glyph glyph-name="ntilde" unicode="&#xf1;" horiz-adv-x="1506" 
d="M597 -70c-18 0 -36 3 -54 9c-51 18 -87 51 -108 99c-21 47 -32 99 -32 155c0 44 5 87 16 129c7 31 11 54 11 69s-3 22 -9 22c-16 0 -43 -28 -80 -84c-38 -57 -74 -116 -108 -178c-37 -70 -68 -111 -92 -122c-15 -8 -29 -12 -42 -12c-25 0 -45 13 -59 39
c-15 26 -25 58 -31 96c-6 37 -9 74 -9 110c0 61 2 103 5 126s9 37 18 44c8 6 17 9 28 9s21 -3 32 -8c10 -5 17 -12 21 -21c13 -35 20 -115 20 -240c0 -61 2 -91 5 -91c8 4 36 43 82 115c37 59 74 113 110 162c73 93 134 139 184 139c19 0 35 -6 47 -19c18 -19 27 -47 27 -85
s-10 -93 -29 -164c-19 -76 -29 -130 -29 -162c0 -31 8 -57 24 -78c13 -15 30 -22 50 -22c24 0 53 8 87 25c33 16 72 36 115 61c55 32 119 65 191 100c71 34 152 63 241 88s186 37 293 37c7 0 13 -2 20 -5c7 -4 10 -8 10 -12l-1 -3c-10 -8 -36 -13 -77 -15
c-190 -5 -405 -76 -645 -214l-21 -13c-35 -22 -69 -42 -104 -59c-35 -18 -71 -27 -107 -27zM532 558c-29 0 -59 6 -90 19c-32 12 -63 26 -94 41s-60 29 -88 40c-29 11 -55 17 -80 17c-27 0 -49 -4 -66 -11c-17 -8 -31 -17 -41 -28s-18 -21 -25 -30c-7 -10 -13 -17 -19 -22
l-7 -2c-5 0 -9 3 -14 8s-8 12 -8 23c0 15 9 32 26 53s42 39 74 55c31 15 69 23 113 23c39 0 76 -6 109 -19s64 -27 92 -42c22 -11 43 -21 62 -29s38 -12 56 -12c44 0 82 34 116 101c4 7 10 10 17 10s15 -3 23 -9c7 -7 11 -16 11 -28c0 -21 -6 -43 -19 -68s-31 -46 -56 -63
c-25 -18 -56 -27 -92 -27z" />
    <glyph glyph-name="ograve" unicode="&#xf2;" horiz-adv-x="1070" 
d="M265 186c3 1 5 10 8 27c3 16 4 36 4 60c0 23 -2 48 -5 74c-4 26 -11 50 -21 73c-25 56 -46 84 -61 84c-13 0 -23 -15 -30 -44c-7 -30 -14 -68 -19 -115c-3 -22 -4 -38 -4 -47c0 -17 8 -33 24 -50c15 -17 31 -31 47 -40c6 -3 13 -7 21 -10c7 -3 15 -6 22 -8
c7 -3 11 -4 13 -4h1zM158 -72c23 0 58 75 105 226l-21 7c-23 7 -43 16 -60 25s-29 18 -38 26c-9 7 -14 11 -15 12l-1 -44v-43c0 -139 10 -209 29 -209h1zM160 -166c-27 0 -54 13 -80 38c-27 25 -48 62 -65 111s-25 108 -25 177c0 77 13 166 39 267c14 47 33 80 56 101
c23 20 48 30 75 30c37 0 73 -15 108 -45s61 -68 80 -113c9 -22 15 -45 18 -70s4 -48 4 -70c0 -33 -1 -58 -4 -75c-1 -5 -1 -8 -1 -9c61 -21 127 -32 198 -32c83 0 166 10 248 29s150 38 204 58s81 32 81 37c5 0 10 -1 14 -4s6 -6 6 -10l-1 -4c-5 -8 -35 -22 -89 -43
c-55 -21 -124 -42 -209 -61c-85 -20 -174 -30 -265 -30c-67 0 -132 8 -195 23c-1 -3 -3 -10 -5 -19c-7 -27 -19 -65 -37 -113c-18 -49 -43 -93 -75 -132c-25 -27 -52 -41 -80 -41zM442 553c-3 0 -26 7 -70 22c-45 14 -95 32 -151 54s-105 45 -148 68s-65 43 -65 60
c0 15 6 29 19 44c12 14 29 21 52 21c10 0 35 -12 76 -35c40 -23 84 -51 132 -82c47 -31 89 -60 124 -87s53 -43 53 -49c0 -5 -2 -8 -5 -11s-9 -5 -17 -5z" />
    <glyph glyph-name="oacute" unicode="&#xf3;" horiz-adv-x="1070" 
d="M231 186c3 1 5 10 8 27c3 16 4 36 4 60c0 23 -2 48 -5 74c-4 26 -11 50 -21 73c-25 56 -46 84 -61 84c-13 0 -23 -15 -30 -44c-7 -30 -14 -68 -19 -115c-3 -22 -4 -38 -4 -47c0 -17 8 -33 24 -50c15 -17 31 -31 47 -40c6 -3 13 -7 21 -10c7 -3 15 -6 22 -8
c7 -3 11 -4 13 -4h1zM124 -72c23 0 58 75 105 226l-21 7c-23 7 -43 16 -60 25s-29 18 -38 26c-9 7 -14 11 -15 12l-1 -44v-43c0 -139 10 -209 29 -209h1zM126 -166c-27 0 -54 13 -80 38c-27 25 -48 62 -65 111s-25 108 -25 177c0 77 13 166 39 267c14 47 33 80 56 101
c23 20 48 30 75 30c37 0 73 -15 108 -45s61 -68 80 -113c9 -22 15 -45 18 -70s4 -48 4 -70c0 -33 -1 -58 -4 -75c-1 -5 -1 -8 -1 -9c61 -21 127 -32 198 -32c83 0 166 10 248 29s150 38 204 58s81 32 81 37c5 0 10 -1 14 -4s6 -6 6 -10l-1 -4c-5 -8 -35 -22 -89 -43
c-55 -21 -124 -42 -209 -61c-85 -20 -174 -30 -265 -30c-67 0 -132 8 -195 23c-1 -3 -3 -10 -5 -19c-7 -27 -19 -65 -37 -113c-18 -49 -43 -93 -75 -132c-25 -27 -52 -41 -80 -41zM-56 594c-8 0 -14 2 -17 5s-5 6 -5 11c0 6 18 22 53 49s77 56 125 87c47 31 91 59 132 82
c40 23 65 35 75 35c23 0 40 -7 53 -21c13 -15 19 -29 19 -44c0 -17 -22 -37 -65 -60s-93 -46 -149 -68s-106 -40 -150 -54c-45 -15 -68 -22 -71 -22z" />
    <glyph glyph-name="ocircumflex" unicode="&#xf4;" horiz-adv-x="1070" 
d="M212 186c3 1 5 10 8 27c3 16 4 36 4 60c0 23 -2 48 -5 74c-4 26 -11 50 -21 73c-25 56 -46 84 -61 84c-13 0 -23 -15 -30 -44c-7 -30 -14 -68 -19 -115c-3 -22 -4 -38 -4 -47c0 -17 8 -33 24 -50c15 -17 31 -31 47 -40c6 -3 13 -7 21 -10c7 -3 15 -6 22 -8
c7 -3 11 -4 13 -4h1zM105 -72c23 0 58 75 105 226l-21 7c-23 7 -43 16 -60 25s-29 18 -38 26c-9 7 -14 11 -15 12l-1 -44v-43c0 -139 10 -209 29 -209h1zM107 -166c-27 0 -54 13 -80 38c-27 25 -48 62 -65 111s-25 108 -25 177c0 77 13 166 39 267c14 47 33 80 56 101
c23 20 48 30 75 30c37 0 73 -15 108 -45s61 -68 80 -113c9 -22 15 -45 18 -70s4 -48 4 -70c0 -33 -1 -58 -4 -75c-1 -5 -1 -8 -1 -9c61 -21 127 -32 198 -32c83 0 166 10 248 29s150 38 204 58s81 32 81 37c5 0 10 -1 14 -4s6 -6 6 -10l-1 -4c-5 -8 -35 -22 -89 -43
c-55 -21 -124 -42 -209 -61c-85 -20 -174 -30 -265 -30c-67 0 -132 8 -195 23c-1 -3 -3 -10 -5 -19c-7 -27 -19 -65 -37 -113c-18 -49 -43 -93 -75 -132c-25 -27 -52 -41 -80 -41zM319 588c-11 0 -28 10 -51 30c-23 19 -46 40 -68 62s-38 38 -47 49
c-39 -31 -78 -56 -115 -76c-37 -21 -69 -36 -95 -46c-26 -11 -40 -16 -41 -16c-5 0 -9 2 -12 5c-4 3 -6 7 -6 11c0 1 12 13 37 37c24 23 52 50 85 80c32 30 62 57 90 80c27 23 44 35 50 35c14 0 32 -10 55 -31c22 -21 44 -45 67 -72c22 -28 41 -54 57 -77
c15 -23 23 -37 23 -42c0 -9 -3 -16 -10 -21s-14 -8 -19 -8z" />
    <glyph glyph-name="otilde" unicode="&#xf5;" horiz-adv-x="1070" 
d="M127 186c3 1 5 10 8 27c3 16 4 36 4 60c0 23 -2 48 -5 74c-4 26 -11 50 -21 73c-25 56 -46 84 -61 84c-13 0 -23 -15 -30 -44c-7 -30 -14 -68 -19 -115c-3 -22 -4 -38 -4 -47c0 -17 8 -33 24 -50c15 -17 31 -31 47 -40c6 -3 13 -7 21 -10c7 -3 15 -6 22 -8
c7 -3 11 -4 13 -4h1zM20 -72c23 0 58 75 105 226l-21 7c-23 7 -43 16 -60 25s-29 18 -38 26c-9 7 -14 11 -15 12l-1 -44v-43c0 -139 10 -209 29 -209h1zM22 -166c-27 0 -54 13 -80 38c-27 25 -48 62 -65 111s-25 108 -25 177c0 77 13 166 39 267c14 47 33 80 56 101
c23 20 48 30 75 30c37 0 73 -15 108 -45s61 -68 80 -113c9 -22 15 -45 18 -70s4 -48 4 -70c0 -33 -1 -58 -4 -75c-1 -5 -1 -8 -1 -9c61 -21 127 -32 198 -32c83 0 166 10 248 29s150 38 204 58s81 32 81 37c5 0 10 -1 14 -4s6 -6 6 -10l-1 -4c-5 -8 -35 -22 -89 -43
c-55 -21 -124 -42 -209 -61c-85 -20 -174 -30 -265 -30c-67 0 -132 8 -195 23c-1 -3 -3 -10 -5 -19c-7 -27 -19 -65 -37 -113c-18 -49 -43 -93 -75 -132c-25 -27 -52 -41 -80 -41zM246 592c-29 0 -60 6 -91 19c-31 12 -63 26 -94 42c-30 15 -59 28 -88 39s-55 17 -79 17
c-27 0 -49 -4 -66 -11c-17 -8 -31 -17 -41 -28s-18 -21 -25 -30c-7 -10 -13 -17 -19 -22l-7 -2c-5 0 -9 3 -14 8s-8 12 -8 23c0 15 9 32 26 53s41 39 73 55c32 15 70 23 114 23c39 0 76 -6 109 -19s64 -27 92 -42c22 -11 43 -21 62 -29s38 -12 56 -12c21 0 41 8 60 23
s37 41 56 78c4 7 10 10 17 10s15 -3 23 -9c7 -7 11 -16 11 -28c0 -21 -6 -43 -19 -68s-32 -46 -57 -63c-25 -18 -55 -27 -91 -27z" />
    <glyph glyph-name="odieresis" unicode="&#xf6;" horiz-adv-x="1070" 
d="M265 186c3 1 5 10 8 27c3 16 4 36 4 60c0 23 -2 48 -5 74c-4 26 -11 50 -21 73c-25 56 -46 84 -61 84c-13 0 -23 -15 -30 -44c-7 -30 -14 -68 -19 -115c-3 -22 -4 -38 -4 -47c0 -17 8 -33 24 -50c15 -17 31 -31 47 -40c6 -3 13 -7 21 -10c7 -3 15 -6 22 -8
c7 -3 11 -4 13 -4h1zM158 -72c23 0 58 75 105 226l-21 7c-23 7 -43 16 -60 25s-29 18 -38 26c-9 7 -14 11 -15 12l-1 -44v-43c0 -139 10 -209 29 -209h1zM160 -166c-27 0 -54 13 -80 38c-27 25 -48 62 -65 111s-25 108 -25 177c0 77 13 166 39 267c14 47 33 80 56 101
c23 20 48 30 75 30c37 0 73 -15 108 -45s61 -68 80 -113c9 -22 15 -45 18 -70s4 -48 4 -70c0 -33 -1 -58 -4 -75c-1 -5 -1 -8 -1 -9c61 -21 127 -32 198 -32c83 0 166 10 248 29s150 38 204 58s81 32 81 37c5 0 10 -1 14 -4s6 -6 6 -10l-1 -4c-5 -8 -35 -22 -89 -43
c-55 -21 -124 -42 -209 -61c-85 -20 -174 -30 -265 -30c-67 0 -132 8 -195 23c-1 -3 -3 -10 -5 -19c-7 -27 -19 -65 -37 -113c-18 -49 -43 -93 -75 -132c-25 -27 -52 -41 -80 -41zM309 616c-9 0 -18 1 -29 4c-21 7 -37 17 -47 30c-11 13 -16 28 -16 43c0 17 6 32 18 45
c11 13 28 19 49 19c31 0 54 -8 69 -24c15 -17 22 -34 22 -52c0 -17 -6 -32 -17 -45s-28 -20 -49 -20zM88 616c-9 0 -18 1 -29 4c-21 7 -37 17 -47 30c-11 13 -16 28 -16 43c0 17 6 32 18 45c11 13 28 19 49 19c31 0 54 -8 69 -24c15 -17 22 -34 22 -52c0 -17 -6 -32 -17 -45
s-28 -20 -49 -20z" />
    <glyph glyph-name="divide" unicode="&#xf7;" horiz-adv-x="455" 
d="M427 284h-320c-15 0 -29 3 -44 8s-23 14 -23 28c0 5 15 12 46 21c30 8 67 16 111 23s86 10 127 10c37 0 68 -4 93 -12s38 -22 38 -43c0 -9 -2 -17 -7 -24s-12 -11 -21 -11zM261 404c-9 0 -19 1 -29 4c-22 7 -38 17 -48 31c-10 13 -15 27 -15 42c0 17 6 32 18 45
c11 13 28 19 49 19c31 0 53 -8 68 -24s22 -33 22 -52c0 -17 -5 -32 -16 -45s-28 -20 -49 -20zM261 112c-9 0 -19 1 -29 4c-22 7 -38 17 -48 31c-10 13 -15 27 -15 42c0 17 6 32 18 45c11 13 28 19 49 19c31 0 53 -8 68 -24s22 -33 22 -52c0 -17 -5 -32 -16 -45
s-28 -20 -49 -20z" />
    <glyph glyph-name="oslash" unicode="&#xf8;" horiz-adv-x="1070" 
d="M102 203c-4 3 -7 6 -10 9c-9 7 -14 11 -15 12l-1 -44v-33zM118 238c29 61 57 119 84 175c-1 2 -2 5 -3 7c-25 56 -46 84 -61 84c-13 0 -23 -15 -30 -44c-7 -30 -14 -68 -19 -115c-3 -22 -4 -38 -4 -47c0 -17 8 -33 24 -50c3 -4 6 -7 9 -10zM301 386c6 -18 10 -37 13 -56
c3 -25 4 -48 4 -70c0 -33 -1 -58 -4 -75c-1 -5 -1 -8 -1 -9c61 -21 127 -32 198 -32c83 0 166 10 248 29s150 38 204 58s81 32 81 37c5 0 10 -1 14 -4s6 -6 6 -10l-1 -4c-5 -8 -35 -22 -89 -43c-55 -21 -124 -42 -209 -61c-85 -20 -174 -30 -265 -30c-67 0 -132 8 -195 23
c-1 -3 -3 -10 -5 -19c-7 -27 -19 -65 -37 -113c-18 -49 -43 -93 -75 -132c-25 -27 -52 -41 -80 -41c-14 0 -28 3 -41 10c-25 -60 -51 -125 -79 -193c-8 -13 -19 -20 -34 -20s-30 6 -45 19c-15 12 -23 28 -23 49c0 9 22 66 67 171c9 22 19 44 29 67c-7 14 -13 29 -19 46
c-17 49 -25 108 -25 177c0 77 13 166 39 267c14 47 33 80 56 101c23 20 48 30 75 30c37 0 73 -15 108 -45c8 -7 16 -15 24 -24c17 34 34 67 51 98c57 107 99 171 126 193c3 2 7 3 10 3c5 0 10 -2 15 -7s7 -11 7 -17c0 -26 -6 -55 -19 -88s-37 -86 -70 -157
c-16 -35 -36 -78 -59 -128zM102 -72h4c23 0 58 75 105 226l-11 4c-29 -67 -62 -143 -98 -230zM212 186h1c2 1 4 6 6 15c-2 -5 -5 -10 -7 -15z" />
    <glyph glyph-name="ugrave" unicode="&#xf9;" horiz-adv-x="1358" 
d="M687 1c-39 0 -75 5 -108 16c-33 10 -61 27 -84 50c-30 33 -50 70 -60 109s-15 67 -16 84c-1 4 -1 6 -1 7c0 -1 -1 -1 -1 -1l-1 -1c-2 -3 -6 -8 -12 -15c-9 -12 -20 -25 -31 -40s-21 -29 -30 -40c-9 -12 -14 -19 -15 -20c-35 -44 -68 -76 -99 -95c-31 -20 -60 -30 -87 -30
c-43 0 -77 21 -103 63c-26 41 -39 91 -39 150c0 85 11 134 33 146c8 3 17 5 26 5c12 0 25 -3 38 -8c11 -4 18 -9 23 -14c5 -6 8 -17 9 -32s2 -40 2 -75c0 -67 2 -116 7 -145c5 -30 14 -45 28 -45c11 0 27 9 46 27c19 17 43 42 73 73c29 30 64 65 105 105c10 10 17 18 20 23
s6 12 7 21c9 59 30 91 62 96c5 1 11 1 16 1c14 0 27 -3 39 -8c12 -6 20 -14 25 -24l2 -12c0 -15 -3 -36 -8 -65c-9 -45 -13 -88 -13 -129c0 -26 3 -48 10 -67c13 -30 31 -50 54 -61s48 -16 77 -16s59 2 92 7l32 4c49 6 107 21 172 45s128 50 191 79s115 54 157 76
c1 0 1 1 2 1s1 1 2 1h1v1h1c1 0 1 1 2 1l1 1h1l1 1s1 0 1 1h1c1 0 1 0 2 1c27 14 43 23 47 25h1c4 -1 8 -3 12 -5c4 -3 7 -5 9 -7c-1 -3 -25 -18 -72 -44c-47 -27 -107 -57 -180 -91c-74 -34 -153 -64 -236 -90c-84 -27 -162 -40 -234 -40zM516 487c-2 0 -25 7 -70 22
c-45 14 -95 32 -150 54c-56 22 -106 45 -149 68s-65 43 -65 60c0 15 6 29 19 44c12 14 29 21 52 21c10 0 35 -12 76 -35s85 -51 132 -82s89 -60 125 -87c35 -27 53 -43 53 -49c0 -5 -2 -8 -5 -11s-9 -5 -18 -5z" />
    <glyph glyph-name="uacute" unicode="&#xfa;" horiz-adv-x="1358" 
d="M687 1c-39 0 -75 5 -108 16c-33 10 -61 27 -84 50c-30 33 -50 70 -60 109s-15 67 -16 84c-1 4 -1 6 -1 7c0 -1 -1 -1 -1 -1l-1 -1c-2 -3 -6 -8 -12 -15c-9 -12 -20 -25 -31 -40s-21 -29 -30 -40c-9 -12 -14 -19 -15 -20c-35 -44 -68 -76 -99 -95c-31 -20 -60 -30 -87 -30
c-43 0 -77 21 -103 63c-26 41 -39 91 -39 150c0 85 11 134 33 146c8 3 17 5 26 5c12 0 25 -3 38 -8c11 -4 18 -9 23 -14c5 -6 8 -17 9 -32s2 -40 2 -75c0 -67 2 -116 7 -145c5 -30 14 -45 28 -45c11 0 27 9 46 27c19 17 43 42 73 73c29 30 64 65 105 105c10 10 17 18 20 23
s6 12 7 21c9 59 30 91 62 96c5 1 11 1 16 1c14 0 27 -3 39 -8c12 -6 20 -14 25 -24l2 -12c0 -15 -3 -36 -8 -65c-9 -45 -13 -88 -13 -129c0 -26 3 -48 10 -67c13 -30 31 -50 54 -61s48 -16 77 -16s59 2 92 7l32 4c49 6 107 21 172 45s128 50 191 79s115 54 157 76
c1 0 1 1 2 1s1 1 2 1h1v1h1c1 0 1 1 2 1l1 1h1l1 1s1 0 1 1h1c1 0 1 0 2 1c27 14 43 23 47 25h1c4 -1 8 -3 12 -5c4 -3 7 -5 9 -7c-1 -3 -25 -18 -72 -44c-47 -27 -107 -57 -180 -91c-74 -34 -153 -64 -236 -90c-84 -27 -162 -40 -234 -40zM80 482c-9 0 -15 2 -18 5
s-5 6 -5 11c0 6 18 22 54 49c35 27 77 56 124 87s91 59 132 82s66 35 76 35c23 0 40 -7 53 -21c12 -15 18 -29 18 -44c0 -17 -22 -37 -65 -60s-93 -46 -148 -68c-56 -22 -106 -40 -151 -54c-45 -15 -68 -22 -70 -22z" />
    <glyph glyph-name="ucircumflex" unicode="&#xfb;" horiz-adv-x="1358" 
d="M687 1c-39 0 -75 5 -108 16c-33 10 -61 27 -84 50c-30 33 -50 70 -60 109s-15 67 -16 84c-1 4 -1 6 -1 7c0 -1 -1 -1 -1 -1l-1 -1c-2 -3 -6 -8 -12 -15c-9 -12 -20 -25 -31 -40s-21 -29 -30 -40c-9 -12 -14 -19 -15 -20c-35 -44 -68 -76 -99 -95c-31 -20 -60 -30 -87 -30
c-43 0 -77 21 -103 63c-26 41 -39 91 -39 150c0 85 11 134 33 146c8 3 17 5 26 5c12 0 25 -3 38 -8c11 -4 18 -9 23 -14c5 -6 8 -17 9 -32s2 -40 2 -75c0 -67 2 -116 7 -145c5 -30 14 -45 28 -45c11 0 27 9 46 27c19 17 43 42 73 73c29 30 64 65 105 105c10 10 17 18 20 23
s6 12 7 21c9 59 30 91 62 96c5 1 11 1 16 1c14 0 27 -3 39 -8c12 -6 20 -14 25 -24l2 -12c0 -15 -3 -36 -8 -65c-9 -45 -13 -88 -13 -129c0 -26 3 -48 10 -67c13 -30 31 -50 54 -61s48 -16 77 -16s59 2 92 7l32 4c49 6 107 21 172 45s128 50 191 79s115 54 157 76
c1 0 1 1 2 1s1 1 2 1h1v1h1c1 0 1 1 2 1l1 1h1l1 1s1 0 1 1h1c1 0 1 0 2 1c27 14 43 23 47 25h1c4 -1 8 -3 12 -5c4 -3 7 -5 9 -7c-1 -3 -25 -18 -72 -44c-47 -27 -107 -57 -180 -91c-74 -34 -153 -64 -236 -90c-84 -27 -162 -40 -234 -40zM462 481c-10 0 -27 10 -50 30
c-24 19 -47 40 -69 62s-37 38 -46 49c-39 -31 -78 -56 -115 -76c-38 -21 -70 -36 -95 -46c-26 -11 -40 -16 -42 -16c-4 0 -8 2 -11 5c-4 3 -6 7 -6 11c0 1 12 13 37 37c24 23 52 50 84 80s62 57 90 80c27 23 44 35 51 35c13 0 31 -10 54 -31c22 -21 44 -45 67 -72
c22 -28 41 -54 57 -77c15 -23 23 -37 23 -42c0 -9 -3 -16 -10 -21s-13 -8 -19 -8z" />
    <glyph glyph-name="udieresis" unicode="&#xfc;" horiz-adv-x="1358" 
d="M687 1c-39 0 -75 5 -108 16c-33 10 -61 27 -84 50c-30 33 -50 70 -60 109s-15 67 -16 84c-1 4 -1 6 -1 7c0 -1 -1 -1 -1 -1l-1 -1c-2 -3 -6 -8 -12 -15c-9 -12 -20 -25 -31 -40s-21 -29 -30 -40c-9 -12 -14 -19 -15 -20c-35 -44 -68 -76 -99 -95c-31 -20 -60 -30 -87 -30
c-43 0 -77 21 -103 63c-26 41 -39 91 -39 150c0 85 11 134 33 146c8 3 17 5 26 5c12 0 25 -3 38 -8c11 -4 18 -9 23 -14c5 -6 8 -17 9 -32s2 -40 2 -75c0 -67 2 -116 7 -145c5 -30 14 -45 28 -45c11 0 27 9 46 27c19 17 43 42 73 73c29 30 64 65 105 105c10 10 17 18 20 23
s6 12 7 21c9 59 30 91 62 96c5 1 11 1 16 1c14 0 27 -3 39 -8c12 -6 20 -14 25 -24l2 -12c0 -15 -3 -36 -8 -65c-9 -45 -13 -88 -13 -129c0 -26 3 -48 10 -67c13 -30 31 -50 54 -61s48 -16 77 -16s59 2 92 7l32 4c49 6 107 21 172 45s128 50 191 79s115 54 157 76
c1 0 1 1 2 1s1 1 2 1h1v1h1c1 0 1 1 2 1l1 1h1l1 1s1 0 1 1h1c1 0 1 0 2 1c27 14 43 23 47 25h1c4 -1 8 -3 12 -5c4 -3 7 -5 9 -7c-1 -3 -25 -18 -72 -44c-47 -27 -107 -57 -180 -91c-74 -34 -153 -64 -236 -90c-84 -27 -162 -40 -234 -40zM385 450c-9 0 -18 1 -29 4
c-21 7 -37 17 -47 30c-11 13 -16 28 -16 43c0 17 6 32 18 45c11 13 28 19 49 19c31 0 54 -8 69 -24c15 -17 22 -34 22 -52c0 -17 -6 -32 -17 -45s-28 -20 -49 -20zM164 450c-9 0 -18 1 -29 4c-21 7 -37 17 -47 30c-11 13 -16 28 -16 43c0 17 6 32 18 45c11 13 28 19 49 19
c31 0 54 -8 69 -24c15 -17 22 -34 22 -52c0 -17 -6 -32 -17 -45s-28 -20 -49 -20z" />
    <glyph glyph-name="yacute" unicode="&#xfd;" horiz-adv-x="1253" 
d="M-16 -781c18 0 37 3 57 10c111 38 198 137 261 298c28 74 46 149 55 224s13 140 13 193c0 57 -1 92 -4 106v3l-57 -32c-59 -31 -117 -67 -176 -107c-59 -41 -112 -85 -161 -133c-49 -49 -89 -101 -119 -156c-31 -55 -46 -113 -46 -174c0 -29 4 -59 13 -90
c7 -23 17 -45 32 -66c14 -22 32 -40 55 -54c22 -15 48 -22 77 -22zM23 -834c-50 0 -96 12 -138 35s-76 55 -101 96s-38 89 -38 143c0 53 15 110 44 172c29 61 76 125 142 192c66 66 154 132 263 199c13 8 32 18 55 31s46 24 67 35s35 17 42 20c1 1 1 3 1 7c0 12 -2 34 -6 65
s-8 61 -13 91s-10 51 -14 64l-1 1c-4 0 -15 -14 -32 -42c-17 -27 -38 -57 -63 -91c-26 -34 -55 -64 -86 -91c-32 -27 -65 -40 -99 -40c-41 0 -75 13 -104 39c-29 25 -49 61 -62 108c-5 19 -7 42 -7 71c0 33 4 67 11 101s19 59 35 74c9 7 20 10 32 10c19 0 37 -7 52 -20
c4 -5 6 -15 6 -28c0 -15 -1 -33 -4 -54c-5 -29 -7 -61 -7 -94l1 -24c3 -47 9 -82 19 -103c10 -22 23 -33 39 -33c19 0 43 13 70 40c27 26 58 62 92 107c33 45 69 96 107 153c9 14 18 21 29 21c9 0 19 -5 32 -15c9 -7 22 -31 39 -74c16 -43 33 -108 52 -195c20 6 41 13 63 22
c35 14 82 29 141 46c59 16 142 31 251 45c83 10 144 15 185 15c27 0 44 -2 51 -6c3 -3 5 -5 5 -8s-2 -6 -7 -8c-15 -3 -37 -5 -66 -6h-6c-49 0 -122 -8 -221 -23c-99 -16 -230 -54 -395 -115c8 -37 12 -92 12 -166c0 -63 -5 -134 -16 -213s-32 -156 -62 -232
s-72 -143 -127 -201c-42 -42 -85 -73 -130 -92s-90 -29 -133 -29zM-54 512c-8 0 -14 2 -17 5s-5 6 -5 11c0 6 18 22 53 49s77 56 124 87s91 59 132 82s66 35 76 35c23 0 40 -7 53 -21c12 -15 18 -29 18 -44c0 -17 -21 -37 -64 -60s-93 -46 -149 -68s-106 -40 -150 -54
c-45 -15 -68 -22 -71 -22z" />
    <glyph glyph-name="thorn" unicode="&#xfe;" horiz-adv-x="479" 
d="M108 -147c-31 0 -68 32 -68 80c0 241 18 735 96 735c26 0 56 -31 56 -81c0 -41 -8 -71 -23 -247c61 114 130 158 188 158c70 0 122 -64 122 -147c0 -129 -100 -229 -228 -229c-30 0 -61 6 -92 17c-8 -45 -9 -186 -9 -231c0 -39 -19 -55 -42 -55zM208 192
c83 0 184 61 192 186c0 42 -19 64 -46 64c-52 0 -134 -78 -182 -246c11 -3 24 -4 36 -4z" />
    <glyph glyph-name="ydieresis" unicode="&#xff;" horiz-adv-x="1253" 
d="M-16 -781c18 0 37 3 57 10c111 38 198 137 261 298c45 120 68 259 68 417c0 57 -1 92 -4 106v3l-57 -32c-136 -73 -249 -153 -337 -240c-110 -109 -165 -219 -165 -330c0 -59 15 -112 45 -156c33 -51 77 -76 132 -76zM23 -834c-50 0 -96 12 -138 35s-76 55 -101 96
s-38 89 -38 143c0 118 62 239 186 364c83 83 189 160 318 230c53 29 90 47 109 55c1 1 1 3 1 7c0 12 -2 34 -6 65s-8 61 -13 91s-10 51 -14 64l-1 1c-4 0 -15 -14 -32 -42c-92 -148 -175 -222 -248 -222c-41 0 -75 13 -104 39c-46 41 -69 101 -69 179c0 33 4 67 11 101
c12 56 34 84 67 84c19 0 37 -7 52 -20c4 -5 6 -15 6 -28c0 -15 -1 -33 -4 -54c-5 -29 -7 -61 -7 -94l1 -24c5 -91 24 -136 58 -136c19 0 43 13 70 40c27 26 58 62 92 107c33 45 69 96 107 153c9 14 18 21 29 21c9 0 19 -5 32 -15c9 -7 22 -31 39 -74c16 -43 33 -108 52 -195
c20 6 41 13 63 22c98 40 229 70 392 91c83 10 144 15 185 15c37 0 56 -5 56 -14c0 -8 -24 -13 -73 -14h-6c-161 0 -366 -46 -616 -138c8 -37 12 -92 12 -166c0 -63 -5 -134 -16 -213c-26 -182 -89 -327 -189 -433c-81 -81 -168 -121 -263 -121zM274 495c-9 0 -18 1 -29 4
c-42 13 -63 37 -63 73c0 17 6 32 18 45c11 13 28 19 49 19c31 0 54 -8 69 -24c15 -17 22 -34 22 -52c0 -17 -6 -32 -17 -45s-28 -20 -49 -20zM53 495c-9 0 -18 1 -29 4c-42 13 -63 37 -63 73c0 17 6 32 18 45c11 13 28 19 49 19c31 0 54 -8 69 -24c15 -17 22 -34 22 -52
c0 -17 -6 -32 -17 -45s-28 -20 -49 -20z" />
    <glyph glyph-name="circumflex" unicode="&#x2c6;" horiz-adv-x="503" 
d="M475 599c-32 0 -143 113 -166 141c-116 -93 -246 -138 -252 -138c-8 0 -17 8 -17 16c0 3 236 232 262 232c54 0 201 -202 201 -222c0 -19 -18 -29 -28 -29z" />
    <glyph glyph-name="caron" unicode="&#x2c7;" horiz-adv-x="503" 
d="M69 850c31 0 142 -113 165 -141c116 93 246 138 252 138c8 0 17 -8 17 -16c0 -3 -235 -232 -262 -232c-53 0 -201 202 -201 222c0 19 18 29 29 29z" />
    <glyph glyph-name="uni02C9" unicode="&#x2c9;" horiz-adv-x="455" 
d="M427 705h-320c-15 0 -29 3 -44 8s-23 14 -23 28c0 5 15 12 46 21c30 8 67 16 111 23s86 10 127 10c37 0 68 -4 93 -12s38 -22 38 -43c0 -9 -2 -17 -7 -24s-12 -11 -21 -11z" />
    <glyph glyph-name="dotaccent" unicode="&#x2d9;" horiz-adv-x="174" 
d="M118 530c-7 0 -15 1 -24 4c-19 5 -32 14 -41 26c-9 11 -13 23 -13 35c0 15 5 28 15 39s24 16 42 16c27 0 46 -7 59 -20c12 -14 18 -29 18 -45c0 -14 -5 -27 -14 -38c-10 -11 -24 -17 -42 -17z" />
    <glyph glyph-name="ring" unicode="&#x2da;" horiz-adv-x="274" 
d="M173 648c-64 0 -133 49 -133 142c0 72 56 133 105 133c5 0 53 -1 66 -43c28 -15 63 -71 63 -125c0 -72 -49 -107 -101 -107zM156 698c24 0 62 47 62 71c0 40 -12 57 -28 57s-35 -19 -46 -50c-4 -19 -5 -33 -5 -44c0 -24 7 -34 17 -34z" />
    <glyph glyph-name="tilde" unicode="&#x2dc;" horiz-adv-x="739" 
d="M572 608c-112 0 -251 117 -352 117c-110 0 -126 -75 -151 -91l-6 -2c-10 0 -23 10 -23 31c0 44 82 131 213 131c140 0 237 -102 319 -102c41 0 79 26 116 101c3 7 10 10 17 10c15 0 34 -13 34 -37c0 -62 -58 -158 -167 -158z" />
    <glyph glyph-name="endash" unicode="&#x2013;" horiz-adv-x="372" 
d="M350 180h-256c-12 0 -24 3 -36 8s-18 14 -18 28c0 5 12 12 37 21c24 8 54 16 89 23s69 10 101 10c29 0 54 -4 75 -12c20 -8 30 -22 30 -43c0 -9 -2 -17 -5 -24c-4 -7 -10 -11 -17 -11z" />
    <glyph glyph-name="emdash" unicode="&#x2014;" horiz-adv-x="704" 
d="M659 180h-512c-23 0 -47 3 -71 8s-36 14 -36 28c0 5 24 12 73 21c49 8 108 16 179 23c70 7 138 10 203 10c58 0 107 -4 148 -12s61 -22 61 -43c0 -9 -4 -17 -11 -24s-19 -11 -34 -11z" />
    <glyph glyph-name="quoteleft" unicode="&#x2018;" horiz-adv-x="147" 
d="M91 783c10 0 22 -12 22 -23c0 -71 34 -136 34 -172c0 -19 -9 -30 -37 -30c-10 0 -70 5 -70 101c0 12 20 88 39 117c3 5 7 7 12 7z" />
    <glyph glyph-name="quoteright" unicode="&#x2019;" horiz-adv-x="147" 
d="M97 558c-11 0 -23 12 -23 23c0 71 -34 136 -34 172c0 19 9 30 37 30c10 0 70 -5 70 -101c0 -12 -20 -88 -39 -117c-3 -5 -7 -7 -11 -7z" />
    <glyph glyph-name="quotesinglbase" unicode="&#x201a;" horiz-adv-x="147" 
d="M97 -141c-11 0 -23 12 -23 23c0 71 -34 136 -34 172c0 19 9 30 37 30c10 0 70 -5 70 -101c0 -12 -20 -88 -39 -117c-3 -5 -7 -7 -11 -7z" />
    <glyph glyph-name="quotedblleft" unicode="&#x201c;" horiz-adv-x="275" 
d="M218 783c11 0 23 -12 23 -23c0 -71 34 -136 34 -172c0 -19 -9 -30 -37 -30c-10 0 -70 5 -70 101c0 12 20 88 39 117c3 5 7 7 11 7zM90 783c11 0 23 -12 23 -23c0 -71 34 -136 34 -172c0 -19 -9 -30 -37 -30c-10 0 -70 5 -70 101c0 12 20 88 39 117c3 5 7 7 11 7z" />
    <glyph glyph-name="quotedblright" unicode="&#x201d;" horiz-adv-x="275" 
d="M96 558c-10 0 -22 12 -22 23c0 71 -34 136 -34 172c0 19 9 30 37 30c10 0 70 -5 70 -101c0 -12 -20 -88 -39 -117c-3 -5 -7 -7 -12 -7zM224 558c-10 0 -22 12 -22 23c0 71 -34 136 -34 172c0 19 9 30 37 30c10 0 70 -5 70 -101c0 -12 -20 -88 -39 -117
c-3 -5 -7 -7 -12 -7z" />
    <glyph glyph-name="quotedblbase" unicode="&#x201e;" horiz-adv-x="269" 
d="M97 -141c-11 0 -23 12 -23 23c0 71 -34 136 -34 172c0 19 9 30 37 30c10 0 70 -5 70 -101c0 -12 -20 -88 -39 -117c-3 -5 -7 -7 -11 -7zM219 -141c-11 0 -23 12 -23 23c0 71 -34 136 -34 172c0 19 9 30 37 30c10 0 70 -5 70 -101c0 -12 -20 -88 -39 -117
c-3 -5 -7 -7 -11 -7z" />
    <glyph glyph-name="dagger" unicode="&#x2020;" horiz-adv-x="372" 
d="M259 563v-127c0 -144 4 -340 11 -587v-2c0 -12 -8 -18 -24 -18s-34 6 -54 18s-35 29 -45 50c-3 7 -5 36 -6 85c-2 49 -3 109 -3 182c0 102 2 213 6 334c1 22 2 44 2 65h-52c-12 0 -24 3 -36 8s-18 14 -18 28c0 5 12 12 37 21c20 7 45 13 73 19c4 63 8 122 14 175
c9 90 21 145 37 164c1 1 2 2 4 3h5c5 0 11 -2 18 -7c6 -5 11 -11 14 -17c8 -18 14 -38 17 -59s4 -50 4 -87c0 -27 0 -61 -1 -102c-1 -17 -1 -35 -1 -56h6c29 0 54 -4 75 -12c20 -8 30 -22 30 -43c0 -9 -2 -17 -5 -24c-4 -7 -10 -11 -17 -11h-91z" />
    <glyph glyph-name="daggerdbl" unicode="&#x2021;" horiz-adv-x="372" 
d="M150 639c4 63 8 122 14 175c9 90 21 145 37 164c1 1 2 2 4 3h5c5 0 11 -2 18 -7c6 -5 11 -11 14 -17c8 -18 14 -38 17 -59s4 -50 4 -87c0 -27 0 -61 -1 -102c-1 -17 -1 -35 -1 -56h6c29 0 54 -4 75 -12c20 -8 30 -22 30 -43c0 -9 -2 -17 -5 -24c-4 -7 -10 -11 -17 -11
h-91v-127c0 -64 1 -138 2 -223h6c29 0 54 -4 74 -12c21 -8 31 -22 31 -43c0 -9 -2 -17 -6 -24c-3 -7 -9 -11 -16 -11h-87c2 -83 4 -174 7 -274v-2c0 -12 -8 -18 -24 -18s-34 6 -54 18s-35 29 -45 50c-3 7 -5 36 -6 85c-2 39 -3 86 -3 141h-44c-12 0 -24 3 -36 8
s-18 14 -18 28c0 5 12 12 36 21c18 6 39 11 62 17c0 93 2 193 6 301c1 22 2 44 2 65h-52c-12 0 -24 3 -36 8s-18 14 -18 28c0 5 12 12 37 21c20 7 45 13 73 19z" />
    <glyph glyph-name="bullet" unicode="&#x2022;" horiz-adv-x="354" 
d="M223 199c-17 0 -36 3 -57 9c-43 13 -75 33 -95 60c-21 27 -31 55 -31 85c0 33 12 62 35 89c23 26 56 39 98 39c41 0 75 -8 102 -23s47 -35 60 -58s19 -47 19 -72c0 -33 -11 -62 -33 -89c-23 -27 -55 -40 -98 -40z" />
    <glyph glyph-name="ellipsis" unicode="&#x2026;" horiz-adv-x="1564" 
d="M132 -27c-9 0 -18 1 -29 4c-21 7 -37 17 -47 30c-11 13 -16 28 -16 43c0 17 6 32 18 45c11 13 28 19 49 19c31 0 54 -8 69 -24c15 -17 22 -34 22 -52c0 -17 -6 -32 -17 -45s-28 -20 -49 -20zM1498 -27c-9 0 -18 1 -29 4c-21 7 -37 17 -47 30c-11 13 -16 28 -16 43
c0 17 6 32 18 45c11 13 28 19 49 19c31 0 54 -8 69 -24c15 -17 22 -34 22 -52c0 -17 -6 -32 -17 -45s-28 -20 -49 -20zM815 -27c-9 0 -18 1 -29 4c-21 7 -37 17 -47 30c-11 13 -16 28 -16 43c0 17 6 32 18 45c11 13 28 19 49 19c31 0 54 -8 69 -24c15 -17 22 -34 22 -52
c0 -17 -6 -32 -17 -45s-28 -20 -49 -20z" />
    <glyph glyph-name="guilsinglleft" unicode="&#x2039;" horiz-adv-x="348" 
d="M301 14c-19 0 -50 15 -91 45c-42 29 -81 64 -116 104c-36 40 -54 75 -54 106c0 19 19 47 57 84c37 37 79 72 124 103s78 47 100 47c7 0 14 -3 19 -8s8 -12 8 -19c0 -21 -11 -46 -32 -75s-45 -58 -71 -85c-27 -27 -49 -50 -68 -67l-7 -7c53 -61 91 -108 113 -142
c22 -35 33 -59 33 -72c0 -9 -5 -14 -15 -14z" />
    <glyph glyph-name="guilsinglright" unicode="&#x203a;" horiz-adv-x="348" 
d="M87 14c-10 0 -15 5 -15 14c0 13 11 37 33 72c22 34 60 81 113 142l-7 7c-19 17 -41 40 -67 67c-27 27 -51 56 -72 85s-32 54 -32 75c0 7 3 14 8 19s12 8 19 8c22 0 56 -16 101 -47s86 -66 124 -103c37 -37 56 -65 56 -84c0 -31 -18 -66 -53 -106
c-36 -40 -75 -75 -116 -104c-42 -30 -73 -45 -92 -45z" />
    <glyph glyph-name="fraction" unicode="&#x2044;" horiz-adv-x="603" 
d="M109 -171c-31 0 -69 26 -69 68c0 36 430 1011 531 1081c3 2 7 3 10 3c12 0 22 -12 22 -24c0 -105 -84 -182 -461 -1108c-6 -13 -18 -20 -33 -20z" />
    <glyph glyph-name="fraction" unicode="&#x2215;" horiz-adv-x="603" 
d="M109 -171c-31 0 -69 26 -69 68c0 36 430 1011 531 1081c3 2 7 3 10 3c12 0 22 -12 22 -24c0 -105 -84 -182 -461 -1108c-6 -13 -18 -20 -33 -20z" />
    <glyph glyph-name="franc" unicode="&#x20a3;" horiz-adv-x="661" 
d="M138 585c14 0 30 3 48 8c11 3 25 8 41 14c15 6 31 12 46 19s28 13 39 18s16 7 16 8c0 2 -4 7 -12 14c-9 7 -19 14 -30 22s-22 15 -32 21c-41 23 -76 35 -105 35c-30 0 -53 -9 -68 -27s-23 -37 -23 -58c0 -19 7 -36 20 -51s33 -23 60 -23zM515 412v1l1 1c0 1 0 4 1 7
c0 3 0 7 1 13c0 5 0 13 1 22s1 21 2 34s2 29 3 47s2 39 3 63s1 51 2 81c-2 -1 -5 -3 -8 -4c-11 -5 -24 -12 -40 -19c-16 -8 -30 -15 -43 -22s-20 -12 -21 -15v-1c0 -4 6 -15 19 -32c11 -17 21 -35 31 -54c6 -11 12 -26 19 -43s13 -33 18 -48s8 -25 8 -28c0 -1 0 -2 1 -2
c0 -1 0 -1 1 -1h1zM628 -57c-2 -23 -4 -45 -7 -67c-6 -49 -14 -78 -25 -87c-9 -5 -17 -7 -26 -7s-17 2 -24 5s-14 7 -19 12c-5 4 -10 8 -13 11l-5 5v22c0 20 0 34 1 43c0 8 0 14 1 19c0 3 0 7 1 12v19v13h-76c-15 0 -29 3 -44 8s-23 14 -23 28c0 5 15 12 46 21
c26 7 58 13 95 20c-1 25 -2 54 -3 87c-8 -1 -15 -2 -20 -3c-8 -1 -14 -2 -19 -2c-7 0 -12 2 -16 6c-3 4 -5 8 -5 11c0 9 10 17 29 25c2 1 4 1 5 2c7 3 11 6 14 9s4 8 4 17c0 11 -2 30 -5 57c-1 4 -1 9 -2 14c-17 119 -38 205 -62 258s-42 85 -53 96c-3 4 -5 7 -6 8
c-3 -1 -8 -4 -15 -7c-24 -11 -59 -25 -106 -41c-41 -13 -76 -20 -106 -20c-33 0 -60 6 -81 18s-37 27 -47 46c-11 19 -16 38 -16 59c0 31 11 59 34 84c22 25 54 38 97 38c27 0 57 -7 92 -20c34 -13 72 -36 113 -67l33 -25l162 84c1 27 2 53 3 76v15c0 33 2 61 6 83
c5 22 18 33 41 33c9 0 19 -3 30 -9c11 -7 17 -13 20 -20c1 -3 2 -10 3 -22s3 -25 4 -40s1 -27 2 -38v-1c1 -7 1 -11 1 -14v-2c2 0 6 1 12 4c6 2 13 5 21 9c53 27 109 49 170 66s120 25 178 25c35 0 68 -3 99 -10s60 -19 87 -35c23 -14 35 -24 35 -31c0 -5 -5 -7 -16 -7
c-14 0 -38 5 -72 14c-41 11 -81 17 -120 17c-46 0 -90 -6 -131 -17s-80 -25 -115 -40s-66 -30 -93 -44c-19 -9 -36 -17 -51 -24c0 -309 -1 -476 -3 -502v-38h3c6 0 20 2 42 5c23 3 51 7 83 11c31 4 61 6 90 6c34 0 60 -5 79 -14c12 -7 18 -15 18 -24c0 -5 -2 -9 -5 -13
c-5 -5 -19 -7 -42 -7l-50 1c-27 0 -58 -1 -94 -4s-75 -10 -117 -21c-3 -1 -5 -13 -7 -34s-4 -46 -7 -75h18c37 0 68 -4 93 -12s38 -22 38 -43c0 -9 -2 -17 -7 -24s-12 -11 -21 -11h-128z" />
    <glyph glyph-name="lira" unicode="&#x20a4;" horiz-adv-x="525" 
d="M78 -31c-18 0 -34 9 -49 26s-23 33 -23 49c0 19 11 30 33 32c33 65 67 124 101 177c33 53 77 118 131 196l7 10c-37 20 -66 41 -89 63h-150c-45 0 -67 12 -67 36c0 5 15 12 46 21c30 8 67 16 111 23h5c-6 14 -10 28 -12 42h-83c-45 0 -67 12 -67 36c0 5 15 12 45 21
c30 8 66 15 109 22c7 26 18 51 34 75c27 39 59 71 96 96c37 24 72 36 103 36c19 0 34 -3 47 -10c12 -7 21 -15 28 -24c6 -9 9 -17 9 -23c0 -7 -7 -16 -21 -26c-14 -11 -31 -23 -52 -36c-44 -28 -79 -53 -106 -77c82 -2 123 -20 123 -55c0 -9 -2 -17 -7 -24s-12 -11 -21 -11
h-154c-1 -4 -1 -8 -1 -13c0 -7 1 -14 3 -21c17 1 33 2 49 2c87 0 131 -18 131 -55c0 -9 -2 -17 -7 -24s-12 -11 -21 -11h-74l17 -11l11 -5c11 -6 20 -11 27 -16c6 -5 9 -13 9 -23c0 -15 -8 -39 -24 -72s-42 -84 -77 -152l-86 -165c158 -5 259 -20 303 -44
c17 -10 26 -20 26 -31c0 -13 -8 -19 -24 -19c-15 0 -33 1 -55 4c-33 5 -76 7 -131 7c-48 0 -105 -5 -172 -14c-10 -8 -20 -12 -31 -12z" />
    <glyph glyph-name="peseta" unicode="&#x20a7;" horiz-adv-x="2921" 
d="M322 109c7 0 15 3 24 10c8 7 17 16 28 28c11 11 21 24 31 37c9 13 17 24 24 33c6 9 9 14 9 15h-1l-23 -4c-41 -11 -69 -25 -86 -44s-26 -35 -26 -49c0 -15 7 -24 20 -26zM2077 -102c13 0 27 8 41 23c13 15 21 39 24 72l1 16c0 10 0 21 -1 32s-3 20 -5 28
c-2 7 -4 11 -6 11c-1 0 -5 -2 -11 -7s-12 -10 -19 -16l-18 -18c-15 -20 -26 -38 -33 -54c-7 -17 -11 -31 -11 -43c0 -14 4 -25 12 -32c7 -8 16 -12 26 -12zM1096 239h-142c-26 0 -66 1 -119 2c-54 1 -140 5 -258 10l-20 -34c-15 -27 -33 -53 -52 -77s-41 -44 -64 -59
s-49 -23 -76 -23h-2c-33 0 -59 8 -78 23s-28 33 -28 54c0 17 7 35 22 53c14 18 37 34 68 48c6 3 17 6 34 11c16 5 32 9 49 13c16 4 26 6 29 6c1 0 4 6 11 18c6 11 13 24 20 39s13 28 18 39c11 29 21 72 31 130s18 115 25 172c7 56 10 96 11 119c0 29 -3 49 -10 62
s-17 19 -28 19c-21 0 -45 -17 -74 -50c-29 -34 -54 -74 -75 -121c-40 -86 -82 -201 -126 -346s-84 -315 -120 -508c-8 -45 -15 -83 -21 -115c-7 -32 -10 -50 -11 -54c-2 -7 -6 -10 -12 -10s-15 3 -26 8c-18 7 -31 19 -38 34c-8 15 -14 40 -18 73c-1 11 -2 66 -5 167
s-5 219 -7 356c-3 137 -4 259 -4 366c0 120 2 195 7 225c2 5 6 10 12 14s13 6 21 6c6 0 13 -2 21 -7c7 -5 13 -11 16 -17c11 -34 18 -136 23 -307s8 -355 9 -552c1 -59 2 -115 3 -169l8 48c31 185 65 342 102 471s74 233 113 312c38 79 76 136 113 171s70 53 101 53
c39 0 70 -23 94 -70s36 -109 36 -185c0 -50 -6 -105 -18 -164s-31 -121 -58 -185l-12 -29l76 -3c168 -6 293 -9 375 -9h49c-7 47 -12 93 -14 139c-3 57 -5 108 -5 151v83l-1 23l-84 -2c-22 0 -43 1 -63 3c-21 2 -36 6 -45 11c-6 5 -9 9 -9 14c0 4 2 7 6 9c3 1 10 1 23 2
c12 0 27 0 45 1c19 1 39 1 58 2c19 0 36 1 50 2s22 3 24 5c1 3 3 16 6 39c3 24 7 53 12 87c5 33 13 64 22 93c9 28 20 46 34 54c7 3 16 5 25 5c12 0 24 -2 36 -7s20 -11 25 -18s8 -28 8 -64c0 -23 -1 -54 -3 -91l-2 -78v-8l4 -1c8 0 28 3 60 8s77 12 135 20h4
c19 3 39 5 61 5c16 0 30 -2 42 -5c12 -4 18 -11 18 -21c0 -6 -10 -11 -31 -15s-47 -8 -78 -11s-62 -6 -94 -9c-33 -3 -61 -5 -84 -8s-37 -6 -42 -9v-2c-1 -11 -4 -44 -7 -101c-4 -57 -6 -122 -6 -194c0 -63 3 -124 8 -184c9 -89 25 -154 46 -195s55 -62 101 -62
c45 0 104 17 179 52c75 34 170 82 285 145c3 1 7 3 12 6c22 13 54 30 96 51c41 21 84 40 129 58c1 0 1 0 2 1c-3 8 -6 17 -9 27c-13 39 -20 72 -20 101c0 49 18 94 54 137c35 42 72 63 110 63c18 0 35 -6 50 -18c8 -7 12 -14 12 -20c0 -7 -5 -12 -16 -13c-5 0 -10 1 -17 4
c-3 1 -6 2 -9 2c-13 0 -23 -9 -31 -28s-12 -36 -12 -50c0 -19 6 -45 19 -77c13 -33 26 -65 41 -97c11 -25 21 -48 29 -68c8 -21 12 -36 12 -45h6c3 1 14 2 31 4s46 4 87 6c179 11 305 25 376 42c71 16 114 29 129 38c9 5 17 7 24 7c5 0 11 -2 17 -5c5 -3 7 -6 7 -9
c0 -15 -45 -33 -134 -55s-213 -36 -371 -43c-59 -3 -100 -5 -124 -8s-37 -6 -40 -7h-1v-25c0 -17 -2 -41 -5 -70c-3 -30 -12 -60 -25 -90c-19 -39 -42 -66 -70 -83c-29 -17 -57 -26 -85 -26c-34 0 -64 10 -89 30c-25 19 -38 45 -38 76c0 23 9 47 27 74c17 27 47 54 88 82
l22 15c0 6 -6 23 -17 52c-5 12 -9 24 -14 37c-38 -15 -79 -34 -123 -56c-50 -26 -101 -54 -154 -83c-66 -36 -130 -69 -192 -100s-118 -53 -167 -67c-29 -7 -57 -11 -82 -11c-57 0 -104 16 -141 48c-37 31 -67 73 -88 124c-22 51 -38 106 -49 165c0 3 -1 5 -1 8z" />
    <glyph glyph-name="Euro" unicode="&#x20ac;" horiz-adv-x="1397" 
d="M50 224v-67c3 -104 20 -180 49 -227c29 -48 74 -74 137 -77c14 -1 28 -1 42 -1c77 0 156 11 236 33c80 21 158 49 235 82s149 67 217 104c67 37 128 71 182 103c49 28 90 51 123 69c33 17 57 26 71 26c4 0 7 -1 9 -2s4 -2 5 -3c1 -2 2 -4 3 -5s1 -2 2 -3s1 -2 2 -2
c-3 -3 -45 -28 -125 -75c-81 -47 -181 -102 -301 -163s-241 -115 -363 -162s-226 -73 -312 -77h-10c-69 0 -130 14 -185 43c-55 28 -98 73 -129 136c-32 62 -48 144 -48 247v21c-24 0 -48 3 -73 8s-37 14 -37 28c0 5 25 12 75 21c12 2 25 4 39 5c2 28 5 57 9 87h-13
c-24 0 -48 3 -73 8s-37 14 -37 28c0 5 25 11 75 20c18 3 38 6 59 9c20 101 47 187 82 257c35 71 74 124 116 161c41 37 81 55 118 55c29 0 55 -11 78 -34s40 -58 51 -105c5 -23 8 -45 8 -68c0 -24 -3 -49 -9 -76c-2 -12 -4 -20 -6 -23c-3 -4 -6 -6 -10 -6c-2 0 -4 1 -7 2
s-5 3 -6 5c-1 3 -2 11 -4 25c-3 13 -5 29 -7 48c-5 54 -14 93 -25 118c-12 25 -25 37 -40 37c-27 0 -57 -32 -88 -95c-32 -63 -59 -144 -81 -242c-4 -14 -7 -28 -9 -42c60 5 117 7 173 7c61 0 112 -4 154 -12c41 -8 62 -22 62 -42c0 -9 -4 -17 -11 -24
c-8 -7 -20 -11 -35 -11h-356c-3 -23 -6 -45 -8 -68c68 6 132 9 194 9c61 0 112 -4 154 -12c41 -8 62 -22 62 -43c0 -8 -4 -16 -11 -23c-8 -8 -20 -12 -35 -12h-368z" />
    <glyph glyph-name="numero" unicode="&#x2116;" horiz-adv-x="2803" 
d="M2011 186c3 1 5 10 8 27c3 16 4 36 4 60c0 23 -2 48 -5 74c-4 26 -11 50 -21 73c-25 56 -46 84 -61 84c-13 0 -23 -15 -30 -44c-7 -30 -14 -68 -19 -115c-3 -22 -4 -38 -4 -47c0 -17 8 -33 24 -50c15 -17 31 -31 47 -40c6 -3 13 -7 21 -10c7 -3 15 -6 22 -8
c7 -3 11 -4 13 -4h1zM1904 -72c23 0 58 75 105 226l-21 7c-23 7 -43 16 -60 25s-29 18 -38 26c-9 7 -14 11 -15 12l-1 -44v-43c0 -139 10 -209 29 -209h1zM1737 189l-10 -8c-69 -57 -151 -119 -247 -187c-96 -69 -185 -116 -267 -143c-24 -7 -50 -10 -77 -10
c-43 0 -86 11 -129 32s-78 55 -106 104c-28 48 -42 113 -42 195c0 45 3 87 8 125c5 37 15 96 32 177c19 88 28 162 28 222c0 26 -2 47 -7 63s-14 24 -26 24c-19 0 -47 -24 -86 -71s-90 -128 -154 -241c-27 -50 -61 -120 -100 -209c-39 -90 -76 -179 -111 -266
s-59 -152 -74 -194c-6 -16 -15 -29 -26 -38c-12 -9 -24 -14 -36 -14c-11 0 -21 4 -30 11s-17 19 -22 35c-8 30 -12 81 -12 153c0 59 2 126 6 202c3 75 7 150 11 224c8 127 12 222 12 284v16c0 53 -3 95 -8 127c-6 32 -19 48 -38 48s-46 -18 -83 -55c-33 -34 -57 -66 -73 -96
s-26 -57 -30 -81c-5 -25 -7 -46 -7 -63l1 -31c0 -12 -3 -18 -8 -18c-3 0 -5 1 -8 2s-6 3 -8 4c-7 6 -10 19 -10 39c0 27 7 61 20 104c13 42 32 83 59 124c27 40 61 72 103 95c17 9 33 13 49 13c31 0 59 -14 86 -43c26 -29 45 -70 58 -122c9 -41 14 -106 14 -195
c0 -50 -1 -107 -4 -170v-1c0 -5 -1 -27 -3 -68c-3 -46 -6 -98 -9 -157s-6 -111 -8 -156c-3 -45 -4 -70 -5 -73l-1 -7l1 -3c3 0 17 32 41 95c28 74 67 167 116 279s105 219 168 321c65 101 120 173 167 214c46 41 84 61 114 61c21 0 39 -8 52 -23c13 -16 23 -36 30 -61
s10 -51 11 -78v-9c0 -32 -3 -70 -10 -115s-16 -92 -26 -143c-11 -59 -22 -119 -31 -178c-9 -60 -14 -116 -14 -167c0 -41 4 -77 13 -109s23 -57 44 -75s49 -27 85 -27c15 0 32 2 50 5c54 11 114 37 179 76s129 82 192 129s116 88 161 124c15 12 27 22 38 31
c6 57 18 118 35 185c14 47 33 80 56 101c23 20 48 30 75 30c37 0 73 -15 108 -45s61 -68 80 -113c9 -22 15 -45 18 -70s4 -48 4 -70c0 -33 -1 -58 -4 -75c-1 -5 -1 -8 -1 -9c61 -21 127 -32 198 -32c83 0 166 10 248 29s150 38 204 58s81 32 81 37c5 0 10 -1 14 -4
s6 -6 6 -10l-1 -4c-5 -8 -35 -22 -89 -43c-55 -21 -124 -42 -209 -61c-85 -20 -174 -30 -265 -30c-67 0 -132 8 -195 23c-1 -3 -3 -10 -5 -19c-7 -27 -19 -65 -37 -113c-18 -49 -43 -93 -75 -132c-25 -27 -52 -41 -80 -41c-27 0 -54 13 -80 38c-27 25 -48 62 -65 111
s-25 108 -25 177c0 9 0 19 1 29zM2085 -264h-320c-15 0 -29 3 -44 8s-23 14 -23 28c0 5 15 12 46 21c30 8 67 16 111 23s86 10 127 10c37 0 68 -4 93 -12s38 -22 38 -43c0 -9 -2 -17 -7 -24s-12 -11 -21 -11z" />
    <glyph glyph-name="trademark" unicode="&#x2122;" horiz-adv-x="1811" 
d="M76 1043c8 0 17 1 28 2c7 1 15 3 24 5s18 4 25 6c7 1 11 2 12 3c0 1 -5 6 -14 13c-10 7 -22 13 -35 20c-14 7 -28 10 -42 10h-9c-11 -3 -20 -7 -26 -13c-7 -7 -10 -13 -10 -20s4 -13 11 -18s19 -8 36 -8zM280 886v1c0 1 1 10 2 29c1 27 5 79 10 156h-1
c-1 -1 -5 -2 -11 -3c-9 -2 -18 -4 -29 -7s-20 -5 -28 -7s-13 -3 -14 -4c0 -1 1 -2 2 -3c1 -2 3 -4 5 -6c21 -28 37 -56 46 -85s14 -50 16 -63c1 -5 1 -8 2 -8zM293 1092v7c1 7 2 15 3 26s2 21 4 30c1 9 4 14 7 17c1 1 3 1 6 2h7c4 0 8 0 11 -1s6 -1 7 -2s1 -2 2 -3
s1 -3 1 -6v-13v-47l19 5c15 5 34 10 55 15s44 9 68 13c23 4 45 6 66 6c16 0 30 -2 43 -5c19 -5 33 -11 42 -18c8 -8 12 -14 12 -18c0 -3 -1 -5 -4 -6h-1c-2 0 -5 1 -10 3s-9 4 -13 7c-5 2 -8 4 -10 6c-4 5 -10 8 -19 10s-20 3 -31 3c-21 0 -45 -2 -71 -7
c-27 -5 -52 -10 -76 -15c-24 -6 -43 -11 -57 -15c-5 -1 -10 -2 -13 -3c-5 -112 -9 -196 -12 -251c-1 -36 -2 -64 -3 -83s-3 -33 -4 -41c-1 -9 -3 -14 -6 -15c-1 -1 -4 -2 -8 -2c-5 -1 -9 -1 -14 -1h-10c-5 1 -8 3 -10 6c-3 3 -4 7 -5 13s-2 15 -3 27c0 25 -5 74 -15 147
c-7 37 -17 70 -31 101c-14 30 -26 49 -37 58c-1 1 -2 1 -3 1c-3 0 -8 -1 -16 -3c-33 -9 -61 -13 -84 -13c-9 0 -16 1 -23 2c-20 5 -34 11 -43 20c-9 8 -14 17 -14 27c0 9 5 18 14 27c9 8 22 13 40 16c5 1 9 1 14 1c20 0 39 -4 57 -12c17 -8 32 -16 44 -24
c12 -9 20 -14 23 -17l1 -1zM1493 690c-7 0 -14 0 -21 1c-49 9 -84 26 -104 53c-21 27 -31 59 -31 97c0 31 5 65 16 101c10 35 22 71 37 106c8 18 12 31 12 38c0 5 -2 8 -6 8c-7 0 -20 -8 -37 -24c-18 -17 -37 -36 -56 -58c-19 -23 -37 -44 -52 -64
c-49 -67 -89 -112 -118 -137c-9 -9 -16 -14 -21 -17s-12 -4 -19 -4c-23 0 -39 9 -46 26c-8 17 -12 37 -12 58c0 17 1 34 4 51c3 16 5 29 8 39c1 7 3 13 4 19c3 15 6 29 9 43s4 25 4 34s-2 14 -7 15c-9 0 -35 -31 -76 -92c-21 -33 -41 -70 -62 -113s-36 -78 -47 -104
c-2 -5 -4 -9 -5 -12c-6 -14 -11 -25 -14 -32c-3 -8 -6 -14 -8 -17c-2 -4 -4 -6 -6 -7s-4 -2 -7 -2h-3c-23 0 -35 16 -38 48c0 5 1 16 2 32s3 33 4 50s3 30 4 41c3 25 7 51 11 78c9 51 14 95 14 133c0 11 -1 22 -3 32c-4 19 -12 28 -24 28c-15 0 -32 -11 -53 -33
c-21 -23 -39 -50 -54 -83c-16 -33 -24 -64 -24 -94v-7c1 -12 2 -24 5 -35c2 -11 5 -20 8 -25c1 -3 2 -5 2 -6s-1 -2 -3 -2s-4 1 -6 2c-3 1 -5 2 -7 3c-7 6 -12 16 -15 29c-4 13 -6 27 -6 43c0 10 1 21 3 32c11 59 33 107 66 143c32 36 63 54 93 54c20 0 37 -9 50 -27
s20 -47 20 -88l-1 -24c-1 -9 -2 -25 -4 -46c-3 -21 -6 -45 -9 -71c-5 -33 -9 -64 -12 -92s-5 -45 -5 -52l1 -2c1 1 6 11 15 31s20 44 33 73c13 28 28 56 43 83c11 21 25 43 41 67s33 45 50 63c17 17 33 26 47 26c11 0 21 -8 30 -23c5 -11 8 -27 8 -48s-3 -46 -8 -75
c-1 -3 -1 -6 -2 -9c-9 -45 -14 -79 -14 -104c0 -17 4 -27 12 -28c19 0 65 50 139 149c24 31 52 63 85 96s58 54 77 64c5 3 11 4 16 4c14 0 26 -8 35 -23c3 -6 4 -13 4 -21c0 -16 -3 -34 -9 -54c-7 -21 -13 -38 -19 -53c-1 -5 -3 -9 -4 -12c-9 -24 -17 -49 -24 -75
c-7 -27 -11 -52 -11 -76s5 -45 16 -63s29 -31 56 -39c11 -3 23 -4 35 -4c37 0 78 10 122 31c43 20 84 43 123 68s70 47 93 65c19 13 30 21 33 22c7 2 12 3 15 3s5 0 6 -1s1 -2 1 -3s0 -3 -1 -4l-3 -3s-15 -12 -41 -31c-27 -19 -60 -42 -101 -67s-84 -48 -129 -67
s-87 -29 -124 -29z" />
    <glyph glyph-name="partialdiff" unicode="&#x2202;" horiz-adv-x="479" 
d="M287 47c-111 0 -247 107 -247 243c0 90 61 149 143 149c62 0 136 -34 205 -113c-58 255 -251 370 -251 414c0 14 13 28 27 28c84 0 315 -259 315 -493c0 -146 -102 -228 -192 -228zM288 113c63 0 99 47 107 109c-6 3 -109 172 -225 172c-60 0 -86 -35 -86 -80
c0 -83 86 -201 204 -201z" />
    <glyph glyph-name="Delta" unicode="&#x2206;" horiz-adv-x="789" 
d="M464 -73c-186 0 -381 16 -381 16c-27 0 -43 12 -43 37c0 13 5 31 15 52l396 792c9 16 19 24 29 24c75 0 167 -448 307 -850l2 -9c0 -49 -159 -62 -325 -62zM182 14c59 3 96 3 480 26c-100 314 -156 493 -194 660c-205 -530 -250 -612 -286 -686z" />
    <glyph glyph-name="product" unicode="&#x220f;" horiz-adv-x="858" 
d="M612 -23c-27 0 -59 28 -59 54v710c-1 0 -1 -46 -2 -46l-1 45l-163 -5v-7c0 -71 -14 -246 -14 -655l1 -35c0 -30 -6 -61 -42 -61c-1 0 -65 2 -65 92c0 224 30 601 39 664l-97 -1c-94 0 -169 8 -169 62c0 40 82 44 145 44h44c552 0 629 -4 629 -52c0 -23 -23 -33 -195 -41
c1 -13 2 -38 2 -72c0 -182 -17 -607 -18 -668c0 -19 -19 -28 -35 -28z" />
    <glyph glyph-name="summation" unicode="&#x2211;" horiz-adv-x="706" 
d="M464 -29c-115 0 -246 6 -335 6c-57 0 -89 38 -89 71c0 19 271 497 312 537c-71 91 -191 192 -191 220v5c0 22 18 45 47 46c30 1 89 4 157 4c146 0 330 -11 330 -68c0 -50 -125 -20 -436 -47c80 -74 103 -107 153 -146c14 -11 21 -23 21 -40c0 -55 -70 -166 -241 -470
c464 -15 514 -39 514 -76c0 -34 -110 -42 -242 -42z" />
    <glyph glyph-name="minus" unicode="&#x2212;" horiz-adv-x="455" 
d="M427 284h-320c-29 0 -67 8 -67 36c0 15 163 54 284 54c73 0 131 -14 131 -55c0 -17 -9 -35 -28 -35z" />
    <glyph glyph-name="radical" unicode="&#x221a;" horiz-adv-x="538" 
d="M152 -13c-50 0 -112 241 -112 259c0 8 0 22 16 22c30 0 33 -58 83 -184c80 211 271 788 327 788c32 0 72 -27 72 -71c0 -21 -329 -803 -376 -811c-3 -2 -6 -3 -10 -3z" />
    <glyph glyph-name="infinity" unicode="&#x221e;" horiz-adv-x="734" 
d="M555 211c-102 0 -212 87 -226 108c-63 -54 -117 -77 -166 -77c-82 0 -123 66 -123 123c0 62 49 134 169 134c31 0 85 -5 131 -46c47 56 114 149 223 149c108 0 171 -102 171 -200c0 -17 -7 -191 -179 -191zM150 325c42 0 108 34 157 91c-37 17 -68 24 -95 24
c-68 0 -105 -44 -105 -77c0 -16 8 -29 24 -35c6 -2 12 -3 19 -3zM531 285c82 0 133 90 133 158c0 42 -19 76 -62 76c-47 0 -122 -42 -233 -161c53 -40 105 -73 162 -73z" />
    <glyph glyph-name="integral" unicode="&#x222b;" horiz-adv-x="794" 
d="M82 -95c-27 0 -42 24 -42 43c0 13 7 24 21 24c120 4 237 221 284 336c71 177 224 518 414 518h7c12 -1 28 -17 28 -30c0 -3 -1 -6 -3 -9c-42 -58 -154 -69 -282 -362c-225 -512 -262 -520 -427 -520z" />
    <glyph glyph-name="approxequal" unicode="&#x2248;" horiz-adv-x="739" 
d="M572 225c-29 0 -59 6 -90 19c-31 12 -63 26 -95 42c-30 15 -59 28 -87 39c-29 11 -55 17 -80 17c-27 0 -49 -4 -66 -11c-17 -8 -30 -17 -40 -28c-11 -11 -19 -21 -26 -30c-7 -10 -13 -17 -19 -22l-6 -2c-5 0 -10 3 -15 8s-8 12 -8 23c0 15 9 32 26 53s42 39 74 55
c32 15 70 23 113 23c40 0 77 -6 110 -19s63 -27 92 -42c21 -11 42 -21 62 -29c19 -8 38 -12 55 -12c21 0 41 8 60 23s37 41 56 78c4 7 10 10 17 10c8 0 16 -3 23 -9c7 -7 11 -16 11 -28c0 -21 -6 -43 -19 -68s-31 -46 -56 -63c-25 -18 -55 -27 -92 -27zM572 30
c-29 0 -59 6 -90 19s-63 27 -95 42c-30 15 -59 28 -87 39c-29 11 -55 17 -80 17c-27 0 -49 -4 -66 -11c-17 -8 -30 -17 -40 -27c-11 -11 -19 -21 -26 -31s-13 -17 -19 -22l-6 -1c-5 0 -10 3 -15 8s-8 12 -8 22c0 15 9 32 26 53s42 39 74 55c32 15 70 23 113 23
c40 0 77 -6 110 -19s63 -27 92 -42c21 -11 42 -20 62 -28c19 -8 38 -12 55 -12c21 0 41 8 60 23s37 40 56 77c4 7 10 10 17 10c8 0 16 -3 23 -9c7 -7 11 -16 11 -28c0 -21 -6 -43 -19 -68s-31 -46 -56 -63c-25 -18 -55 -27 -92 -27z" />
    <glyph glyph-name="lessequal" unicode="&#x2264;" horiz-adv-x="450" 
d="M370 134c-6 0 -13 3 -21 8c-9 5 -29 22 -61 51s-67 64 -105 104c-38 39 -71 78 -100 115s-43 64 -43 82c0 9 15 32 46 71s68 81 111 127s84 86 125 121s71 52 91 52c11 0 20 -4 27 -11s10 -15 10 -22c0 -17 -7 -34 -20 -50s-33 -36 -59 -60c-25 -23 -56 -54 -92 -93
c-37 -39 -78 -88 -124 -149c0 0 0 -1 1 -1c2 -3 14 -18 34 -44c23 -30 49 -64 78 -103s54 -74 77 -105s35 -50 38 -55c4 -7 6 -13 6 -18c0 -12 -6 -19 -19 -20zM427 0h-320c-15 0 -29 3 -44 8s-23 14 -23 28c0 5 15 12 46 21c30 8 67 16 111 23s86 10 127 10
c37 0 68 -4 93 -12s38 -22 38 -43c0 -9 -2 -17 -7 -24s-12 -11 -21 -11z" />
    <glyph glyph-name="greaterequal" unicode="&#x2265;" horiz-adv-x="450" 
d="M120 134c-13 1 -19 8 -19 20c0 5 2 11 6 18c3 5 15 24 38 55s49 66 78 105s55 73 78 103c19 26 31 41 33 44c1 0 1 1 1 1c-46 61 -87 110 -123 149c-37 39 -68 70 -93 93c-26 24 -46 44 -59 60s-20 33 -20 50c0 7 3 15 10 22s16 11 27 11c20 0 50 -17 91 -52
s83 -75 126 -121s79 -88 110 -127s46 -62 46 -71c0 -18 -14 -45 -43 -82s-62 -76 -100 -115c-38 -40 -73 -75 -105 -104s-52 -46 -61 -51c-8 -5 -15 -8 -21 -8zM427 0h-320c-15 0 -29 3 -44 8s-23 14 -23 28c0 5 15 12 46 21c30 8 67 16 111 23s86 10 127 10
c37 0 68 -4 93 -12s38 -22 38 -43c0 -9 -2 -17 -7 -24s-12 -11 -21 -11z" />
  </font>
</defs>
</svg>
